%
M48
M72
T01C0.01575
T02C0.02953
T03C0.03543
T04C0.04000
T05C0.04724
T06C0.12598
%
T01
X304000Y95000
X293000Y95500
X295000Y80000
X309500Y106500
X295000Y30000
X312500Y115000
X318500Y129500
X254000Y16500
X252000Y34500
X263500Y14500
X243000Y19000
X318500Y39500
X318500Y20500
X275000Y19500
X278500Y52000
X292500Y58500
X316000Y50000
X282500Y109000
X264000Y90000
X258000Y71000
X246500Y215000
X228500Y186500
X221500Y170000
X269500Y184500
X303500Y215000
X330000Y194500
X246500Y145000
X215000Y125500
X223500Y87500
X238500Y87500
X227500Y77000
X247000Y51500
X256000Y51500
X280500Y82000
X282500Y103000
X300000Y99500
X308500Y91500
X269500Y75500
X280500Y88000
X276000Y94500
X280500Y113000
X267000Y35000
X267000Y44500
X252000Y59000
X283000Y62000
X283000Y29000
X311500Y74000
X311500Y82000
X286500Y66000
X272500Y66000
X324500Y142500
X317500Y70000
X323500Y133500
X325500Y86000
X233500Y203000
X326000Y48500
X233500Y180000
X328000Y133500
X233500Y141500
X205500Y130000
X270000Y14500
X270000Y6500
X329500Y52000
X329500Y149000
X249000Y56000
X228500Y2500
X323500Y12000
X231500Y66500
X193000Y60000
X110000Y110000
X110000Y138500
X241000Y66500
X252000Y66500
X249000Y73000
X241500Y73000
X265500Y7000
X258500Y7000
X329500Y56500
X326500Y146000
X320500Y181000
X301500Y181000
X278500Y131000
X205500Y103500
X90000Y124000
X90000Y133000
X324520Y205500
X324500Y194500
X330000Y207500
X315000Y145000
X301500Y129500
X216500Y87500
X226500Y127500
X246000Y127500
X251500Y146500
X260000Y146500
X215000Y115500
X205500Y115500
X100000Y165000
X257500Y164000
X262000Y164000
X294000Y126000
X205500Y91500
X120000Y106500
X120000Y138500
X288000Y124000
X201000Y94500
X130000Y106500
X130000Y138500
X246500Y150000
X226500Y148000
X105000Y135500
X105000Y110000
X229500Y132500
X246500Y140000
X95000Y133000
X95000Y118500
X247000Y121500
X201500Y124500
X155000Y86000
X155000Y124500
X275000Y115000
X201500Y80500
X285000Y126500
X205500Y97500
X135000Y106500
X135000Y138500
X282000Y129000
X201000Y100500
X150000Y100500
X150000Y138500
X190500Y160000
X263000Y154000
X281000Y185500
X289000Y185500
X274500Y132500
X201000Y106500
X165000Y86000
X165000Y106500
X274000Y137000
X205500Y109500
X175000Y86000
X175000Y109500
X246000Y170000
X80000Y168000
X253000Y164000
X245980Y175020
X260000Y134000
X201500Y118500
X125000Y118500
X125000Y95000
X271500Y167500
X245980Y180020
X266000Y134000
X201000Y112500
X145000Y86000
X145000Y106500
X276000Y167500
X205500Y121500
X254000Y134000
X115000Y110000
X115000Y118500
X246000Y165000
T02
X320587Y165000
X331413Y165000
T03
X303937Y115000
X296063Y115000
T04
X175000Y60000
X165000Y60000
X155000Y60000
X145000Y60000
X135000Y60000
X125000Y60000
X115000Y60000
X105000Y60000
X95000Y60000
X85000Y60000
X75000Y60000
X65000Y60000
X25000Y160000
X35000Y160000
X45000Y160000
X55000Y160000
X65000Y160000
X75000Y160000
X85000Y160000
X95000Y160000
X105000Y160000
X115000Y160000
X125000Y160000
X135000Y160000
X145000Y160000
X155000Y160000
X165000Y160000
X175000Y160000
X25000Y150000
X35000Y150000
X45000Y150000
X55000Y150000
X65000Y150000
X75000Y150000
X85000Y150000
X95000Y150000
X105000Y150000
X115000Y150000
X125000Y150000
X135000Y150000
X145000Y150000
X155000Y150000
X165000Y150000
X175000Y150000
X175000Y70000
X165000Y70000
X155000Y70000
X145000Y70000
X135000Y70000
X125000Y70000
X115000Y70000
X105000Y70000
X95000Y70000
X85000Y70000
X75000Y70000
X65000Y70000
T05
X210000Y50000
X34000Y50000
X210000Y170000
X34000Y170000
T06
X10000Y75000
X10000Y145000
X190000Y145000
X190000Y75000
M30
