G75*
%MOIN*%
%OFA0B0*%
%FSLAX25Y25*%
%IPPOS*%
%LPD*%
%AMOC8*
5,1,8,0,0,1.08239X$1,22.5*
%
%ADD10C,0.00000*%
%ADD11C,0.07087*%
%ADD12C,0.07400*%
%ADD13C,0.05543*%
%ADD14C,0.02775*%
%ADD15C,0.01000*%
%ADD16C,0.00800*%
%ADD17C,0.01600*%
%ADD18C,0.02400*%
D10*
X0001800Y0047550D02*
X0226800Y0047550D01*
X0226800Y0002550D01*
X0336800Y0002550D01*
X0336800Y0222550D01*
X0226800Y0222550D01*
X0226800Y0177550D01*
X0001800Y0177550D01*
X0001800Y0047550D01*
X0005501Y0077550D02*
X0005503Y0077708D01*
X0005509Y0077866D01*
X0005519Y0078024D01*
X0005533Y0078182D01*
X0005551Y0078339D01*
X0005572Y0078496D01*
X0005598Y0078652D01*
X0005628Y0078808D01*
X0005661Y0078963D01*
X0005699Y0079116D01*
X0005740Y0079269D01*
X0005785Y0079421D01*
X0005834Y0079572D01*
X0005887Y0079721D01*
X0005943Y0079869D01*
X0006003Y0080015D01*
X0006067Y0080160D01*
X0006135Y0080303D01*
X0006206Y0080445D01*
X0006280Y0080585D01*
X0006358Y0080722D01*
X0006440Y0080858D01*
X0006524Y0080992D01*
X0006613Y0081123D01*
X0006704Y0081252D01*
X0006799Y0081379D01*
X0006896Y0081504D01*
X0006997Y0081626D01*
X0007101Y0081745D01*
X0007208Y0081862D01*
X0007318Y0081976D01*
X0007431Y0082087D01*
X0007546Y0082196D01*
X0007664Y0082301D01*
X0007785Y0082403D01*
X0007908Y0082503D01*
X0008034Y0082599D01*
X0008162Y0082692D01*
X0008292Y0082782D01*
X0008425Y0082868D01*
X0008560Y0082952D01*
X0008696Y0083031D01*
X0008835Y0083108D01*
X0008976Y0083180D01*
X0009118Y0083250D01*
X0009262Y0083315D01*
X0009408Y0083377D01*
X0009555Y0083435D01*
X0009704Y0083490D01*
X0009854Y0083541D01*
X0010005Y0083588D01*
X0010157Y0083631D01*
X0010310Y0083670D01*
X0010465Y0083706D01*
X0010620Y0083737D01*
X0010776Y0083765D01*
X0010932Y0083789D01*
X0011089Y0083809D01*
X0011247Y0083825D01*
X0011404Y0083837D01*
X0011563Y0083845D01*
X0011721Y0083849D01*
X0011879Y0083849D01*
X0012037Y0083845D01*
X0012196Y0083837D01*
X0012353Y0083825D01*
X0012511Y0083809D01*
X0012668Y0083789D01*
X0012824Y0083765D01*
X0012980Y0083737D01*
X0013135Y0083706D01*
X0013290Y0083670D01*
X0013443Y0083631D01*
X0013595Y0083588D01*
X0013746Y0083541D01*
X0013896Y0083490D01*
X0014045Y0083435D01*
X0014192Y0083377D01*
X0014338Y0083315D01*
X0014482Y0083250D01*
X0014624Y0083180D01*
X0014765Y0083108D01*
X0014904Y0083031D01*
X0015040Y0082952D01*
X0015175Y0082868D01*
X0015308Y0082782D01*
X0015438Y0082692D01*
X0015566Y0082599D01*
X0015692Y0082503D01*
X0015815Y0082403D01*
X0015936Y0082301D01*
X0016054Y0082196D01*
X0016169Y0082087D01*
X0016282Y0081976D01*
X0016392Y0081862D01*
X0016499Y0081745D01*
X0016603Y0081626D01*
X0016704Y0081504D01*
X0016801Y0081379D01*
X0016896Y0081252D01*
X0016987Y0081123D01*
X0017076Y0080992D01*
X0017160Y0080858D01*
X0017242Y0080722D01*
X0017320Y0080585D01*
X0017394Y0080445D01*
X0017465Y0080303D01*
X0017533Y0080160D01*
X0017597Y0080015D01*
X0017657Y0079869D01*
X0017713Y0079721D01*
X0017766Y0079572D01*
X0017815Y0079421D01*
X0017860Y0079269D01*
X0017901Y0079116D01*
X0017939Y0078963D01*
X0017972Y0078808D01*
X0018002Y0078652D01*
X0018028Y0078496D01*
X0018049Y0078339D01*
X0018067Y0078182D01*
X0018081Y0078024D01*
X0018091Y0077866D01*
X0018097Y0077708D01*
X0018099Y0077550D01*
X0018097Y0077392D01*
X0018091Y0077234D01*
X0018081Y0077076D01*
X0018067Y0076918D01*
X0018049Y0076761D01*
X0018028Y0076604D01*
X0018002Y0076448D01*
X0017972Y0076292D01*
X0017939Y0076137D01*
X0017901Y0075984D01*
X0017860Y0075831D01*
X0017815Y0075679D01*
X0017766Y0075528D01*
X0017713Y0075379D01*
X0017657Y0075231D01*
X0017597Y0075085D01*
X0017533Y0074940D01*
X0017465Y0074797D01*
X0017394Y0074655D01*
X0017320Y0074515D01*
X0017242Y0074378D01*
X0017160Y0074242D01*
X0017076Y0074108D01*
X0016987Y0073977D01*
X0016896Y0073848D01*
X0016801Y0073721D01*
X0016704Y0073596D01*
X0016603Y0073474D01*
X0016499Y0073355D01*
X0016392Y0073238D01*
X0016282Y0073124D01*
X0016169Y0073013D01*
X0016054Y0072904D01*
X0015936Y0072799D01*
X0015815Y0072697D01*
X0015692Y0072597D01*
X0015566Y0072501D01*
X0015438Y0072408D01*
X0015308Y0072318D01*
X0015175Y0072232D01*
X0015040Y0072148D01*
X0014904Y0072069D01*
X0014765Y0071992D01*
X0014624Y0071920D01*
X0014482Y0071850D01*
X0014338Y0071785D01*
X0014192Y0071723D01*
X0014045Y0071665D01*
X0013896Y0071610D01*
X0013746Y0071559D01*
X0013595Y0071512D01*
X0013443Y0071469D01*
X0013290Y0071430D01*
X0013135Y0071394D01*
X0012980Y0071363D01*
X0012824Y0071335D01*
X0012668Y0071311D01*
X0012511Y0071291D01*
X0012353Y0071275D01*
X0012196Y0071263D01*
X0012037Y0071255D01*
X0011879Y0071251D01*
X0011721Y0071251D01*
X0011563Y0071255D01*
X0011404Y0071263D01*
X0011247Y0071275D01*
X0011089Y0071291D01*
X0010932Y0071311D01*
X0010776Y0071335D01*
X0010620Y0071363D01*
X0010465Y0071394D01*
X0010310Y0071430D01*
X0010157Y0071469D01*
X0010005Y0071512D01*
X0009854Y0071559D01*
X0009704Y0071610D01*
X0009555Y0071665D01*
X0009408Y0071723D01*
X0009262Y0071785D01*
X0009118Y0071850D01*
X0008976Y0071920D01*
X0008835Y0071992D01*
X0008696Y0072069D01*
X0008560Y0072148D01*
X0008425Y0072232D01*
X0008292Y0072318D01*
X0008162Y0072408D01*
X0008034Y0072501D01*
X0007908Y0072597D01*
X0007785Y0072697D01*
X0007664Y0072799D01*
X0007546Y0072904D01*
X0007431Y0073013D01*
X0007318Y0073124D01*
X0007208Y0073238D01*
X0007101Y0073355D01*
X0006997Y0073474D01*
X0006896Y0073596D01*
X0006799Y0073721D01*
X0006704Y0073848D01*
X0006613Y0073977D01*
X0006524Y0074108D01*
X0006440Y0074242D01*
X0006358Y0074378D01*
X0006280Y0074515D01*
X0006206Y0074655D01*
X0006135Y0074797D01*
X0006067Y0074940D01*
X0006003Y0075085D01*
X0005943Y0075231D01*
X0005887Y0075379D01*
X0005834Y0075528D01*
X0005785Y0075679D01*
X0005740Y0075831D01*
X0005699Y0075984D01*
X0005661Y0076137D01*
X0005628Y0076292D01*
X0005598Y0076448D01*
X0005572Y0076604D01*
X0005551Y0076761D01*
X0005533Y0076918D01*
X0005519Y0077076D01*
X0005509Y0077234D01*
X0005503Y0077392D01*
X0005501Y0077550D01*
X0005501Y0147550D02*
X0005503Y0147708D01*
X0005509Y0147866D01*
X0005519Y0148024D01*
X0005533Y0148182D01*
X0005551Y0148339D01*
X0005572Y0148496D01*
X0005598Y0148652D01*
X0005628Y0148808D01*
X0005661Y0148963D01*
X0005699Y0149116D01*
X0005740Y0149269D01*
X0005785Y0149421D01*
X0005834Y0149572D01*
X0005887Y0149721D01*
X0005943Y0149869D01*
X0006003Y0150015D01*
X0006067Y0150160D01*
X0006135Y0150303D01*
X0006206Y0150445D01*
X0006280Y0150585D01*
X0006358Y0150722D01*
X0006440Y0150858D01*
X0006524Y0150992D01*
X0006613Y0151123D01*
X0006704Y0151252D01*
X0006799Y0151379D01*
X0006896Y0151504D01*
X0006997Y0151626D01*
X0007101Y0151745D01*
X0007208Y0151862D01*
X0007318Y0151976D01*
X0007431Y0152087D01*
X0007546Y0152196D01*
X0007664Y0152301D01*
X0007785Y0152403D01*
X0007908Y0152503D01*
X0008034Y0152599D01*
X0008162Y0152692D01*
X0008292Y0152782D01*
X0008425Y0152868D01*
X0008560Y0152952D01*
X0008696Y0153031D01*
X0008835Y0153108D01*
X0008976Y0153180D01*
X0009118Y0153250D01*
X0009262Y0153315D01*
X0009408Y0153377D01*
X0009555Y0153435D01*
X0009704Y0153490D01*
X0009854Y0153541D01*
X0010005Y0153588D01*
X0010157Y0153631D01*
X0010310Y0153670D01*
X0010465Y0153706D01*
X0010620Y0153737D01*
X0010776Y0153765D01*
X0010932Y0153789D01*
X0011089Y0153809D01*
X0011247Y0153825D01*
X0011404Y0153837D01*
X0011563Y0153845D01*
X0011721Y0153849D01*
X0011879Y0153849D01*
X0012037Y0153845D01*
X0012196Y0153837D01*
X0012353Y0153825D01*
X0012511Y0153809D01*
X0012668Y0153789D01*
X0012824Y0153765D01*
X0012980Y0153737D01*
X0013135Y0153706D01*
X0013290Y0153670D01*
X0013443Y0153631D01*
X0013595Y0153588D01*
X0013746Y0153541D01*
X0013896Y0153490D01*
X0014045Y0153435D01*
X0014192Y0153377D01*
X0014338Y0153315D01*
X0014482Y0153250D01*
X0014624Y0153180D01*
X0014765Y0153108D01*
X0014904Y0153031D01*
X0015040Y0152952D01*
X0015175Y0152868D01*
X0015308Y0152782D01*
X0015438Y0152692D01*
X0015566Y0152599D01*
X0015692Y0152503D01*
X0015815Y0152403D01*
X0015936Y0152301D01*
X0016054Y0152196D01*
X0016169Y0152087D01*
X0016282Y0151976D01*
X0016392Y0151862D01*
X0016499Y0151745D01*
X0016603Y0151626D01*
X0016704Y0151504D01*
X0016801Y0151379D01*
X0016896Y0151252D01*
X0016987Y0151123D01*
X0017076Y0150992D01*
X0017160Y0150858D01*
X0017242Y0150722D01*
X0017320Y0150585D01*
X0017394Y0150445D01*
X0017465Y0150303D01*
X0017533Y0150160D01*
X0017597Y0150015D01*
X0017657Y0149869D01*
X0017713Y0149721D01*
X0017766Y0149572D01*
X0017815Y0149421D01*
X0017860Y0149269D01*
X0017901Y0149116D01*
X0017939Y0148963D01*
X0017972Y0148808D01*
X0018002Y0148652D01*
X0018028Y0148496D01*
X0018049Y0148339D01*
X0018067Y0148182D01*
X0018081Y0148024D01*
X0018091Y0147866D01*
X0018097Y0147708D01*
X0018099Y0147550D01*
X0018097Y0147392D01*
X0018091Y0147234D01*
X0018081Y0147076D01*
X0018067Y0146918D01*
X0018049Y0146761D01*
X0018028Y0146604D01*
X0018002Y0146448D01*
X0017972Y0146292D01*
X0017939Y0146137D01*
X0017901Y0145984D01*
X0017860Y0145831D01*
X0017815Y0145679D01*
X0017766Y0145528D01*
X0017713Y0145379D01*
X0017657Y0145231D01*
X0017597Y0145085D01*
X0017533Y0144940D01*
X0017465Y0144797D01*
X0017394Y0144655D01*
X0017320Y0144515D01*
X0017242Y0144378D01*
X0017160Y0144242D01*
X0017076Y0144108D01*
X0016987Y0143977D01*
X0016896Y0143848D01*
X0016801Y0143721D01*
X0016704Y0143596D01*
X0016603Y0143474D01*
X0016499Y0143355D01*
X0016392Y0143238D01*
X0016282Y0143124D01*
X0016169Y0143013D01*
X0016054Y0142904D01*
X0015936Y0142799D01*
X0015815Y0142697D01*
X0015692Y0142597D01*
X0015566Y0142501D01*
X0015438Y0142408D01*
X0015308Y0142318D01*
X0015175Y0142232D01*
X0015040Y0142148D01*
X0014904Y0142069D01*
X0014765Y0141992D01*
X0014624Y0141920D01*
X0014482Y0141850D01*
X0014338Y0141785D01*
X0014192Y0141723D01*
X0014045Y0141665D01*
X0013896Y0141610D01*
X0013746Y0141559D01*
X0013595Y0141512D01*
X0013443Y0141469D01*
X0013290Y0141430D01*
X0013135Y0141394D01*
X0012980Y0141363D01*
X0012824Y0141335D01*
X0012668Y0141311D01*
X0012511Y0141291D01*
X0012353Y0141275D01*
X0012196Y0141263D01*
X0012037Y0141255D01*
X0011879Y0141251D01*
X0011721Y0141251D01*
X0011563Y0141255D01*
X0011404Y0141263D01*
X0011247Y0141275D01*
X0011089Y0141291D01*
X0010932Y0141311D01*
X0010776Y0141335D01*
X0010620Y0141363D01*
X0010465Y0141394D01*
X0010310Y0141430D01*
X0010157Y0141469D01*
X0010005Y0141512D01*
X0009854Y0141559D01*
X0009704Y0141610D01*
X0009555Y0141665D01*
X0009408Y0141723D01*
X0009262Y0141785D01*
X0009118Y0141850D01*
X0008976Y0141920D01*
X0008835Y0141992D01*
X0008696Y0142069D01*
X0008560Y0142148D01*
X0008425Y0142232D01*
X0008292Y0142318D01*
X0008162Y0142408D01*
X0008034Y0142501D01*
X0007908Y0142597D01*
X0007785Y0142697D01*
X0007664Y0142799D01*
X0007546Y0142904D01*
X0007431Y0143013D01*
X0007318Y0143124D01*
X0007208Y0143238D01*
X0007101Y0143355D01*
X0006997Y0143474D01*
X0006896Y0143596D01*
X0006799Y0143721D01*
X0006704Y0143848D01*
X0006613Y0143977D01*
X0006524Y0144108D01*
X0006440Y0144242D01*
X0006358Y0144378D01*
X0006280Y0144515D01*
X0006206Y0144655D01*
X0006135Y0144797D01*
X0006067Y0144940D01*
X0006003Y0145085D01*
X0005943Y0145231D01*
X0005887Y0145379D01*
X0005834Y0145528D01*
X0005785Y0145679D01*
X0005740Y0145831D01*
X0005699Y0145984D01*
X0005661Y0146137D01*
X0005628Y0146292D01*
X0005598Y0146448D01*
X0005572Y0146604D01*
X0005551Y0146761D01*
X0005533Y0146918D01*
X0005519Y0147076D01*
X0005509Y0147234D01*
X0005503Y0147392D01*
X0005501Y0147550D01*
X0185501Y0147550D02*
X0185503Y0147708D01*
X0185509Y0147866D01*
X0185519Y0148024D01*
X0185533Y0148182D01*
X0185551Y0148339D01*
X0185572Y0148496D01*
X0185598Y0148652D01*
X0185628Y0148808D01*
X0185661Y0148963D01*
X0185699Y0149116D01*
X0185740Y0149269D01*
X0185785Y0149421D01*
X0185834Y0149572D01*
X0185887Y0149721D01*
X0185943Y0149869D01*
X0186003Y0150015D01*
X0186067Y0150160D01*
X0186135Y0150303D01*
X0186206Y0150445D01*
X0186280Y0150585D01*
X0186358Y0150722D01*
X0186440Y0150858D01*
X0186524Y0150992D01*
X0186613Y0151123D01*
X0186704Y0151252D01*
X0186799Y0151379D01*
X0186896Y0151504D01*
X0186997Y0151626D01*
X0187101Y0151745D01*
X0187208Y0151862D01*
X0187318Y0151976D01*
X0187431Y0152087D01*
X0187546Y0152196D01*
X0187664Y0152301D01*
X0187785Y0152403D01*
X0187908Y0152503D01*
X0188034Y0152599D01*
X0188162Y0152692D01*
X0188292Y0152782D01*
X0188425Y0152868D01*
X0188560Y0152952D01*
X0188696Y0153031D01*
X0188835Y0153108D01*
X0188976Y0153180D01*
X0189118Y0153250D01*
X0189262Y0153315D01*
X0189408Y0153377D01*
X0189555Y0153435D01*
X0189704Y0153490D01*
X0189854Y0153541D01*
X0190005Y0153588D01*
X0190157Y0153631D01*
X0190310Y0153670D01*
X0190465Y0153706D01*
X0190620Y0153737D01*
X0190776Y0153765D01*
X0190932Y0153789D01*
X0191089Y0153809D01*
X0191247Y0153825D01*
X0191404Y0153837D01*
X0191563Y0153845D01*
X0191721Y0153849D01*
X0191879Y0153849D01*
X0192037Y0153845D01*
X0192196Y0153837D01*
X0192353Y0153825D01*
X0192511Y0153809D01*
X0192668Y0153789D01*
X0192824Y0153765D01*
X0192980Y0153737D01*
X0193135Y0153706D01*
X0193290Y0153670D01*
X0193443Y0153631D01*
X0193595Y0153588D01*
X0193746Y0153541D01*
X0193896Y0153490D01*
X0194045Y0153435D01*
X0194192Y0153377D01*
X0194338Y0153315D01*
X0194482Y0153250D01*
X0194624Y0153180D01*
X0194765Y0153108D01*
X0194904Y0153031D01*
X0195040Y0152952D01*
X0195175Y0152868D01*
X0195308Y0152782D01*
X0195438Y0152692D01*
X0195566Y0152599D01*
X0195692Y0152503D01*
X0195815Y0152403D01*
X0195936Y0152301D01*
X0196054Y0152196D01*
X0196169Y0152087D01*
X0196282Y0151976D01*
X0196392Y0151862D01*
X0196499Y0151745D01*
X0196603Y0151626D01*
X0196704Y0151504D01*
X0196801Y0151379D01*
X0196896Y0151252D01*
X0196987Y0151123D01*
X0197076Y0150992D01*
X0197160Y0150858D01*
X0197242Y0150722D01*
X0197320Y0150585D01*
X0197394Y0150445D01*
X0197465Y0150303D01*
X0197533Y0150160D01*
X0197597Y0150015D01*
X0197657Y0149869D01*
X0197713Y0149721D01*
X0197766Y0149572D01*
X0197815Y0149421D01*
X0197860Y0149269D01*
X0197901Y0149116D01*
X0197939Y0148963D01*
X0197972Y0148808D01*
X0198002Y0148652D01*
X0198028Y0148496D01*
X0198049Y0148339D01*
X0198067Y0148182D01*
X0198081Y0148024D01*
X0198091Y0147866D01*
X0198097Y0147708D01*
X0198099Y0147550D01*
X0198097Y0147392D01*
X0198091Y0147234D01*
X0198081Y0147076D01*
X0198067Y0146918D01*
X0198049Y0146761D01*
X0198028Y0146604D01*
X0198002Y0146448D01*
X0197972Y0146292D01*
X0197939Y0146137D01*
X0197901Y0145984D01*
X0197860Y0145831D01*
X0197815Y0145679D01*
X0197766Y0145528D01*
X0197713Y0145379D01*
X0197657Y0145231D01*
X0197597Y0145085D01*
X0197533Y0144940D01*
X0197465Y0144797D01*
X0197394Y0144655D01*
X0197320Y0144515D01*
X0197242Y0144378D01*
X0197160Y0144242D01*
X0197076Y0144108D01*
X0196987Y0143977D01*
X0196896Y0143848D01*
X0196801Y0143721D01*
X0196704Y0143596D01*
X0196603Y0143474D01*
X0196499Y0143355D01*
X0196392Y0143238D01*
X0196282Y0143124D01*
X0196169Y0143013D01*
X0196054Y0142904D01*
X0195936Y0142799D01*
X0195815Y0142697D01*
X0195692Y0142597D01*
X0195566Y0142501D01*
X0195438Y0142408D01*
X0195308Y0142318D01*
X0195175Y0142232D01*
X0195040Y0142148D01*
X0194904Y0142069D01*
X0194765Y0141992D01*
X0194624Y0141920D01*
X0194482Y0141850D01*
X0194338Y0141785D01*
X0194192Y0141723D01*
X0194045Y0141665D01*
X0193896Y0141610D01*
X0193746Y0141559D01*
X0193595Y0141512D01*
X0193443Y0141469D01*
X0193290Y0141430D01*
X0193135Y0141394D01*
X0192980Y0141363D01*
X0192824Y0141335D01*
X0192668Y0141311D01*
X0192511Y0141291D01*
X0192353Y0141275D01*
X0192196Y0141263D01*
X0192037Y0141255D01*
X0191879Y0141251D01*
X0191721Y0141251D01*
X0191563Y0141255D01*
X0191404Y0141263D01*
X0191247Y0141275D01*
X0191089Y0141291D01*
X0190932Y0141311D01*
X0190776Y0141335D01*
X0190620Y0141363D01*
X0190465Y0141394D01*
X0190310Y0141430D01*
X0190157Y0141469D01*
X0190005Y0141512D01*
X0189854Y0141559D01*
X0189704Y0141610D01*
X0189555Y0141665D01*
X0189408Y0141723D01*
X0189262Y0141785D01*
X0189118Y0141850D01*
X0188976Y0141920D01*
X0188835Y0141992D01*
X0188696Y0142069D01*
X0188560Y0142148D01*
X0188425Y0142232D01*
X0188292Y0142318D01*
X0188162Y0142408D01*
X0188034Y0142501D01*
X0187908Y0142597D01*
X0187785Y0142697D01*
X0187664Y0142799D01*
X0187546Y0142904D01*
X0187431Y0143013D01*
X0187318Y0143124D01*
X0187208Y0143238D01*
X0187101Y0143355D01*
X0186997Y0143474D01*
X0186896Y0143596D01*
X0186799Y0143721D01*
X0186704Y0143848D01*
X0186613Y0143977D01*
X0186524Y0144108D01*
X0186440Y0144242D01*
X0186358Y0144378D01*
X0186280Y0144515D01*
X0186206Y0144655D01*
X0186135Y0144797D01*
X0186067Y0144940D01*
X0186003Y0145085D01*
X0185943Y0145231D01*
X0185887Y0145379D01*
X0185834Y0145528D01*
X0185785Y0145679D01*
X0185740Y0145831D01*
X0185699Y0145984D01*
X0185661Y0146137D01*
X0185628Y0146292D01*
X0185598Y0146448D01*
X0185572Y0146604D01*
X0185551Y0146761D01*
X0185533Y0146918D01*
X0185519Y0147076D01*
X0185509Y0147234D01*
X0185503Y0147392D01*
X0185501Y0147550D01*
X0185501Y0077550D02*
X0185503Y0077708D01*
X0185509Y0077866D01*
X0185519Y0078024D01*
X0185533Y0078182D01*
X0185551Y0078339D01*
X0185572Y0078496D01*
X0185598Y0078652D01*
X0185628Y0078808D01*
X0185661Y0078963D01*
X0185699Y0079116D01*
X0185740Y0079269D01*
X0185785Y0079421D01*
X0185834Y0079572D01*
X0185887Y0079721D01*
X0185943Y0079869D01*
X0186003Y0080015D01*
X0186067Y0080160D01*
X0186135Y0080303D01*
X0186206Y0080445D01*
X0186280Y0080585D01*
X0186358Y0080722D01*
X0186440Y0080858D01*
X0186524Y0080992D01*
X0186613Y0081123D01*
X0186704Y0081252D01*
X0186799Y0081379D01*
X0186896Y0081504D01*
X0186997Y0081626D01*
X0187101Y0081745D01*
X0187208Y0081862D01*
X0187318Y0081976D01*
X0187431Y0082087D01*
X0187546Y0082196D01*
X0187664Y0082301D01*
X0187785Y0082403D01*
X0187908Y0082503D01*
X0188034Y0082599D01*
X0188162Y0082692D01*
X0188292Y0082782D01*
X0188425Y0082868D01*
X0188560Y0082952D01*
X0188696Y0083031D01*
X0188835Y0083108D01*
X0188976Y0083180D01*
X0189118Y0083250D01*
X0189262Y0083315D01*
X0189408Y0083377D01*
X0189555Y0083435D01*
X0189704Y0083490D01*
X0189854Y0083541D01*
X0190005Y0083588D01*
X0190157Y0083631D01*
X0190310Y0083670D01*
X0190465Y0083706D01*
X0190620Y0083737D01*
X0190776Y0083765D01*
X0190932Y0083789D01*
X0191089Y0083809D01*
X0191247Y0083825D01*
X0191404Y0083837D01*
X0191563Y0083845D01*
X0191721Y0083849D01*
X0191879Y0083849D01*
X0192037Y0083845D01*
X0192196Y0083837D01*
X0192353Y0083825D01*
X0192511Y0083809D01*
X0192668Y0083789D01*
X0192824Y0083765D01*
X0192980Y0083737D01*
X0193135Y0083706D01*
X0193290Y0083670D01*
X0193443Y0083631D01*
X0193595Y0083588D01*
X0193746Y0083541D01*
X0193896Y0083490D01*
X0194045Y0083435D01*
X0194192Y0083377D01*
X0194338Y0083315D01*
X0194482Y0083250D01*
X0194624Y0083180D01*
X0194765Y0083108D01*
X0194904Y0083031D01*
X0195040Y0082952D01*
X0195175Y0082868D01*
X0195308Y0082782D01*
X0195438Y0082692D01*
X0195566Y0082599D01*
X0195692Y0082503D01*
X0195815Y0082403D01*
X0195936Y0082301D01*
X0196054Y0082196D01*
X0196169Y0082087D01*
X0196282Y0081976D01*
X0196392Y0081862D01*
X0196499Y0081745D01*
X0196603Y0081626D01*
X0196704Y0081504D01*
X0196801Y0081379D01*
X0196896Y0081252D01*
X0196987Y0081123D01*
X0197076Y0080992D01*
X0197160Y0080858D01*
X0197242Y0080722D01*
X0197320Y0080585D01*
X0197394Y0080445D01*
X0197465Y0080303D01*
X0197533Y0080160D01*
X0197597Y0080015D01*
X0197657Y0079869D01*
X0197713Y0079721D01*
X0197766Y0079572D01*
X0197815Y0079421D01*
X0197860Y0079269D01*
X0197901Y0079116D01*
X0197939Y0078963D01*
X0197972Y0078808D01*
X0198002Y0078652D01*
X0198028Y0078496D01*
X0198049Y0078339D01*
X0198067Y0078182D01*
X0198081Y0078024D01*
X0198091Y0077866D01*
X0198097Y0077708D01*
X0198099Y0077550D01*
X0198097Y0077392D01*
X0198091Y0077234D01*
X0198081Y0077076D01*
X0198067Y0076918D01*
X0198049Y0076761D01*
X0198028Y0076604D01*
X0198002Y0076448D01*
X0197972Y0076292D01*
X0197939Y0076137D01*
X0197901Y0075984D01*
X0197860Y0075831D01*
X0197815Y0075679D01*
X0197766Y0075528D01*
X0197713Y0075379D01*
X0197657Y0075231D01*
X0197597Y0075085D01*
X0197533Y0074940D01*
X0197465Y0074797D01*
X0197394Y0074655D01*
X0197320Y0074515D01*
X0197242Y0074378D01*
X0197160Y0074242D01*
X0197076Y0074108D01*
X0196987Y0073977D01*
X0196896Y0073848D01*
X0196801Y0073721D01*
X0196704Y0073596D01*
X0196603Y0073474D01*
X0196499Y0073355D01*
X0196392Y0073238D01*
X0196282Y0073124D01*
X0196169Y0073013D01*
X0196054Y0072904D01*
X0195936Y0072799D01*
X0195815Y0072697D01*
X0195692Y0072597D01*
X0195566Y0072501D01*
X0195438Y0072408D01*
X0195308Y0072318D01*
X0195175Y0072232D01*
X0195040Y0072148D01*
X0194904Y0072069D01*
X0194765Y0071992D01*
X0194624Y0071920D01*
X0194482Y0071850D01*
X0194338Y0071785D01*
X0194192Y0071723D01*
X0194045Y0071665D01*
X0193896Y0071610D01*
X0193746Y0071559D01*
X0193595Y0071512D01*
X0193443Y0071469D01*
X0193290Y0071430D01*
X0193135Y0071394D01*
X0192980Y0071363D01*
X0192824Y0071335D01*
X0192668Y0071311D01*
X0192511Y0071291D01*
X0192353Y0071275D01*
X0192196Y0071263D01*
X0192037Y0071255D01*
X0191879Y0071251D01*
X0191721Y0071251D01*
X0191563Y0071255D01*
X0191404Y0071263D01*
X0191247Y0071275D01*
X0191089Y0071291D01*
X0190932Y0071311D01*
X0190776Y0071335D01*
X0190620Y0071363D01*
X0190465Y0071394D01*
X0190310Y0071430D01*
X0190157Y0071469D01*
X0190005Y0071512D01*
X0189854Y0071559D01*
X0189704Y0071610D01*
X0189555Y0071665D01*
X0189408Y0071723D01*
X0189262Y0071785D01*
X0189118Y0071850D01*
X0188976Y0071920D01*
X0188835Y0071992D01*
X0188696Y0072069D01*
X0188560Y0072148D01*
X0188425Y0072232D01*
X0188292Y0072318D01*
X0188162Y0072408D01*
X0188034Y0072501D01*
X0187908Y0072597D01*
X0187785Y0072697D01*
X0187664Y0072799D01*
X0187546Y0072904D01*
X0187431Y0073013D01*
X0187318Y0073124D01*
X0187208Y0073238D01*
X0187101Y0073355D01*
X0186997Y0073474D01*
X0186896Y0073596D01*
X0186799Y0073721D01*
X0186704Y0073848D01*
X0186613Y0073977D01*
X0186524Y0074108D01*
X0186440Y0074242D01*
X0186358Y0074378D01*
X0186280Y0074515D01*
X0186206Y0074655D01*
X0186135Y0074797D01*
X0186067Y0074940D01*
X0186003Y0075085D01*
X0185943Y0075231D01*
X0185887Y0075379D01*
X0185834Y0075528D01*
X0185785Y0075679D01*
X0185740Y0075831D01*
X0185699Y0075984D01*
X0185661Y0076137D01*
X0185628Y0076292D01*
X0185598Y0076448D01*
X0185572Y0076604D01*
X0185551Y0076761D01*
X0185533Y0076918D01*
X0185519Y0077076D01*
X0185509Y0077234D01*
X0185503Y0077392D01*
X0185501Y0077550D01*
X0320911Y0167550D02*
X0320913Y0167627D01*
X0320919Y0167703D01*
X0320929Y0167779D01*
X0320943Y0167854D01*
X0320960Y0167929D01*
X0320982Y0168002D01*
X0321007Y0168075D01*
X0321037Y0168146D01*
X0321069Y0168215D01*
X0321106Y0168282D01*
X0321145Y0168348D01*
X0321188Y0168411D01*
X0321235Y0168472D01*
X0321284Y0168531D01*
X0321337Y0168587D01*
X0321392Y0168640D01*
X0321450Y0168690D01*
X0321510Y0168737D01*
X0321573Y0168781D01*
X0321638Y0168822D01*
X0321705Y0168859D01*
X0321774Y0168893D01*
X0321844Y0168923D01*
X0321916Y0168949D01*
X0321990Y0168971D01*
X0322064Y0168990D01*
X0322139Y0169005D01*
X0322215Y0169016D01*
X0322291Y0169023D01*
X0322368Y0169026D01*
X0322444Y0169025D01*
X0322521Y0169020D01*
X0322597Y0169011D01*
X0322673Y0168998D01*
X0322747Y0168981D01*
X0322821Y0168961D01*
X0322894Y0168936D01*
X0322965Y0168908D01*
X0323035Y0168876D01*
X0323103Y0168841D01*
X0323169Y0168802D01*
X0323233Y0168760D01*
X0323294Y0168714D01*
X0323354Y0168665D01*
X0323410Y0168614D01*
X0323464Y0168559D01*
X0323515Y0168502D01*
X0323563Y0168442D01*
X0323608Y0168380D01*
X0323649Y0168315D01*
X0323687Y0168249D01*
X0323722Y0168181D01*
X0323752Y0168110D01*
X0323780Y0168039D01*
X0323803Y0167966D01*
X0323823Y0167892D01*
X0323839Y0167817D01*
X0323851Y0167741D01*
X0323859Y0167665D01*
X0323863Y0167588D01*
X0323863Y0167512D01*
X0323859Y0167435D01*
X0323851Y0167359D01*
X0323839Y0167283D01*
X0323823Y0167208D01*
X0323803Y0167134D01*
X0323780Y0167061D01*
X0323752Y0166990D01*
X0323722Y0166919D01*
X0323687Y0166851D01*
X0323649Y0166785D01*
X0323608Y0166720D01*
X0323563Y0166658D01*
X0323515Y0166598D01*
X0323464Y0166541D01*
X0323410Y0166486D01*
X0323354Y0166435D01*
X0323294Y0166386D01*
X0323233Y0166340D01*
X0323169Y0166298D01*
X0323103Y0166259D01*
X0323035Y0166224D01*
X0322965Y0166192D01*
X0322894Y0166164D01*
X0322821Y0166139D01*
X0322747Y0166119D01*
X0322673Y0166102D01*
X0322597Y0166089D01*
X0322521Y0166080D01*
X0322444Y0166075D01*
X0322368Y0166074D01*
X0322291Y0166077D01*
X0322215Y0166084D01*
X0322139Y0166095D01*
X0322064Y0166110D01*
X0321990Y0166129D01*
X0321916Y0166151D01*
X0321844Y0166177D01*
X0321774Y0166207D01*
X0321705Y0166241D01*
X0321638Y0166278D01*
X0321573Y0166319D01*
X0321510Y0166363D01*
X0321450Y0166410D01*
X0321392Y0166460D01*
X0321337Y0166513D01*
X0321284Y0166569D01*
X0321235Y0166628D01*
X0321188Y0166689D01*
X0321145Y0166752D01*
X0321106Y0166818D01*
X0321069Y0166885D01*
X0321037Y0166954D01*
X0321007Y0167025D01*
X0320982Y0167098D01*
X0320960Y0167171D01*
X0320943Y0167246D01*
X0320929Y0167321D01*
X0320919Y0167397D01*
X0320913Y0167473D01*
X0320911Y0167550D01*
X0331737Y0167550D02*
X0331739Y0167627D01*
X0331745Y0167703D01*
X0331755Y0167779D01*
X0331769Y0167854D01*
X0331786Y0167929D01*
X0331808Y0168002D01*
X0331833Y0168075D01*
X0331863Y0168146D01*
X0331895Y0168215D01*
X0331932Y0168282D01*
X0331971Y0168348D01*
X0332014Y0168411D01*
X0332061Y0168472D01*
X0332110Y0168531D01*
X0332163Y0168587D01*
X0332218Y0168640D01*
X0332276Y0168690D01*
X0332336Y0168737D01*
X0332399Y0168781D01*
X0332464Y0168822D01*
X0332531Y0168859D01*
X0332600Y0168893D01*
X0332670Y0168923D01*
X0332742Y0168949D01*
X0332816Y0168971D01*
X0332890Y0168990D01*
X0332965Y0169005D01*
X0333041Y0169016D01*
X0333117Y0169023D01*
X0333194Y0169026D01*
X0333270Y0169025D01*
X0333347Y0169020D01*
X0333423Y0169011D01*
X0333499Y0168998D01*
X0333573Y0168981D01*
X0333647Y0168961D01*
X0333720Y0168936D01*
X0333791Y0168908D01*
X0333861Y0168876D01*
X0333929Y0168841D01*
X0333995Y0168802D01*
X0334059Y0168760D01*
X0334120Y0168714D01*
X0334180Y0168665D01*
X0334236Y0168614D01*
X0334290Y0168559D01*
X0334341Y0168502D01*
X0334389Y0168442D01*
X0334434Y0168380D01*
X0334475Y0168315D01*
X0334513Y0168249D01*
X0334548Y0168181D01*
X0334578Y0168110D01*
X0334606Y0168039D01*
X0334629Y0167966D01*
X0334649Y0167892D01*
X0334665Y0167817D01*
X0334677Y0167741D01*
X0334685Y0167665D01*
X0334689Y0167588D01*
X0334689Y0167512D01*
X0334685Y0167435D01*
X0334677Y0167359D01*
X0334665Y0167283D01*
X0334649Y0167208D01*
X0334629Y0167134D01*
X0334606Y0167061D01*
X0334578Y0166990D01*
X0334548Y0166919D01*
X0334513Y0166851D01*
X0334475Y0166785D01*
X0334434Y0166720D01*
X0334389Y0166658D01*
X0334341Y0166598D01*
X0334290Y0166541D01*
X0334236Y0166486D01*
X0334180Y0166435D01*
X0334120Y0166386D01*
X0334059Y0166340D01*
X0333995Y0166298D01*
X0333929Y0166259D01*
X0333861Y0166224D01*
X0333791Y0166192D01*
X0333720Y0166164D01*
X0333647Y0166139D01*
X0333573Y0166119D01*
X0333499Y0166102D01*
X0333423Y0166089D01*
X0333347Y0166080D01*
X0333270Y0166075D01*
X0333194Y0166074D01*
X0333117Y0166077D01*
X0333041Y0166084D01*
X0332965Y0166095D01*
X0332890Y0166110D01*
X0332816Y0166129D01*
X0332742Y0166151D01*
X0332670Y0166177D01*
X0332600Y0166207D01*
X0332531Y0166241D01*
X0332464Y0166278D01*
X0332399Y0166319D01*
X0332336Y0166363D01*
X0332276Y0166410D01*
X0332218Y0166460D01*
X0332163Y0166513D01*
X0332110Y0166569D01*
X0332061Y0166628D01*
X0332014Y0166689D01*
X0331971Y0166752D01*
X0331932Y0166818D01*
X0331895Y0166885D01*
X0331863Y0166954D01*
X0331833Y0167025D01*
X0331808Y0167098D01*
X0331786Y0167171D01*
X0331769Y0167246D01*
X0331755Y0167321D01*
X0331745Y0167397D01*
X0331739Y0167473D01*
X0331737Y0167550D01*
D11*
X0215343Y0172550D02*
X0208257Y0172550D01*
X0039343Y0172550D02*
X0032257Y0172550D01*
X0032257Y0052550D02*
X0039343Y0052550D01*
X0208257Y0052550D02*
X0215343Y0052550D01*
D12*
X0176800Y0062550D03*
X0166800Y0062550D03*
X0156800Y0062550D03*
X0146800Y0062550D03*
X0136800Y0062550D03*
X0126800Y0062550D03*
X0116800Y0062550D03*
X0106800Y0062550D03*
X0096800Y0062550D03*
X0086800Y0062550D03*
X0076800Y0062550D03*
X0066800Y0062550D03*
X0066800Y0072550D03*
X0076800Y0072550D03*
X0086800Y0072550D03*
X0096800Y0072550D03*
X0106800Y0072550D03*
X0116800Y0072550D03*
X0126800Y0072550D03*
X0136800Y0072550D03*
X0146800Y0072550D03*
X0156800Y0072550D03*
X0166800Y0072550D03*
X0176800Y0072550D03*
X0176800Y0152550D03*
X0166800Y0152550D03*
X0156800Y0152550D03*
X0146800Y0152550D03*
X0136800Y0152550D03*
X0126800Y0152550D03*
X0116800Y0152550D03*
X0106800Y0152550D03*
X0096800Y0152550D03*
X0086800Y0152550D03*
X0076800Y0152550D03*
X0066800Y0152550D03*
X0056800Y0152550D03*
X0046800Y0152550D03*
X0036800Y0152550D03*
X0026800Y0152550D03*
X0026800Y0162550D03*
X0036800Y0162550D03*
X0046800Y0162550D03*
X0056800Y0162550D03*
X0066800Y0162550D03*
X0076800Y0162550D03*
X0086800Y0162550D03*
X0096800Y0162550D03*
X0106800Y0162550D03*
X0116800Y0162550D03*
X0126800Y0162550D03*
X0136800Y0162550D03*
X0146800Y0162550D03*
X0156800Y0162550D03*
X0166800Y0162550D03*
X0176800Y0162550D03*
D13*
X0297863Y0117550D03*
X0305737Y0117550D03*
D14*
X0314300Y0117550D03*
X0311300Y0109050D03*
X0301800Y0102050D03*
X0305800Y0097550D03*
X0310300Y0094050D03*
X0313300Y0084550D03*
X0313300Y0076550D03*
X0319300Y0072550D03*
X0327300Y0088550D03*
X0296800Y0082550D03*
X0282300Y0084550D03*
X0282300Y0090550D03*
X0277800Y0097050D03*
X0265800Y0092550D03*
X0284300Y0105550D03*
X0284300Y0111550D03*
X0282300Y0115550D03*
X0276800Y0117550D03*
X0286800Y0129050D03*
X0283800Y0131550D03*
X0280300Y0133550D03*
X0276300Y0135050D03*
X0275800Y0139550D03*
X0267800Y0136550D03*
X0261800Y0136550D03*
X0255800Y0136550D03*
X0247800Y0130050D03*
X0248800Y0124050D03*
X0231300Y0135050D03*
X0228300Y0130050D03*
X0216800Y0128050D03*
X0207300Y0124050D03*
X0203300Y0121050D03*
X0207300Y0118050D03*
X0202800Y0115050D03*
X0207300Y0112050D03*
X0202800Y0109050D03*
X0207300Y0106050D03*
X0202800Y0103050D03*
X0207300Y0100050D03*
X0202800Y0097050D03*
X0207300Y0094050D03*
X0218300Y0090050D03*
X0225300Y0090050D03*
X0229300Y0079550D03*
X0233300Y0069050D03*
X0242800Y0069050D03*
X0243300Y0075550D03*
X0250800Y0075550D03*
X0259800Y0073550D03*
X0253800Y0069050D03*
X0253800Y0061550D03*
X0250800Y0058550D03*
X0248800Y0054050D03*
X0257800Y0054050D03*
X0268800Y0047050D03*
X0268800Y0037550D03*
X0284800Y0031550D03*
X0296800Y0032550D03*
X0276800Y0022050D03*
X0271800Y0017050D03*
X0265300Y0017050D03*
X0267300Y0009550D03*
X0271800Y0009050D03*
X0260300Y0009550D03*
X0255800Y0019050D03*
X0244800Y0021550D03*
X0253800Y0037050D03*
X0280300Y0054550D03*
X0284800Y0064550D03*
X0288300Y0068550D03*
X0294300Y0061050D03*
X0274300Y0068550D03*
X0271300Y0078050D03*
X0294800Y0098050D03*
X0289800Y0126550D03*
X0295800Y0128550D03*
X0303300Y0132050D03*
X0320300Y0132050D03*
X0325300Y0136050D03*
X0329800Y0136050D03*
X0326300Y0145050D03*
X0328300Y0148550D03*
X0331300Y0151550D03*
X0316800Y0147550D03*
X0277800Y0170050D03*
X0273300Y0170050D03*
X0263800Y0166550D03*
X0259300Y0166550D03*
X0254800Y0166550D03*
X0247800Y0167550D03*
X0247800Y0172550D03*
X0247780Y0177570D03*
X0247780Y0182570D03*
X0235300Y0182550D03*
X0230300Y0189050D03*
X0223300Y0172550D03*
X0248300Y0152550D03*
X0248300Y0147550D03*
X0253300Y0149050D03*
X0248300Y0142550D03*
X0235300Y0144050D03*
X0228300Y0150550D03*
X0207300Y0132550D03*
X0203300Y0127050D03*
X0216800Y0118050D03*
X0240300Y0090050D03*
X0203300Y0083050D03*
X0176800Y0088550D03*
X0166800Y0088550D03*
X0156800Y0088550D03*
X0146800Y0088550D03*
X0151800Y0103050D03*
X0146800Y0109050D03*
X0136800Y0109050D03*
X0131800Y0109050D03*
X0121800Y0109050D03*
X0116800Y0112550D03*
X0111800Y0112550D03*
X0106800Y0112550D03*
X0096800Y0121050D03*
X0091800Y0126550D03*
X0091800Y0135550D03*
X0096800Y0135550D03*
X0106800Y0138050D03*
X0111800Y0141050D03*
X0121800Y0141050D03*
X0131800Y0141050D03*
X0136800Y0141050D03*
X0151800Y0141050D03*
X0156800Y0127050D03*
X0176800Y0112050D03*
X0166800Y0109050D03*
X0126800Y0097550D03*
X0126800Y0121050D03*
X0116800Y0121050D03*
X0101800Y0167550D03*
X0081800Y0170550D03*
X0192300Y0162550D03*
X0235300Y0205550D03*
X0248300Y0217550D03*
X0271300Y0187050D03*
X0282800Y0188050D03*
X0290800Y0188050D03*
X0303300Y0183550D03*
X0322300Y0183550D03*
X0326300Y0197050D03*
X0331800Y0197050D03*
X0326320Y0208050D03*
X0331800Y0210050D03*
X0305300Y0217550D03*
X0264800Y0156550D03*
X0261800Y0149050D03*
X0194800Y0062550D03*
X0230300Y0005050D03*
X0320300Y0023050D03*
X0325300Y0014550D03*
X0320300Y0042050D03*
X0327800Y0051050D03*
X0331300Y0054550D03*
X0331300Y0059050D03*
X0317800Y0052550D03*
D15*
X0324913Y0051624D02*
X0324913Y0050476D01*
X0325352Y0049414D01*
X0326164Y0048602D01*
X0327226Y0048162D01*
X0328374Y0048162D01*
X0329436Y0048602D01*
X0330248Y0049414D01*
X0330687Y0050476D01*
X0330687Y0051624D01*
X0330661Y0051689D01*
X0330726Y0051662D01*
X0331874Y0051662D01*
X0332936Y0052102D01*
X0333748Y0052914D01*
X0334187Y0053976D01*
X0334187Y0054750D01*
X0335087Y0055650D01*
X0335300Y0055863D01*
X0335300Y0004050D01*
X0318618Y0004050D01*
X0326483Y0011915D01*
X0326936Y0012102D01*
X0327748Y0012914D01*
X0328187Y0013976D01*
X0328187Y0015124D01*
X0327748Y0016186D01*
X0326936Y0016998D01*
X0325874Y0017437D01*
X0324726Y0017437D01*
X0323664Y0016998D01*
X0322852Y0016186D01*
X0322665Y0015733D01*
X0314682Y0007750D01*
X0274387Y0007750D01*
X0274687Y0008476D01*
X0274687Y0009624D01*
X0274248Y0010686D01*
X0273700Y0011234D01*
X0273700Y0014866D01*
X0274248Y0015414D01*
X0274687Y0016476D01*
X0274687Y0017624D01*
X0274248Y0018686D01*
X0273436Y0019498D01*
X0272374Y0019937D01*
X0271226Y0019937D01*
X0270164Y0019498D01*
X0269352Y0018686D01*
X0268913Y0017624D01*
X0268913Y0016476D01*
X0269352Y0015414D01*
X0269900Y0014866D01*
X0269900Y0011234D01*
X0269778Y0011112D01*
X0269748Y0011186D01*
X0268936Y0011998D01*
X0267874Y0012437D01*
X0266726Y0012437D01*
X0265664Y0011998D01*
X0265116Y0011450D01*
X0262484Y0011450D01*
X0261936Y0011998D01*
X0260874Y0012437D01*
X0259726Y0012437D01*
X0258664Y0011998D01*
X0257852Y0011186D01*
X0257412Y0010124D01*
X0257412Y0008976D01*
X0257852Y0007914D01*
X0258016Y0007750D01*
X0231327Y0007750D01*
X0230874Y0007937D01*
X0229726Y0007937D01*
X0228664Y0007498D01*
X0228300Y0007134D01*
X0228300Y0048171D01*
X0227421Y0049050D01*
X0218976Y0049050D01*
X0219619Y0049693D01*
X0220387Y0051547D01*
X0220387Y0053553D01*
X0219619Y0055407D01*
X0218776Y0056250D01*
X0249016Y0056250D01*
X0249164Y0056102D01*
X0250226Y0055662D01*
X0251374Y0055662D01*
X0252436Y0056102D01*
X0253248Y0056914D01*
X0253687Y0057976D01*
X0253687Y0058662D01*
X0254374Y0058662D01*
X0255436Y0059102D01*
X0256248Y0059914D01*
X0256687Y0060976D01*
X0256687Y0062124D01*
X0256248Y0063186D01*
X0255436Y0063998D01*
X0254374Y0064437D01*
X0253226Y0064437D01*
X0252164Y0063998D01*
X0252016Y0063850D01*
X0201347Y0063850D01*
X0193347Y0055850D01*
X0091253Y0055850D01*
X0089191Y0057912D01*
X0089746Y0058142D01*
X0091208Y0059604D01*
X0091800Y0061033D01*
X0092392Y0059604D01*
X0093854Y0058142D01*
X0095766Y0057350D01*
X0097834Y0057350D01*
X0099746Y0058142D01*
X0101208Y0059604D01*
X0101800Y0061033D01*
X0102392Y0059604D01*
X0103854Y0058142D01*
X0105766Y0057350D01*
X0107834Y0057350D01*
X0109746Y0058142D01*
X0111208Y0059604D01*
X0111800Y0061033D01*
X0112392Y0059604D01*
X0113854Y0058142D01*
X0115766Y0057350D01*
X0117834Y0057350D01*
X0119746Y0058142D01*
X0121208Y0059604D01*
X0121800Y0061033D01*
X0122392Y0059604D01*
X0123854Y0058142D01*
X0125766Y0057350D01*
X0127834Y0057350D01*
X0129746Y0058142D01*
X0131208Y0059604D01*
X0131800Y0061033D01*
X0132392Y0059604D01*
X0133854Y0058142D01*
X0135766Y0057350D01*
X0137834Y0057350D01*
X0139746Y0058142D01*
X0141208Y0059604D01*
X0141800Y0061033D01*
X0142392Y0059604D01*
X0143854Y0058142D01*
X0145766Y0057350D01*
X0147834Y0057350D01*
X0149746Y0058142D01*
X0151208Y0059604D01*
X0151800Y0061033D01*
X0152392Y0059604D01*
X0153854Y0058142D01*
X0155766Y0057350D01*
X0157834Y0057350D01*
X0159746Y0058142D01*
X0161208Y0059604D01*
X0161800Y0061033D01*
X0162392Y0059604D01*
X0163854Y0058142D01*
X0165766Y0057350D01*
X0167834Y0057350D01*
X0169746Y0058142D01*
X0171208Y0059604D01*
X0171800Y0061033D01*
X0172392Y0059604D01*
X0173854Y0058142D01*
X0175766Y0057350D01*
X0177834Y0057350D01*
X0179746Y0058142D01*
X0181208Y0059604D01*
X0182000Y0061516D01*
X0182000Y0063584D01*
X0181208Y0065496D01*
X0179746Y0066958D01*
X0178317Y0067550D01*
X0179746Y0068142D01*
X0181208Y0069604D01*
X0182000Y0071516D01*
X0182000Y0073584D01*
X0181208Y0075496D01*
X0179746Y0076958D01*
X0177834Y0077750D01*
X0175766Y0077750D01*
X0173854Y0076958D01*
X0172392Y0075496D01*
X0171800Y0074067D01*
X0171208Y0075496D01*
X0169746Y0076958D01*
X0167834Y0077750D01*
X0165766Y0077750D01*
X0163854Y0076958D01*
X0162392Y0075496D01*
X0161800Y0074067D01*
X0161208Y0075496D01*
X0159746Y0076958D01*
X0157834Y0077750D01*
X0155766Y0077750D01*
X0153854Y0076958D01*
X0152392Y0075496D01*
X0151800Y0074067D01*
X0151208Y0075496D01*
X0149746Y0076958D01*
X0147834Y0077750D01*
X0145766Y0077750D01*
X0143854Y0076958D01*
X0142392Y0075496D01*
X0141800Y0074067D01*
X0141208Y0075496D01*
X0139746Y0076958D01*
X0137834Y0077750D01*
X0135766Y0077750D01*
X0133854Y0076958D01*
X0132392Y0075496D01*
X0131800Y0074067D01*
X0131208Y0075496D01*
X0129746Y0076958D01*
X0127834Y0077750D01*
X0125766Y0077750D01*
X0123854Y0076958D01*
X0122392Y0075496D01*
X0121800Y0074067D01*
X0121208Y0075496D01*
X0119746Y0076958D01*
X0117834Y0077750D01*
X0115766Y0077750D01*
X0113854Y0076958D01*
X0112392Y0075496D01*
X0111800Y0074067D01*
X0111208Y0075496D01*
X0109746Y0076958D01*
X0107834Y0077750D01*
X0105766Y0077750D01*
X0103854Y0076958D01*
X0102392Y0075496D01*
X0101800Y0074067D01*
X0101208Y0075496D01*
X0099746Y0076958D01*
X0097834Y0077750D01*
X0095766Y0077750D01*
X0093854Y0076958D01*
X0092392Y0075496D01*
X0091800Y0074067D01*
X0091208Y0075496D01*
X0089746Y0076958D01*
X0087834Y0077750D01*
X0085766Y0077750D01*
X0083854Y0076958D01*
X0082392Y0075496D01*
X0081800Y0074067D01*
X0081208Y0075496D01*
X0079746Y0076958D01*
X0077834Y0077750D01*
X0075766Y0077750D01*
X0073854Y0076958D01*
X0072392Y0075496D01*
X0071800Y0074067D01*
X0071208Y0075496D01*
X0069746Y0076958D01*
X0067834Y0077750D01*
X0065766Y0077750D01*
X0063854Y0076958D01*
X0062392Y0075496D01*
X0061600Y0073584D01*
X0061600Y0071516D01*
X0062392Y0069604D01*
X0063854Y0068142D01*
X0064500Y0067874D01*
X0064500Y0067226D01*
X0063854Y0066958D01*
X0062392Y0065496D01*
X0061600Y0063584D01*
X0061600Y0061516D01*
X0062392Y0059604D01*
X0063854Y0058142D01*
X0064500Y0057874D01*
X0064500Y0052597D01*
X0068000Y0049097D01*
X0068047Y0049050D01*
X0042976Y0049050D01*
X0043190Y0049265D01*
X0043657Y0049907D01*
X0044017Y0050614D01*
X0044262Y0051369D01*
X0044370Y0052050D01*
X0036300Y0052050D01*
X0036300Y0053050D01*
X0035300Y0053050D01*
X0035300Y0057593D01*
X0031860Y0057593D01*
X0031076Y0057469D01*
X0030321Y0057224D01*
X0029613Y0056863D01*
X0028971Y0056397D01*
X0028410Y0055835D01*
X0027943Y0055193D01*
X0027583Y0054486D01*
X0027338Y0053731D01*
X0027230Y0053050D01*
X0035300Y0053050D01*
X0035300Y0052050D01*
X0027230Y0052050D01*
X0027338Y0051369D01*
X0027583Y0050614D01*
X0027943Y0049907D01*
X0028410Y0049265D01*
X0028624Y0049050D01*
X0003300Y0049050D01*
X0003300Y0176050D01*
X0028624Y0176050D01*
X0028410Y0175835D01*
X0027943Y0175193D01*
X0027583Y0174486D01*
X0027338Y0173731D01*
X0027230Y0173050D01*
X0035300Y0173050D01*
X0035300Y0172050D01*
X0027230Y0172050D01*
X0027338Y0171369D01*
X0027583Y0170614D01*
X0027943Y0169907D01*
X0028410Y0169265D01*
X0028971Y0168703D01*
X0029613Y0168237D01*
X0030321Y0167876D01*
X0031076Y0167631D01*
X0031860Y0167507D01*
X0035178Y0167507D01*
X0033854Y0166958D01*
X0032392Y0165496D01*
X0031800Y0164067D01*
X0031208Y0165496D01*
X0029746Y0166958D01*
X0027834Y0167750D01*
X0025766Y0167750D01*
X0023854Y0166958D01*
X0022392Y0165496D01*
X0021600Y0163584D01*
X0021600Y0161516D01*
X0022392Y0159604D01*
X0023854Y0158142D01*
X0025283Y0157550D01*
X0023854Y0156958D01*
X0022392Y0155496D01*
X0021600Y0153584D01*
X0021600Y0151516D01*
X0022392Y0149604D01*
X0023854Y0148142D01*
X0025766Y0147350D01*
X0027834Y0147350D01*
X0029746Y0148142D01*
X0031208Y0149604D01*
X0031800Y0151033D01*
X0032392Y0149604D01*
X0033854Y0148142D01*
X0035766Y0147350D01*
X0037834Y0147350D01*
X0039746Y0148142D01*
X0041208Y0149604D01*
X0041800Y0151033D01*
X0042392Y0149604D01*
X0043854Y0148142D01*
X0045766Y0147350D01*
X0047834Y0147350D01*
X0049746Y0148142D01*
X0051208Y0149604D01*
X0051814Y0151067D01*
X0051981Y0150554D01*
X0052353Y0149825D01*
X0052834Y0149162D01*
X0053412Y0148584D01*
X0054075Y0148103D01*
X0054804Y0147731D01*
X0055582Y0147478D01*
X0056300Y0147364D01*
X0056300Y0152050D01*
X0057300Y0152050D01*
X0057300Y0147364D01*
X0058018Y0147478D01*
X0058796Y0147731D01*
X0059525Y0148103D01*
X0060188Y0148584D01*
X0060766Y0149162D01*
X0061247Y0149825D01*
X0061619Y0150554D01*
X0061786Y0151067D01*
X0062392Y0149604D01*
X0063854Y0148142D01*
X0065766Y0147350D01*
X0067834Y0147350D01*
X0069746Y0148142D01*
X0071208Y0149604D01*
X0071800Y0151033D01*
X0072392Y0149604D01*
X0073854Y0148142D01*
X0075766Y0147350D01*
X0077834Y0147350D01*
X0079746Y0148142D01*
X0081208Y0149604D01*
X0081800Y0151033D01*
X0082392Y0149604D01*
X0083854Y0148142D01*
X0085766Y0147350D01*
X0087834Y0147350D01*
X0089746Y0148142D01*
X0091208Y0149604D01*
X0091800Y0151033D01*
X0092392Y0149604D01*
X0093854Y0148142D01*
X0095766Y0147350D01*
X0097834Y0147350D01*
X0099746Y0148142D01*
X0101208Y0149604D01*
X0101800Y0151033D01*
X0102392Y0149604D01*
X0103854Y0148142D01*
X0105766Y0147350D01*
X0107834Y0147350D01*
X0109746Y0148142D01*
X0111208Y0149604D01*
X0111800Y0151033D01*
X0112392Y0149604D01*
X0113854Y0148142D01*
X0115766Y0147350D01*
X0117834Y0147350D01*
X0119746Y0148142D01*
X0121208Y0149604D01*
X0121800Y0151033D01*
X0122392Y0149604D01*
X0123854Y0148142D01*
X0125766Y0147350D01*
X0127834Y0147350D01*
X0129746Y0148142D01*
X0131208Y0149604D01*
X0131800Y0151033D01*
X0132392Y0149604D01*
X0133854Y0148142D01*
X0135766Y0147350D01*
X0137834Y0147350D01*
X0139746Y0148142D01*
X0141208Y0149604D01*
X0141800Y0151033D01*
X0142392Y0149604D01*
X0143854Y0148142D01*
X0145766Y0147350D01*
X0147834Y0147350D01*
X0149746Y0148142D01*
X0151208Y0149604D01*
X0151800Y0151033D01*
X0152392Y0149604D01*
X0153854Y0148142D01*
X0155766Y0147350D01*
X0157834Y0147350D01*
X0159746Y0148142D01*
X0161208Y0149604D01*
X0161800Y0151033D01*
X0162392Y0149604D01*
X0163854Y0148142D01*
X0165766Y0147350D01*
X0167834Y0147350D01*
X0169746Y0148142D01*
X0171208Y0149604D01*
X0171800Y0151033D01*
X0172392Y0149604D01*
X0173854Y0148142D01*
X0175766Y0147350D01*
X0177834Y0147350D01*
X0179746Y0148142D01*
X0181208Y0149604D01*
X0182000Y0151516D01*
X0182000Y0153584D01*
X0181208Y0155496D01*
X0179746Y0156958D01*
X0178317Y0157550D01*
X0179746Y0158142D01*
X0181208Y0159604D01*
X0182000Y0161516D01*
X0182000Y0163584D01*
X0181208Y0165496D01*
X0180654Y0166050D01*
X0192472Y0166050D01*
X0193232Y0165289D01*
X0192874Y0165437D01*
X0191726Y0165437D01*
X0190664Y0164998D01*
X0189852Y0164186D01*
X0189412Y0163124D01*
X0189412Y0161976D01*
X0189852Y0160914D01*
X0190664Y0160102D01*
X0191726Y0159663D01*
X0192874Y0159663D01*
X0193936Y0160102D01*
X0194384Y0160550D01*
X0194972Y0160550D01*
X0199800Y0155722D01*
X0200972Y0154550D01*
X0246216Y0154550D01*
X0229472Y0154550D01*
X0228359Y0153437D01*
X0227726Y0153437D01*
X0226664Y0152998D01*
X0225852Y0152186D01*
X0225412Y0151124D01*
X0225412Y0149976D01*
X0225852Y0148914D01*
X0226664Y0148102D01*
X0227726Y0147663D01*
X0228874Y0147663D01*
X0229936Y0148102D01*
X0230748Y0148914D01*
X0231187Y0149976D01*
X0231187Y0150550D01*
X0246216Y0150550D01*
X0246664Y0150102D01*
X0247726Y0149663D01*
X0248874Y0149663D01*
X0249936Y0150102D01*
X0250748Y0150914D01*
X0251187Y0151976D01*
X0251187Y0153124D01*
X0250748Y0154186D01*
X0250384Y0154550D01*
X0262716Y0154550D01*
X0263164Y0154102D01*
X0264226Y0153663D01*
X0265374Y0153663D01*
X0266436Y0154102D01*
X0267248Y0154914D01*
X0267687Y0155976D01*
X0267687Y0157124D01*
X0267248Y0158186D01*
X0266436Y0158998D01*
X0265374Y0159437D01*
X0264226Y0159437D01*
X0263164Y0158998D01*
X0262716Y0158550D01*
X0258628Y0158550D01*
X0263741Y0163663D01*
X0264374Y0163663D01*
X0265436Y0164102D01*
X0266248Y0164914D01*
X0266687Y0165976D01*
X0266687Y0167124D01*
X0266248Y0168186D01*
X0265436Y0168998D01*
X0264374Y0169437D01*
X0263226Y0169437D01*
X0262164Y0168998D01*
X0261550Y0168384D01*
X0260936Y0168998D01*
X0259874Y0169437D01*
X0258726Y0169437D01*
X0257664Y0168998D01*
X0257050Y0168384D01*
X0256436Y0168998D01*
X0255374Y0169437D01*
X0254226Y0169437D01*
X0253300Y0169054D01*
X0253300Y0170550D01*
X0269972Y0170550D01*
X0270413Y0170109D01*
X0270413Y0169476D01*
X0270852Y0168414D01*
X0271664Y0167602D01*
X0272726Y0167163D01*
X0273874Y0167163D01*
X0274936Y0167602D01*
X0275550Y0168216D01*
X0276164Y0167602D01*
X0277226Y0167163D01*
X0278374Y0167163D01*
X0279436Y0167602D01*
X0280248Y0168414D01*
X0280687Y0169476D01*
X0280687Y0170624D01*
X0280248Y0171686D01*
X0279436Y0172498D01*
X0278374Y0172937D01*
X0277741Y0172937D01*
X0273128Y0177550D01*
X0255628Y0177550D01*
X0250668Y0182511D01*
X0250668Y0183144D01*
X0250228Y0184205D01*
X0249416Y0185018D01*
X0248355Y0185457D01*
X0247206Y0185457D01*
X0246145Y0185018D01*
X0245332Y0184205D01*
X0244893Y0183144D01*
X0244893Y0181995D01*
X0245332Y0180934D01*
X0246145Y0180122D01*
X0246270Y0180070D01*
X0246145Y0180018D01*
X0245332Y0179205D01*
X0244893Y0178144D01*
X0244893Y0176995D01*
X0245332Y0175934D01*
X0246145Y0175122D01*
X0246304Y0175056D01*
X0246164Y0174998D01*
X0245352Y0174186D01*
X0244912Y0173124D01*
X0244912Y0171976D01*
X0245352Y0170914D01*
X0246164Y0170102D01*
X0246290Y0170050D01*
X0246164Y0169998D01*
X0245716Y0169550D01*
X0219476Y0169550D01*
X0219619Y0169693D01*
X0220387Y0171547D01*
X0220387Y0173553D01*
X0219619Y0175407D01*
X0218976Y0176050D01*
X0227421Y0176050D01*
X0228300Y0176929D01*
X0228300Y0221050D01*
X0239864Y0221050D01*
X0240632Y0220281D01*
X0312854Y0220281D01*
X0313623Y0221050D01*
X0335300Y0221050D01*
X0335300Y0209237D01*
X0334687Y0209849D01*
X0334687Y0210624D01*
X0334248Y0211686D01*
X0333436Y0212498D01*
X0332374Y0212937D01*
X0331226Y0212937D01*
X0330164Y0212498D01*
X0329352Y0211686D01*
X0328913Y0210624D01*
X0328913Y0209476D01*
X0329352Y0208414D01*
X0330164Y0207602D01*
X0331226Y0207162D01*
X0332000Y0207162D01*
X0333400Y0205763D01*
X0333400Y0175337D01*
X0332513Y0174450D01*
X0328513Y0174450D01*
X0327013Y0172950D01*
X0325900Y0171837D01*
X0325900Y0154837D01*
X0320513Y0149450D01*
X0318984Y0149450D01*
X0318436Y0149998D01*
X0317374Y0150437D01*
X0316226Y0150437D01*
X0315164Y0149998D01*
X0314352Y0149186D01*
X0313913Y0148124D01*
X0313913Y0146976D01*
X0314352Y0145914D01*
X0315164Y0145102D01*
X0316226Y0144663D01*
X0317374Y0144663D01*
X0318436Y0145102D01*
X0318984Y0145650D01*
X0322087Y0145650D01*
X0323200Y0146763D01*
X0325413Y0148976D01*
X0325413Y0147976D01*
X0325472Y0147832D01*
X0324664Y0147498D01*
X0323852Y0146686D01*
X0323413Y0145624D01*
X0323413Y0144849D01*
X0320513Y0141950D01*
X0319400Y0140837D01*
X0319400Y0135263D01*
X0326400Y0128263D01*
X0326400Y0094837D01*
X0321900Y0090337D01*
X0321900Y0077837D01*
X0319501Y0075437D01*
X0318726Y0075437D01*
X0317664Y0074998D01*
X0316852Y0074186D01*
X0316413Y0073124D01*
X0316413Y0071976D01*
X0316852Y0070914D01*
X0317664Y0070102D01*
X0318726Y0069663D01*
X0319874Y0069663D01*
X0320936Y0070102D01*
X0321748Y0070914D01*
X0322187Y0071976D01*
X0322187Y0072751D01*
X0325700Y0076263D01*
X0325700Y0086087D01*
X0326726Y0085663D01*
X0327874Y0085663D01*
X0328936Y0086102D01*
X0329400Y0086566D01*
X0329400Y0065337D01*
X0325900Y0061837D01*
X0325900Y0053234D01*
X0325352Y0052686D01*
X0324913Y0051624D01*
X0324913Y0051477D02*
X0286800Y0051477D01*
X0286800Y0050479D02*
X0324913Y0050479D01*
X0325325Y0049480D02*
X0286800Y0049480D01*
X0286800Y0048482D02*
X0326455Y0048482D01*
X0329145Y0048482D02*
X0335300Y0048482D01*
X0335300Y0049480D02*
X0330275Y0049480D01*
X0330687Y0050479D02*
X0335300Y0050479D01*
X0335300Y0051477D02*
X0330687Y0051477D01*
X0333309Y0052476D02*
X0335300Y0052476D01*
X0335300Y0053474D02*
X0333980Y0053474D01*
X0334187Y0054473D02*
X0335300Y0054473D01*
X0335300Y0055471D02*
X0334908Y0055471D01*
X0325900Y0055471D02*
X0286800Y0055471D01*
X0286800Y0054473D02*
X0325900Y0054473D01*
X0325900Y0053474D02*
X0286800Y0053474D01*
X0286800Y0052476D02*
X0325265Y0052476D01*
X0325900Y0056470D02*
X0286800Y0056470D01*
X0286800Y0057468D02*
X0325900Y0057468D01*
X0325900Y0058467D02*
X0286800Y0058467D01*
X0286800Y0059465D02*
X0325900Y0059465D01*
X0325900Y0060464D02*
X0286800Y0060464D01*
X0286800Y0061462D02*
X0325900Y0061462D01*
X0326524Y0062461D02*
X0286800Y0062461D01*
X0286800Y0062466D02*
X0287248Y0062914D01*
X0287687Y0063976D01*
X0287687Y0065124D01*
X0287411Y0065793D01*
X0287726Y0065663D01*
X0288874Y0065663D01*
X0289936Y0066102D01*
X0290748Y0066914D01*
X0291187Y0067976D01*
X0291187Y0069124D01*
X0290748Y0070186D01*
X0289936Y0070998D01*
X0288874Y0071437D01*
X0287726Y0071437D01*
X0286664Y0070998D01*
X0286216Y0070550D01*
X0276384Y0070550D01*
X0275936Y0070998D01*
X0274874Y0071437D01*
X0273726Y0071437D01*
X0272664Y0070998D01*
X0271852Y0070186D01*
X0271413Y0069124D01*
X0271413Y0067976D01*
X0271852Y0066914D01*
X0272664Y0066102D01*
X0273726Y0065663D01*
X0274874Y0065663D01*
X0275936Y0066102D01*
X0276384Y0066550D01*
X0282716Y0066550D01*
X0282352Y0066186D01*
X0281913Y0065124D01*
X0281913Y0063976D01*
X0282352Y0062914D01*
X0282800Y0062466D01*
X0282800Y0033634D01*
X0282352Y0033186D01*
X0281913Y0032124D01*
X0281913Y0030976D01*
X0282352Y0029914D01*
X0283164Y0029102D01*
X0284226Y0028662D01*
X0285374Y0028662D01*
X0286436Y0029102D01*
X0287248Y0029914D01*
X0287687Y0030976D01*
X0287687Y0032124D01*
X0287248Y0033186D01*
X0286800Y0033634D01*
X0286800Y0062466D01*
X0287474Y0063459D02*
X0327522Y0063459D01*
X0328521Y0064458D02*
X0287687Y0064458D01*
X0287550Y0065456D02*
X0329400Y0065456D01*
X0329400Y0066455D02*
X0290288Y0066455D01*
X0290971Y0067453D02*
X0329400Y0067453D01*
X0329400Y0068452D02*
X0291187Y0068452D01*
X0291052Y0069450D02*
X0329400Y0069450D01*
X0329400Y0070449D02*
X0321282Y0070449D01*
X0321969Y0071447D02*
X0329400Y0071447D01*
X0329400Y0072446D02*
X0322187Y0072446D01*
X0322881Y0073444D02*
X0329400Y0073444D01*
X0329400Y0074443D02*
X0323880Y0074443D01*
X0324878Y0075441D02*
X0329400Y0075441D01*
X0329400Y0076440D02*
X0325700Y0076440D01*
X0325700Y0077438D02*
X0329400Y0077438D01*
X0329400Y0078437D02*
X0325700Y0078437D01*
X0325700Y0079435D02*
X0329400Y0079435D01*
X0329400Y0080434D02*
X0325700Y0080434D01*
X0325700Y0081432D02*
X0329400Y0081432D01*
X0329400Y0082431D02*
X0325700Y0082431D01*
X0325700Y0083429D02*
X0329400Y0083429D01*
X0329400Y0084428D02*
X0325700Y0084428D01*
X0325700Y0085426D02*
X0329400Y0085426D01*
X0329400Y0086425D02*
X0329258Y0086425D01*
X0321900Y0086425D02*
X0315509Y0086425D01*
X0315748Y0086186D02*
X0314936Y0086998D01*
X0313874Y0087437D01*
X0312726Y0087437D01*
X0311664Y0086998D01*
X0310852Y0086186D01*
X0310413Y0085124D01*
X0310413Y0083976D01*
X0310852Y0082914D01*
X0311300Y0082466D01*
X0311300Y0078634D01*
X0310852Y0078186D01*
X0310413Y0077124D01*
X0310413Y0075976D01*
X0310852Y0074914D01*
X0311664Y0074102D01*
X0312726Y0073663D01*
X0313874Y0073663D01*
X0314936Y0074102D01*
X0315748Y0074914D01*
X0316187Y0075976D01*
X0316187Y0077124D01*
X0315748Y0078186D01*
X0315300Y0078634D01*
X0315300Y0082466D01*
X0315748Y0082914D01*
X0316187Y0083976D01*
X0316187Y0085124D01*
X0315748Y0086186D01*
X0316062Y0085426D02*
X0321900Y0085426D01*
X0321900Y0084428D02*
X0316187Y0084428D01*
X0315961Y0083429D02*
X0321900Y0083429D01*
X0321900Y0082431D02*
X0315300Y0082431D01*
X0315300Y0081432D02*
X0321900Y0081432D01*
X0321900Y0080434D02*
X0315300Y0080434D01*
X0315300Y0079435D02*
X0321900Y0079435D01*
X0321900Y0078437D02*
X0315497Y0078437D01*
X0316057Y0077438D02*
X0321501Y0077438D01*
X0320503Y0076440D02*
X0316187Y0076440D01*
X0315966Y0075441D02*
X0319504Y0075441D01*
X0317109Y0074443D02*
X0315276Y0074443D01*
X0316545Y0073444D02*
X0252778Y0073444D01*
X0252436Y0073102D02*
X0253248Y0073914D01*
X0253687Y0074976D01*
X0253687Y0076124D01*
X0253248Y0077186D01*
X0252436Y0077998D01*
X0251374Y0078437D01*
X0250226Y0078437D01*
X0249164Y0077998D01*
X0248616Y0077450D01*
X0245484Y0077450D01*
X0244936Y0077998D01*
X0243874Y0078437D01*
X0242726Y0078437D01*
X0241664Y0077998D01*
X0240852Y0077186D01*
X0240412Y0076124D01*
X0240412Y0074976D01*
X0240852Y0073914D01*
X0241664Y0073102D01*
X0242726Y0072663D01*
X0243874Y0072663D01*
X0244936Y0073102D01*
X0245484Y0073650D01*
X0248616Y0073650D01*
X0249164Y0073102D01*
X0250226Y0072663D01*
X0251374Y0072663D01*
X0252436Y0073102D01*
X0253226Y0071937D02*
X0252164Y0071498D01*
X0251616Y0070950D01*
X0244984Y0070950D01*
X0244436Y0071498D01*
X0243374Y0071937D01*
X0242226Y0071937D01*
X0241164Y0071498D01*
X0240352Y0070686D01*
X0239912Y0069624D01*
X0239912Y0068476D01*
X0240352Y0067414D01*
X0241164Y0066602D01*
X0242226Y0066163D01*
X0243374Y0066163D01*
X0244436Y0066602D01*
X0244984Y0067150D01*
X0251616Y0067150D01*
X0252164Y0066602D01*
X0253226Y0066163D01*
X0254374Y0066163D01*
X0255436Y0066602D01*
X0256248Y0067414D01*
X0256687Y0068476D01*
X0256687Y0069624D01*
X0256248Y0070686D01*
X0255436Y0071498D01*
X0254374Y0071937D01*
X0253226Y0071937D01*
X0252114Y0071447D02*
X0244486Y0071447D01*
X0245278Y0073444D02*
X0248822Y0073444D01*
X0253467Y0074443D02*
X0311324Y0074443D01*
X0310634Y0075441D02*
X0272548Y0075441D01*
X0272936Y0075602D02*
X0273748Y0076414D01*
X0274187Y0077476D01*
X0274187Y0078624D01*
X0273748Y0079686D01*
X0273300Y0080134D01*
X0273300Y0084222D01*
X0277628Y0088550D01*
X0280216Y0088550D01*
X0280664Y0088102D01*
X0281726Y0087662D01*
X0282874Y0087662D01*
X0283936Y0088102D01*
X0284748Y0088914D01*
X0285187Y0089976D01*
X0285187Y0091124D01*
X0284748Y0092186D01*
X0283936Y0092998D01*
X0282874Y0093437D01*
X0281726Y0093437D01*
X0280664Y0092998D01*
X0280216Y0092550D01*
X0275972Y0092550D01*
X0270472Y0087050D01*
X0269300Y0085878D01*
X0269300Y0080134D01*
X0268852Y0079686D01*
X0268413Y0078624D01*
X0268413Y0077476D01*
X0268852Y0076414D01*
X0269664Y0075602D01*
X0270726Y0075163D01*
X0271874Y0075163D01*
X0272936Y0075602D01*
X0273758Y0076440D02*
X0310413Y0076440D01*
X0310543Y0077438D02*
X0274172Y0077438D01*
X0274187Y0078437D02*
X0311103Y0078437D01*
X0311300Y0079435D02*
X0273852Y0079435D01*
X0273300Y0080434D02*
X0311300Y0080434D01*
X0311300Y0081432D02*
X0273300Y0081432D01*
X0273300Y0082431D02*
X0280336Y0082431D01*
X0280664Y0082102D02*
X0279852Y0082914D01*
X0279413Y0083976D01*
X0279413Y0085124D01*
X0279852Y0086186D01*
X0280664Y0086998D01*
X0281726Y0087437D01*
X0282874Y0087437D01*
X0283936Y0086998D01*
X0284384Y0086550D01*
X0284472Y0086550D01*
X0285300Y0087378D01*
X0285300Y0096222D01*
X0283472Y0098050D01*
X0282300Y0099222D01*
X0282300Y0103466D01*
X0281852Y0103914D01*
X0281413Y0104976D01*
X0281413Y0106124D01*
X0281852Y0107186D01*
X0282664Y0107998D01*
X0283726Y0108437D01*
X0284874Y0108437D01*
X0285936Y0107998D01*
X0286748Y0107186D01*
X0287187Y0106124D01*
X0287187Y0104976D01*
X0286748Y0103914D01*
X0286300Y0103466D01*
X0286300Y0100878D01*
X0289300Y0097878D01*
X0289300Y0085722D01*
X0288128Y0084550D01*
X0286128Y0082550D01*
X0284384Y0082550D01*
X0283936Y0082102D01*
X0282874Y0081663D01*
X0281726Y0081663D01*
X0280664Y0082102D01*
X0279639Y0083429D02*
X0273300Y0083429D01*
X0273506Y0084428D02*
X0279413Y0084428D01*
X0279538Y0085426D02*
X0274505Y0085426D01*
X0275503Y0086425D02*
X0280091Y0086425D01*
X0281692Y0087423D02*
X0276502Y0087423D01*
X0277500Y0088422D02*
X0280344Y0088422D01*
X0282908Y0087423D02*
X0285300Y0087423D01*
X0285300Y0088422D02*
X0284256Y0088422D01*
X0284958Y0089420D02*
X0285300Y0089420D01*
X0285300Y0090419D02*
X0285187Y0090419D01*
X0285300Y0091418D02*
X0285066Y0091418D01*
X0285300Y0092416D02*
X0284518Y0092416D01*
X0285300Y0093415D02*
X0282930Y0093415D01*
X0281670Y0093415D02*
X0255493Y0093415D01*
X0256491Y0094413D02*
X0276621Y0094413D01*
X0276164Y0094602D02*
X0277226Y0094162D01*
X0278374Y0094162D01*
X0279436Y0094602D01*
X0280248Y0095414D01*
X0280687Y0096476D01*
X0280687Y0097624D01*
X0280248Y0098686D01*
X0280100Y0098834D01*
X0280100Y0110097D01*
X0282665Y0112662D01*
X0282874Y0112662D01*
X0283936Y0113102D01*
X0284748Y0113914D01*
X0285187Y0114976D01*
X0285187Y0116124D01*
X0284748Y0117186D01*
X0283936Y0117998D01*
X0282874Y0118437D01*
X0281726Y0118437D01*
X0280664Y0117998D01*
X0279852Y0117186D01*
X0279413Y0116124D01*
X0279413Y0115915D01*
X0275500Y0112003D01*
X0275500Y0098834D01*
X0275352Y0098686D01*
X0274913Y0097624D01*
X0274913Y0096476D01*
X0275352Y0095414D01*
X0276164Y0094602D01*
X0275355Y0095412D02*
X0257490Y0095412D01*
X0258488Y0096410D02*
X0274940Y0096410D01*
X0274913Y0097409D02*
X0259487Y0097409D01*
X0260486Y0098407D02*
X0275237Y0098407D01*
X0275500Y0099406D02*
X0261484Y0099406D01*
X0262483Y0100404D02*
X0275500Y0100404D01*
X0275500Y0101403D02*
X0263481Y0101403D01*
X0264480Y0102401D02*
X0275500Y0102401D01*
X0275500Y0103400D02*
X0265478Y0103400D01*
X0266477Y0104398D02*
X0275500Y0104398D01*
X0275500Y0105397D02*
X0267475Y0105397D01*
X0268474Y0106395D02*
X0275500Y0106395D01*
X0275500Y0107394D02*
X0269472Y0107394D01*
X0270471Y0108392D02*
X0275500Y0108392D01*
X0275500Y0109391D02*
X0271469Y0109391D01*
X0272468Y0110389D02*
X0275500Y0110389D01*
X0275500Y0111388D02*
X0273466Y0111388D01*
X0274465Y0112386D02*
X0275884Y0112386D01*
X0275463Y0113385D02*
X0276882Y0113385D01*
X0276462Y0114383D02*
X0277881Y0114383D01*
X0277374Y0114662D02*
X0278436Y0115102D01*
X0279248Y0115914D01*
X0279687Y0116976D01*
X0279687Y0118124D01*
X0279248Y0119186D01*
X0278436Y0119998D01*
X0278310Y0120050D01*
X0294128Y0120050D01*
X0295300Y0121222D01*
X0303241Y0129162D01*
X0303874Y0129162D01*
X0304936Y0129602D01*
X0305748Y0130414D01*
X0306187Y0131476D01*
X0306187Y0132624D01*
X0305748Y0133686D01*
X0304936Y0134498D01*
X0303874Y0134937D01*
X0302726Y0134937D01*
X0301664Y0134498D01*
X0300852Y0133686D01*
X0300413Y0132624D01*
X0300413Y0131991D01*
X0298353Y0129932D01*
X0298248Y0130186D01*
X0297436Y0130998D01*
X0296374Y0131437D01*
X0295226Y0131437D01*
X0294164Y0130998D01*
X0293352Y0130186D01*
X0292913Y0129124D01*
X0292913Y0128491D01*
X0292353Y0127932D01*
X0292248Y0128186D01*
X0291436Y0128998D01*
X0290374Y0129437D01*
X0289687Y0129437D01*
X0289687Y0129624D01*
X0289248Y0130686D01*
X0288436Y0131498D01*
X0287374Y0131937D01*
X0286687Y0131937D01*
X0286687Y0132124D01*
X0286248Y0133186D01*
X0285436Y0133998D01*
X0284374Y0134437D01*
X0283226Y0134437D01*
X0283082Y0134378D01*
X0282748Y0135186D01*
X0281936Y0135998D01*
X0280874Y0136437D01*
X0279726Y0136437D01*
X0278979Y0136128D01*
X0278748Y0136686D01*
X0277936Y0137498D01*
X0277862Y0137528D01*
X0278248Y0137914D01*
X0278687Y0138976D01*
X0278687Y0140124D01*
X0278248Y0141186D01*
X0277436Y0141998D01*
X0276374Y0142437D01*
X0275226Y0142437D01*
X0274164Y0141998D01*
X0273352Y0141186D01*
X0272913Y0140124D01*
X0272913Y0139491D01*
X0270646Y0137224D01*
X0270248Y0138186D01*
X0269436Y0138998D01*
X0268374Y0139437D01*
X0267226Y0139437D01*
X0266164Y0138998D01*
X0265352Y0138186D01*
X0264913Y0137124D01*
X0264913Y0135976D01*
X0265352Y0134914D01*
X0265594Y0134672D01*
X0263800Y0132878D01*
X0263800Y0134466D01*
X0264248Y0134914D01*
X0264687Y0135976D01*
X0264687Y0137124D01*
X0264248Y0138186D01*
X0263436Y0138998D01*
X0262374Y0139437D01*
X0261226Y0139437D01*
X0260164Y0138998D01*
X0259352Y0138186D01*
X0258912Y0137124D01*
X0258912Y0135976D01*
X0259352Y0134914D01*
X0259800Y0134466D01*
X0259800Y0131378D01*
X0257800Y0129378D01*
X0257800Y0134466D01*
X0258248Y0134914D01*
X0258687Y0135976D01*
X0258687Y0137124D01*
X0258248Y0138186D01*
X0257436Y0138998D01*
X0256374Y0139437D01*
X0255226Y0139437D01*
X0254164Y0138998D01*
X0253352Y0138186D01*
X0252912Y0137124D01*
X0252912Y0135976D01*
X0253352Y0134914D01*
X0253800Y0134466D01*
X0253800Y0127878D01*
X0251353Y0125432D01*
X0251248Y0125686D01*
X0250436Y0126498D01*
X0249374Y0126937D01*
X0248226Y0126937D01*
X0247164Y0126498D01*
X0246716Y0126050D01*
X0221128Y0126050D01*
X0220128Y0127050D01*
X0212002Y0127050D01*
X0210136Y0128543D01*
X0209628Y0129050D01*
X0209502Y0129050D01*
X0209402Y0129129D01*
X0208689Y0129050D01*
X0205384Y0129050D01*
X0204936Y0129498D01*
X0203874Y0129937D01*
X0202726Y0129937D01*
X0201664Y0129498D01*
X0200852Y0128686D01*
X0200412Y0127624D01*
X0200412Y0126476D01*
X0200852Y0125414D01*
X0201664Y0124602D01*
X0202726Y0124162D01*
X0203874Y0124162D01*
X0204412Y0124385D01*
X0204412Y0123715D01*
X0203874Y0123937D01*
X0202726Y0123937D01*
X0201664Y0123498D01*
X0200852Y0122686D01*
X0200412Y0121624D01*
X0200412Y0120476D01*
X0200852Y0119414D01*
X0201664Y0118602D01*
X0202726Y0118162D01*
X0203874Y0118162D01*
X0204412Y0118385D01*
X0204412Y0117507D01*
X0203374Y0117937D01*
X0202226Y0117937D01*
X0201164Y0117498D01*
X0200352Y0116686D01*
X0199912Y0115624D01*
X0199912Y0114476D01*
X0200352Y0113414D01*
X0201164Y0112602D01*
X0202226Y0112162D01*
X0203374Y0112162D01*
X0204412Y0112593D01*
X0204412Y0111507D01*
X0203374Y0111937D01*
X0202226Y0111937D01*
X0201164Y0111498D01*
X0200352Y0110686D01*
X0199912Y0109624D01*
X0199912Y0108476D01*
X0200352Y0107414D01*
X0201164Y0106602D01*
X0202226Y0106162D01*
X0203374Y0106162D01*
X0204412Y0106593D01*
X0204412Y0105507D01*
X0203374Y0105937D01*
X0202226Y0105937D01*
X0201164Y0105498D01*
X0200352Y0104686D01*
X0199912Y0103624D01*
X0199912Y0102476D01*
X0200352Y0101414D01*
X0201164Y0100602D01*
X0202226Y0100162D01*
X0203374Y0100162D01*
X0204412Y0100593D01*
X0204412Y0099507D01*
X0203374Y0099937D01*
X0202226Y0099937D01*
X0201164Y0099498D01*
X0200352Y0098686D01*
X0199912Y0097624D01*
X0199912Y0096476D01*
X0200352Y0095414D01*
X0201164Y0094602D01*
X0202226Y0094162D01*
X0203374Y0094162D01*
X0204412Y0094593D01*
X0204412Y0093476D01*
X0204852Y0092414D01*
X0205664Y0091602D01*
X0206726Y0091162D01*
X0207874Y0091162D01*
X0208936Y0091602D01*
X0209384Y0092050D01*
X0216216Y0092050D01*
X0215852Y0091686D01*
X0215412Y0090624D01*
X0215412Y0089476D01*
X0215852Y0088414D01*
X0216664Y0087602D01*
X0217726Y0087162D01*
X0218359Y0087162D01*
X0220472Y0085050D01*
X0241472Y0085050D01*
X0241472Y0085050D01*
X0205384Y0085050D01*
X0204936Y0085498D01*
X0203874Y0085937D01*
X0202726Y0085937D01*
X0201664Y0085498D01*
X0200852Y0084686D01*
X0200412Y0083624D01*
X0200412Y0082476D01*
X0200852Y0081414D01*
X0201664Y0080602D01*
X0202726Y0080163D01*
X0203874Y0080163D01*
X0204936Y0080602D01*
X0205384Y0081050D01*
X0243128Y0081050D01*
X0244300Y0082222D01*
X0276741Y0114662D01*
X0277374Y0114662D01*
X0278715Y0115382D02*
X0278879Y0115382D01*
X0279441Y0116380D02*
X0279519Y0116380D01*
X0279687Y0117379D02*
X0280045Y0117379D01*
X0279583Y0118377D02*
X0281580Y0118377D01*
X0283020Y0118377D02*
X0293591Y0118377D01*
X0293591Y0118400D02*
X0293591Y0116700D01*
X0294242Y0115130D01*
X0295443Y0113929D01*
X0295863Y0113755D01*
X0295863Y0101941D01*
X0294859Y0100937D01*
X0294226Y0100937D01*
X0293164Y0100498D01*
X0292352Y0099686D01*
X0291913Y0098624D01*
X0291913Y0097476D01*
X0292352Y0096414D01*
X0293164Y0095602D01*
X0294226Y0095162D01*
X0295374Y0095162D01*
X0296436Y0095602D01*
X0297248Y0096414D01*
X0297687Y0097476D01*
X0297687Y0098109D01*
X0299672Y0100094D01*
X0299900Y0099866D01*
X0299900Y0094263D01*
X0302013Y0092150D01*
X0308116Y0092150D01*
X0308664Y0091602D01*
X0309726Y0091162D01*
X0310874Y0091162D01*
X0311936Y0091602D01*
X0312748Y0092414D01*
X0313187Y0093476D01*
X0313187Y0094624D01*
X0312748Y0095686D01*
X0311936Y0096498D01*
X0310874Y0096937D01*
X0309726Y0096937D01*
X0308664Y0096498D01*
X0308366Y0096200D01*
X0308687Y0096976D01*
X0308687Y0098124D01*
X0308248Y0099186D01*
X0307800Y0099634D01*
X0307800Y0113781D01*
X0308157Y0113929D01*
X0309358Y0115130D01*
X0310009Y0116700D01*
X0310009Y0118400D01*
X0309358Y0119970D01*
X0308157Y0121171D01*
X0306587Y0121822D01*
X0304887Y0121822D01*
X0303317Y0121171D01*
X0302116Y0119970D01*
X0301800Y0119208D01*
X0301484Y0119970D01*
X0300283Y0121171D01*
X0298713Y0121822D01*
X0297013Y0121822D01*
X0295443Y0121171D01*
X0294242Y0119970D01*
X0293591Y0118400D01*
X0293591Y0117379D02*
X0284555Y0117379D01*
X0285081Y0116380D02*
X0293724Y0116380D01*
X0294137Y0115382D02*
X0285187Y0115382D01*
X0284942Y0114383D02*
X0294989Y0114383D01*
X0295863Y0113385D02*
X0284218Y0113385D01*
X0282389Y0112386D02*
X0295863Y0112386D01*
X0295863Y0111388D02*
X0281390Y0111388D01*
X0280392Y0110389D02*
X0295863Y0110389D01*
X0295863Y0109391D02*
X0280100Y0109391D01*
X0280100Y0108392D02*
X0283616Y0108392D01*
X0284984Y0108392D02*
X0295863Y0108392D01*
X0295863Y0107394D02*
X0286540Y0107394D01*
X0287075Y0106395D02*
X0295863Y0106395D01*
X0295863Y0105397D02*
X0287187Y0105397D01*
X0286948Y0104398D02*
X0295863Y0104398D01*
X0295863Y0103400D02*
X0286300Y0103400D01*
X0286300Y0102401D02*
X0295863Y0102401D01*
X0295324Y0101403D02*
X0286300Y0101403D01*
X0286774Y0100404D02*
X0293071Y0100404D01*
X0292236Y0099406D02*
X0287773Y0099406D01*
X0288771Y0098407D02*
X0291913Y0098407D01*
X0291940Y0097409D02*
X0289300Y0097409D01*
X0289300Y0096410D02*
X0292356Y0096410D01*
X0293624Y0095412D02*
X0289300Y0095412D01*
X0289300Y0094413D02*
X0299900Y0094413D01*
X0299900Y0095412D02*
X0295976Y0095412D01*
X0297244Y0096410D02*
X0299900Y0096410D01*
X0299900Y0097409D02*
X0297660Y0097409D01*
X0297985Y0098407D02*
X0299900Y0098407D01*
X0299900Y0099406D02*
X0298984Y0099406D01*
X0297863Y0101113D02*
X0294800Y0098050D01*
X0297863Y0101113D02*
X0297863Y0117550D01*
X0301730Y0119376D02*
X0301870Y0119376D01*
X0302520Y0120374D02*
X0301080Y0120374D01*
X0299796Y0121373D02*
X0303804Y0121373D01*
X0307670Y0121373D02*
X0326400Y0121373D01*
X0326400Y0122371D02*
X0296450Y0122371D01*
X0295930Y0121373D02*
X0295451Y0121373D01*
X0294646Y0120374D02*
X0294453Y0120374D01*
X0293996Y0119376D02*
X0279058Y0119376D01*
X0276800Y0117550D02*
X0242300Y0083050D01*
X0203300Y0083050D01*
X0204530Y0080434D02*
X0269300Y0080434D01*
X0269300Y0081432D02*
X0243511Y0081432D01*
X0244509Y0082431D02*
X0269300Y0082431D01*
X0269300Y0083429D02*
X0245508Y0083429D01*
X0246506Y0084428D02*
X0269300Y0084428D01*
X0269300Y0085426D02*
X0247505Y0085426D01*
X0248503Y0086425D02*
X0269847Y0086425D01*
X0270845Y0087423D02*
X0249502Y0087423D01*
X0250500Y0088422D02*
X0271844Y0088422D01*
X0272842Y0089420D02*
X0251499Y0089420D01*
X0252497Y0090419D02*
X0273841Y0090419D01*
X0274839Y0091418D02*
X0253496Y0091418D01*
X0254494Y0092416D02*
X0275838Y0092416D01*
X0276800Y0090550D02*
X0271300Y0085050D01*
X0271300Y0078050D01*
X0270052Y0075441D02*
X0253687Y0075441D01*
X0253557Y0076440D02*
X0268842Y0076440D01*
X0268428Y0077438D02*
X0252995Y0077438D01*
X0251376Y0078437D02*
X0268413Y0078437D01*
X0268748Y0079435D02*
X0199461Y0079435D01*
X0199599Y0079101D02*
X0198412Y0081968D01*
X0196218Y0084162D01*
X0193351Y0085349D01*
X0190249Y0085349D01*
X0187382Y0084162D01*
X0185188Y0081968D01*
X0184001Y0079101D01*
X0184001Y0075999D01*
X0185188Y0073132D01*
X0187382Y0070938D01*
X0190249Y0069751D01*
X0193351Y0069751D01*
X0196218Y0070938D01*
X0198412Y0073132D01*
X0199599Y0075999D01*
X0199599Y0079101D01*
X0199599Y0078437D02*
X0242724Y0078437D01*
X0243876Y0078437D02*
X0250224Y0078437D01*
X0241105Y0077438D02*
X0199599Y0077438D01*
X0199599Y0076440D02*
X0240543Y0076440D01*
X0240412Y0075441D02*
X0199368Y0075441D01*
X0198955Y0074443D02*
X0240633Y0074443D01*
X0241322Y0073444D02*
X0198541Y0073444D01*
X0197726Y0072446D02*
X0316413Y0072446D01*
X0316631Y0071447D02*
X0255486Y0071447D01*
X0256346Y0070449D02*
X0272115Y0070449D01*
X0271548Y0069450D02*
X0256687Y0069450D01*
X0256678Y0068452D02*
X0271413Y0068452D01*
X0271629Y0067453D02*
X0256264Y0067453D01*
X0255080Y0066455D02*
X0272312Y0066455D01*
X0274300Y0068550D02*
X0288300Y0068550D01*
X0290485Y0070449D02*
X0317318Y0070449D01*
X0313300Y0076550D02*
X0313300Y0084550D01*
X0310639Y0083429D02*
X0287008Y0083429D01*
X0288006Y0084428D02*
X0310413Y0084428D01*
X0310538Y0085426D02*
X0289005Y0085426D01*
X0289300Y0086425D02*
X0311091Y0086425D01*
X0312692Y0087423D02*
X0289300Y0087423D01*
X0289300Y0088422D02*
X0321900Y0088422D01*
X0321900Y0089420D02*
X0289300Y0089420D01*
X0289300Y0090419D02*
X0321982Y0090419D01*
X0322981Y0091418D02*
X0311490Y0091418D01*
X0312749Y0092416D02*
X0323979Y0092416D01*
X0324978Y0093415D02*
X0313162Y0093415D01*
X0313187Y0094413D02*
X0325976Y0094413D01*
X0326400Y0095412D02*
X0312861Y0095412D01*
X0312023Y0096410D02*
X0326400Y0096410D01*
X0326400Y0097409D02*
X0308687Y0097409D01*
X0308570Y0098407D02*
X0326400Y0098407D01*
X0326400Y0099406D02*
X0308028Y0099406D01*
X0307800Y0100404D02*
X0326400Y0100404D01*
X0326400Y0101403D02*
X0307800Y0101403D01*
X0307800Y0102401D02*
X0326400Y0102401D01*
X0326400Y0103400D02*
X0307800Y0103400D01*
X0307800Y0104398D02*
X0326400Y0104398D01*
X0326400Y0105397D02*
X0307800Y0105397D01*
X0307800Y0106395D02*
X0326400Y0106395D01*
X0326400Y0107394D02*
X0307800Y0107394D01*
X0307800Y0108392D02*
X0326400Y0108392D01*
X0326400Y0109391D02*
X0307800Y0109391D01*
X0307800Y0110389D02*
X0326400Y0110389D01*
X0326400Y0111388D02*
X0307800Y0111388D01*
X0307800Y0112386D02*
X0326400Y0112386D01*
X0326400Y0113385D02*
X0307800Y0113385D01*
X0308611Y0114383D02*
X0326400Y0114383D01*
X0326400Y0115382D02*
X0309462Y0115382D01*
X0309876Y0116380D02*
X0326400Y0116380D01*
X0326400Y0117379D02*
X0310009Y0117379D01*
X0310009Y0118377D02*
X0326400Y0118377D01*
X0326400Y0119376D02*
X0309604Y0119376D01*
X0308954Y0120374D02*
X0326400Y0120374D01*
X0326400Y0123370D02*
X0297448Y0123370D01*
X0298447Y0124368D02*
X0326400Y0124368D01*
X0326400Y0125367D02*
X0299445Y0125367D01*
X0300444Y0126365D02*
X0326400Y0126365D01*
X0326400Y0127364D02*
X0301442Y0127364D01*
X0302441Y0128362D02*
X0326301Y0128362D01*
X0325302Y0129361D02*
X0304353Y0129361D01*
X0305693Y0130359D02*
X0324304Y0130359D01*
X0323305Y0131358D02*
X0306139Y0131358D01*
X0306187Y0132356D02*
X0322307Y0132356D01*
X0321308Y0133355D02*
X0305885Y0133355D01*
X0305080Y0134353D02*
X0320309Y0134353D01*
X0319400Y0135352D02*
X0282582Y0135352D01*
X0281084Y0136351D02*
X0319400Y0136351D01*
X0319400Y0137349D02*
X0278084Y0137349D01*
X0278427Y0138348D02*
X0319400Y0138348D01*
X0319400Y0139346D02*
X0278687Y0139346D01*
X0278596Y0140345D02*
X0319400Y0140345D01*
X0319906Y0141343D02*
X0278090Y0141343D01*
X0276606Y0142342D02*
X0320905Y0142342D01*
X0321903Y0143340D02*
X0251098Y0143340D01*
X0251187Y0143124D02*
X0250748Y0144186D01*
X0249936Y0144998D01*
X0248874Y0145437D01*
X0247726Y0145437D01*
X0246664Y0144998D01*
X0245852Y0144186D01*
X0245412Y0143124D01*
X0245412Y0142491D01*
X0239972Y0137050D01*
X0233384Y0137050D01*
X0232936Y0137498D01*
X0231874Y0137937D01*
X0230726Y0137937D01*
X0229664Y0137498D01*
X0228852Y0136686D01*
X0228412Y0135624D01*
X0228412Y0134476D01*
X0228852Y0133414D01*
X0229650Y0132616D01*
X0228874Y0132937D01*
X0227726Y0132937D01*
X0226664Y0132498D01*
X0225852Y0131686D01*
X0225412Y0130624D01*
X0225412Y0129476D01*
X0225852Y0128414D01*
X0226664Y0127602D01*
X0227726Y0127162D01*
X0228874Y0127162D01*
X0229936Y0127602D01*
X0230384Y0128050D01*
X0245716Y0128050D01*
X0246164Y0127602D01*
X0247226Y0127162D01*
X0248374Y0127162D01*
X0249436Y0127602D01*
X0250248Y0128414D01*
X0250687Y0129476D01*
X0250687Y0130624D01*
X0250248Y0131686D01*
X0249436Y0132498D01*
X0248374Y0132937D01*
X0247226Y0132937D01*
X0246164Y0132498D01*
X0245716Y0132050D01*
X0230384Y0132050D01*
X0229950Y0132484D01*
X0230726Y0132163D01*
X0231874Y0132163D01*
X0232936Y0132602D01*
X0233384Y0133050D01*
X0241628Y0133050D01*
X0248241Y0139663D01*
X0248874Y0139663D01*
X0249936Y0140102D01*
X0250748Y0140914D01*
X0251187Y0141976D01*
X0251187Y0143124D01*
X0251187Y0142342D02*
X0274994Y0142342D01*
X0273510Y0141343D02*
X0250925Y0141343D01*
X0250178Y0140345D02*
X0273004Y0140345D01*
X0272768Y0139346D02*
X0268595Y0139346D01*
X0267005Y0139346D02*
X0262595Y0139346D01*
X0261005Y0139346D02*
X0256595Y0139346D01*
X0255005Y0139346D02*
X0247924Y0139346D01*
X0246926Y0138348D02*
X0253514Y0138348D01*
X0253006Y0137349D02*
X0245927Y0137349D01*
X0244929Y0136351D02*
X0252912Y0136351D01*
X0253171Y0135352D02*
X0243930Y0135352D01*
X0242932Y0134353D02*
X0253800Y0134353D01*
X0253800Y0133355D02*
X0241933Y0133355D01*
X0240800Y0135050D02*
X0248300Y0142550D01*
X0249117Y0145337D02*
X0314929Y0145337D01*
X0314178Y0146336D02*
X0262792Y0146336D01*
X0262374Y0146163D02*
X0263436Y0146602D01*
X0264248Y0147414D01*
X0264687Y0148476D01*
X0264687Y0149624D01*
X0264248Y0150686D01*
X0263436Y0151498D01*
X0262374Y0151937D01*
X0261226Y0151937D01*
X0260164Y0151498D01*
X0259716Y0151050D01*
X0255384Y0151050D01*
X0254936Y0151498D01*
X0253874Y0151937D01*
X0252726Y0151937D01*
X0251664Y0151498D01*
X0250852Y0150686D01*
X0250412Y0149624D01*
X0250412Y0148476D01*
X0250852Y0147414D01*
X0251664Y0146602D01*
X0252726Y0146163D01*
X0253874Y0146163D01*
X0254936Y0146602D01*
X0255384Y0147050D01*
X0259716Y0147050D01*
X0260164Y0146602D01*
X0261226Y0146163D01*
X0262374Y0146163D01*
X0260808Y0146336D02*
X0254292Y0146336D01*
X0252308Y0146336D02*
X0237098Y0146336D01*
X0236936Y0146498D02*
X0235874Y0146937D01*
X0234726Y0146937D01*
X0233664Y0146498D01*
X0233516Y0146350D01*
X0217847Y0146350D01*
X0206935Y0135437D01*
X0206726Y0135437D01*
X0205664Y0134998D01*
X0204852Y0134186D01*
X0204412Y0133124D01*
X0204412Y0131976D01*
X0204852Y0130914D01*
X0205664Y0130102D01*
X0206726Y0129662D01*
X0207874Y0129662D01*
X0208936Y0130102D01*
X0209748Y0130914D01*
X0210187Y0131976D01*
X0210187Y0132185D01*
X0219753Y0141750D01*
X0233516Y0141750D01*
X0233664Y0141602D01*
X0234726Y0141163D01*
X0235874Y0141163D01*
X0236936Y0141602D01*
X0237748Y0142414D01*
X0238187Y0143476D01*
X0238187Y0144624D01*
X0237748Y0145686D01*
X0236936Y0146498D01*
X0237892Y0145337D02*
X0247483Y0145337D01*
X0246005Y0144339D02*
X0238187Y0144339D01*
X0238131Y0143340D02*
X0245502Y0143340D01*
X0245263Y0142342D02*
X0237675Y0142342D01*
X0236310Y0141343D02*
X0244265Y0141343D01*
X0243266Y0140345D02*
X0218347Y0140345D01*
X0219346Y0141343D02*
X0234290Y0141343D01*
X0233084Y0137349D02*
X0240271Y0137349D01*
X0241269Y0138348D02*
X0216350Y0138348D01*
X0217349Y0139346D02*
X0242268Y0139346D01*
X0240800Y0135050D02*
X0231300Y0135050D01*
X0232343Y0132356D02*
X0246023Y0132356D01*
X0247800Y0130050D02*
X0228300Y0130050D01*
X0229361Y0127364D02*
X0246739Y0127364D01*
X0247032Y0126365D02*
X0220813Y0126365D01*
X0219300Y0125050D02*
X0220300Y0124050D01*
X0248800Y0124050D01*
X0250568Y0126365D02*
X0252287Y0126365D01*
X0253286Y0127364D02*
X0248861Y0127364D01*
X0250196Y0128362D02*
X0253800Y0128362D01*
X0253800Y0129361D02*
X0250640Y0129361D01*
X0250687Y0130359D02*
X0253800Y0130359D01*
X0253800Y0131358D02*
X0250384Y0131358D01*
X0249577Y0132356D02*
X0253800Y0132356D01*
X0255800Y0136550D02*
X0255800Y0127050D01*
X0249300Y0120550D01*
X0220800Y0120550D01*
X0218300Y0123050D01*
X0210300Y0123050D01*
X0209300Y0124050D01*
X0207300Y0124050D01*
X0204412Y0124368D02*
X0204371Y0124368D01*
X0202229Y0124368D02*
X0158800Y0124368D01*
X0158800Y0124966D02*
X0159248Y0125414D01*
X0159687Y0126476D01*
X0159687Y0127624D01*
X0159248Y0128686D01*
X0158436Y0129498D01*
X0157374Y0129937D01*
X0156226Y0129937D01*
X0155164Y0129498D01*
X0154352Y0128686D01*
X0153913Y0127624D01*
X0153913Y0126476D01*
X0154352Y0125414D01*
X0154800Y0124966D01*
X0154800Y0090634D01*
X0154352Y0090186D01*
X0153913Y0089124D01*
X0153913Y0087976D01*
X0154352Y0086914D01*
X0155164Y0086102D01*
X0156226Y0085663D01*
X0157374Y0085663D01*
X0158436Y0086102D01*
X0159248Y0086914D01*
X0159687Y0087976D01*
X0159687Y0089124D01*
X0159248Y0090186D01*
X0158800Y0090634D01*
X0158800Y0124966D01*
X0159200Y0125367D02*
X0200900Y0125367D01*
X0200458Y0126365D02*
X0159642Y0126365D01*
X0159687Y0127364D02*
X0200412Y0127364D01*
X0200718Y0128362D02*
X0159382Y0128362D01*
X0158573Y0129361D02*
X0201527Y0129361D01*
X0203300Y0127050D02*
X0208800Y0127050D01*
X0211300Y0125050D01*
X0219300Y0125050D01*
X0225904Y0128362D02*
X0210361Y0128362D01*
X0211609Y0127364D02*
X0227239Y0127364D01*
X0225460Y0129361D02*
X0205073Y0129361D01*
X0205407Y0130359D02*
X0153800Y0130359D01*
X0153800Y0129361D02*
X0155027Y0129361D01*
X0154218Y0128362D02*
X0153800Y0128362D01*
X0153800Y0127364D02*
X0153913Y0127364D01*
X0153958Y0126365D02*
X0153800Y0126365D01*
X0153800Y0125367D02*
X0154400Y0125367D01*
X0154800Y0124368D02*
X0153800Y0124368D01*
X0153800Y0123370D02*
X0154800Y0123370D01*
X0154800Y0122371D02*
X0153800Y0122371D01*
X0153800Y0121373D02*
X0154800Y0121373D01*
X0154800Y0120374D02*
X0153800Y0120374D01*
X0153800Y0119376D02*
X0154800Y0119376D01*
X0154800Y0118377D02*
X0153800Y0118377D01*
X0153800Y0117379D02*
X0154800Y0117379D01*
X0154800Y0116380D02*
X0153800Y0116380D01*
X0153800Y0115382D02*
X0154800Y0115382D01*
X0154800Y0114383D02*
X0153800Y0114383D01*
X0153800Y0113385D02*
X0154800Y0113385D01*
X0154800Y0112386D02*
X0153800Y0112386D01*
X0153800Y0111388D02*
X0154800Y0111388D01*
X0154800Y0110389D02*
X0153800Y0110389D01*
X0153800Y0109391D02*
X0154800Y0109391D01*
X0154800Y0108392D02*
X0153800Y0108392D01*
X0153800Y0107394D02*
X0154800Y0107394D01*
X0154800Y0106395D02*
X0153800Y0106395D01*
X0153800Y0105397D02*
X0154800Y0105397D01*
X0154248Y0104686D02*
X0153800Y0105134D01*
X0153800Y0138966D01*
X0154248Y0139414D01*
X0154687Y0140476D01*
X0154687Y0141624D01*
X0154248Y0142686D01*
X0153436Y0143498D01*
X0152374Y0143937D01*
X0151226Y0143937D01*
X0150164Y0143498D01*
X0149352Y0142686D01*
X0148913Y0141624D01*
X0148913Y0140476D01*
X0149352Y0139414D01*
X0149800Y0138966D01*
X0149800Y0105134D01*
X0149352Y0104686D01*
X0148913Y0103624D01*
X0148913Y0102476D01*
X0149352Y0101414D01*
X0150164Y0100602D01*
X0151226Y0100162D01*
X0152374Y0100162D01*
X0153436Y0100602D01*
X0154248Y0101414D01*
X0154687Y0102476D01*
X0154687Y0103624D01*
X0154248Y0104686D01*
X0154367Y0104398D02*
X0154800Y0104398D01*
X0154800Y0103400D02*
X0154687Y0103400D01*
X0154657Y0102401D02*
X0154800Y0102401D01*
X0154800Y0101403D02*
X0154236Y0101403D01*
X0154800Y0100404D02*
X0152958Y0100404D01*
X0154800Y0099406D02*
X0148800Y0099406D01*
X0148800Y0100404D02*
X0150642Y0100404D01*
X0149364Y0101403D02*
X0148800Y0101403D01*
X0148800Y0102401D02*
X0148943Y0102401D01*
X0148913Y0103400D02*
X0148800Y0103400D01*
X0148800Y0104398D02*
X0149233Y0104398D01*
X0148800Y0105397D02*
X0149800Y0105397D01*
X0149800Y0106395D02*
X0148800Y0106395D01*
X0148800Y0106966D02*
X0149248Y0107414D01*
X0149687Y0108476D01*
X0149687Y0109624D01*
X0149248Y0110686D01*
X0148436Y0111498D01*
X0147374Y0111937D01*
X0146226Y0111937D01*
X0145164Y0111498D01*
X0144352Y0110686D01*
X0143913Y0109624D01*
X0143913Y0108476D01*
X0144352Y0107414D01*
X0144800Y0106966D01*
X0144800Y0090634D01*
X0144352Y0090186D01*
X0143913Y0089124D01*
X0143913Y0087976D01*
X0144352Y0086914D01*
X0145164Y0086102D01*
X0146226Y0085663D01*
X0147374Y0085663D01*
X0148436Y0086102D01*
X0149248Y0086914D01*
X0149687Y0087976D01*
X0149687Y0089124D01*
X0149248Y0090186D01*
X0148800Y0090634D01*
X0148800Y0106966D01*
X0149227Y0107394D02*
X0149800Y0107394D01*
X0149800Y0108392D02*
X0149653Y0108392D01*
X0149687Y0109391D02*
X0149800Y0109391D01*
X0149800Y0110389D02*
X0149371Y0110389D01*
X0149800Y0111388D02*
X0148546Y0111388D01*
X0149800Y0112386D02*
X0138800Y0112386D01*
X0138800Y0111388D02*
X0145054Y0111388D01*
X0144229Y0110389D02*
X0139371Y0110389D01*
X0139248Y0110686D02*
X0138800Y0111134D01*
X0138800Y0138966D01*
X0139248Y0139414D01*
X0139687Y0140476D01*
X0139687Y0141624D01*
X0139248Y0142686D01*
X0138436Y0143498D01*
X0137374Y0143937D01*
X0136226Y0143937D01*
X0135164Y0143498D01*
X0134352Y0142686D01*
X0134300Y0142560D01*
X0134248Y0142686D01*
X0133436Y0143498D01*
X0132374Y0143937D01*
X0131226Y0143937D01*
X0130164Y0143498D01*
X0129352Y0142686D01*
X0128912Y0141624D01*
X0128912Y0140476D01*
X0129352Y0139414D01*
X0129800Y0138966D01*
X0129800Y0111134D01*
X0129352Y0110686D01*
X0128912Y0109624D01*
X0128912Y0108476D01*
X0129352Y0107414D01*
X0130164Y0106602D01*
X0131226Y0106162D01*
X0132374Y0106162D01*
X0133436Y0106602D01*
X0134248Y0107414D01*
X0134300Y0107540D01*
X0134352Y0107414D01*
X0135164Y0106602D01*
X0136226Y0106162D01*
X0137374Y0106162D01*
X0138436Y0106602D01*
X0139248Y0107414D01*
X0139687Y0108476D01*
X0139687Y0109624D01*
X0139248Y0110686D01*
X0139687Y0109391D02*
X0143913Y0109391D01*
X0143947Y0108392D02*
X0139653Y0108392D01*
X0139227Y0107394D02*
X0144373Y0107394D01*
X0144800Y0106395D02*
X0137936Y0106395D01*
X0135664Y0106395D02*
X0132936Y0106395D01*
X0134227Y0107394D02*
X0134373Y0107394D01*
X0136800Y0109050D02*
X0136800Y0141050D01*
X0139390Y0142342D02*
X0149210Y0142342D01*
X0148913Y0141343D02*
X0139687Y0141343D01*
X0139633Y0140345D02*
X0148967Y0140345D01*
X0149420Y0139346D02*
X0139180Y0139346D01*
X0138800Y0138348D02*
X0149800Y0138348D01*
X0149800Y0137349D02*
X0138800Y0137349D01*
X0138800Y0136351D02*
X0149800Y0136351D01*
X0149800Y0135352D02*
X0138800Y0135352D01*
X0138800Y0134353D02*
X0149800Y0134353D01*
X0149800Y0133355D02*
X0138800Y0133355D01*
X0138800Y0132356D02*
X0149800Y0132356D01*
X0149800Y0131358D02*
X0138800Y0131358D01*
X0138800Y0130359D02*
X0149800Y0130359D01*
X0149800Y0129361D02*
X0138800Y0129361D01*
X0138800Y0128362D02*
X0149800Y0128362D01*
X0149800Y0127364D02*
X0138800Y0127364D01*
X0138800Y0126365D02*
X0149800Y0126365D01*
X0149800Y0125367D02*
X0138800Y0125367D01*
X0138800Y0124368D02*
X0149800Y0124368D01*
X0149800Y0123370D02*
X0138800Y0123370D01*
X0138800Y0122371D02*
X0149800Y0122371D01*
X0149800Y0121373D02*
X0138800Y0121373D01*
X0138800Y0120374D02*
X0149800Y0120374D01*
X0149800Y0119376D02*
X0138800Y0119376D01*
X0138800Y0118377D02*
X0149800Y0118377D01*
X0149800Y0117379D02*
X0138800Y0117379D01*
X0138800Y0116380D02*
X0149800Y0116380D01*
X0149800Y0115382D02*
X0138800Y0115382D01*
X0138800Y0114383D02*
X0149800Y0114383D01*
X0149800Y0113385D02*
X0138800Y0113385D01*
X0131800Y0109050D02*
X0131800Y0141050D01*
X0129210Y0142342D02*
X0124390Y0142342D01*
X0124248Y0142686D02*
X0123436Y0143498D01*
X0122374Y0143937D01*
X0121226Y0143937D01*
X0120164Y0143498D01*
X0119352Y0142686D01*
X0118912Y0141624D01*
X0118912Y0140476D01*
X0119352Y0139414D01*
X0119800Y0138966D01*
X0119800Y0111134D01*
X0119352Y0110686D01*
X0118912Y0109624D01*
X0118912Y0108476D01*
X0119352Y0107414D01*
X0120164Y0106602D01*
X0121226Y0106162D01*
X0122374Y0106162D01*
X0123436Y0106602D01*
X0124248Y0107414D01*
X0124687Y0108476D01*
X0124687Y0109624D01*
X0124248Y0110686D01*
X0123800Y0111134D01*
X0123800Y0138966D01*
X0124248Y0139414D01*
X0124687Y0140476D01*
X0124687Y0141624D01*
X0124248Y0142686D01*
X0123593Y0143340D02*
X0130007Y0143340D01*
X0128912Y0141343D02*
X0124687Y0141343D01*
X0124633Y0140345D02*
X0128967Y0140345D01*
X0129420Y0139346D02*
X0124180Y0139346D01*
X0123800Y0138348D02*
X0129800Y0138348D01*
X0129800Y0137349D02*
X0123800Y0137349D01*
X0123800Y0136351D02*
X0129800Y0136351D01*
X0129800Y0135352D02*
X0123800Y0135352D01*
X0123800Y0134353D02*
X0129800Y0134353D01*
X0129800Y0133355D02*
X0123800Y0133355D01*
X0123800Y0132356D02*
X0129800Y0132356D01*
X0129800Y0131358D02*
X0123800Y0131358D01*
X0123800Y0130359D02*
X0129800Y0130359D01*
X0129800Y0129361D02*
X0123800Y0129361D01*
X0123800Y0128362D02*
X0129800Y0128362D01*
X0129800Y0127364D02*
X0123800Y0127364D01*
X0123800Y0126365D02*
X0129800Y0126365D01*
X0129800Y0125367D02*
X0123800Y0125367D01*
X0123800Y0124368D02*
X0129800Y0124368D01*
X0129800Y0123370D02*
X0128564Y0123370D01*
X0128436Y0123498D02*
X0127374Y0123937D01*
X0126226Y0123937D01*
X0125164Y0123498D01*
X0124352Y0122686D01*
X0123912Y0121624D01*
X0123912Y0120476D01*
X0124352Y0119414D01*
X0124800Y0118966D01*
X0124800Y0099634D01*
X0124352Y0099186D01*
X0123912Y0098124D01*
X0123912Y0096976D01*
X0124352Y0095914D01*
X0125164Y0095102D01*
X0126226Y0094662D01*
X0127374Y0094662D01*
X0128436Y0095102D01*
X0129248Y0095914D01*
X0129687Y0096976D01*
X0129687Y0098124D01*
X0129248Y0099186D01*
X0128800Y0099634D01*
X0128800Y0118966D01*
X0129248Y0119414D01*
X0129687Y0120476D01*
X0129687Y0121624D01*
X0129248Y0122686D01*
X0128436Y0123498D01*
X0129378Y0122371D02*
X0129800Y0122371D01*
X0129800Y0121373D02*
X0129687Y0121373D01*
X0129646Y0120374D02*
X0129800Y0120374D01*
X0129800Y0119376D02*
X0129209Y0119376D01*
X0128800Y0118377D02*
X0129800Y0118377D01*
X0129800Y0117379D02*
X0128800Y0117379D01*
X0128800Y0116380D02*
X0129800Y0116380D01*
X0129800Y0115382D02*
X0128800Y0115382D01*
X0128800Y0114383D02*
X0129800Y0114383D01*
X0129800Y0113385D02*
X0128800Y0113385D01*
X0128800Y0112386D02*
X0129800Y0112386D01*
X0129800Y0111388D02*
X0128800Y0111388D01*
X0128800Y0110389D02*
X0129229Y0110389D01*
X0128912Y0109391D02*
X0128800Y0109391D01*
X0128800Y0108392D02*
X0128947Y0108392D01*
X0128800Y0107394D02*
X0129373Y0107394D01*
X0128800Y0106395D02*
X0130664Y0106395D01*
X0128800Y0105397D02*
X0144800Y0105397D01*
X0144800Y0104398D02*
X0128800Y0104398D01*
X0128800Y0103400D02*
X0144800Y0103400D01*
X0144800Y0102401D02*
X0128800Y0102401D01*
X0128800Y0101403D02*
X0144800Y0101403D01*
X0144800Y0100404D02*
X0128800Y0100404D01*
X0129028Y0099406D02*
X0144800Y0099406D01*
X0144800Y0098407D02*
X0129570Y0098407D01*
X0129687Y0097409D02*
X0144800Y0097409D01*
X0144800Y0096410D02*
X0129453Y0096410D01*
X0128745Y0095412D02*
X0144800Y0095412D01*
X0144800Y0094413D02*
X0003300Y0094413D01*
X0003300Y0093415D02*
X0144800Y0093415D01*
X0144800Y0092416D02*
X0003300Y0092416D01*
X0003300Y0091418D02*
X0144800Y0091418D01*
X0144585Y0090419D02*
X0003300Y0090419D01*
X0003300Y0089420D02*
X0144035Y0089420D01*
X0143913Y0088422D02*
X0003300Y0088422D01*
X0003300Y0087423D02*
X0144141Y0087423D01*
X0144841Y0086425D02*
X0003300Y0086425D01*
X0003300Y0085426D02*
X0201593Y0085426D01*
X0200745Y0084428D02*
X0195576Y0084428D01*
X0196950Y0083429D02*
X0200412Y0083429D01*
X0200431Y0082431D02*
X0197949Y0082431D01*
X0198634Y0081432D02*
X0200845Y0081432D01*
X0202070Y0080434D02*
X0199047Y0080434D01*
X0205007Y0085426D02*
X0220095Y0085426D01*
X0219097Y0086425D02*
X0178758Y0086425D01*
X0178436Y0086102D02*
X0179248Y0086914D01*
X0179687Y0087976D01*
X0179687Y0089124D01*
X0179248Y0090186D01*
X0178800Y0090634D01*
X0178800Y0109966D01*
X0179248Y0110414D01*
X0179687Y0111476D01*
X0179687Y0112624D01*
X0179248Y0113686D01*
X0178436Y0114498D01*
X0177374Y0114937D01*
X0176226Y0114937D01*
X0175164Y0114498D01*
X0174352Y0113686D01*
X0173912Y0112624D01*
X0173912Y0111476D01*
X0174352Y0110414D01*
X0174800Y0109966D01*
X0174800Y0090634D01*
X0174352Y0090186D01*
X0173912Y0089124D01*
X0173912Y0087976D01*
X0174352Y0086914D01*
X0175164Y0086102D01*
X0176226Y0085663D01*
X0177374Y0085663D01*
X0178436Y0086102D01*
X0179459Y0087423D02*
X0217096Y0087423D01*
X0215849Y0088422D02*
X0179687Y0088422D01*
X0179565Y0089420D02*
X0215435Y0089420D01*
X0215412Y0090419D02*
X0179015Y0090419D01*
X0178800Y0091418D02*
X0206110Y0091418D01*
X0204851Y0092416D02*
X0178800Y0092416D01*
X0178800Y0093415D02*
X0204438Y0093415D01*
X0204412Y0094413D02*
X0203979Y0094413D01*
X0201621Y0094413D02*
X0178800Y0094413D01*
X0178800Y0095412D02*
X0200355Y0095412D01*
X0199940Y0096410D02*
X0178800Y0096410D01*
X0178800Y0097409D02*
X0199912Y0097409D01*
X0200237Y0098407D02*
X0178800Y0098407D01*
X0178800Y0099406D02*
X0201072Y0099406D01*
X0201642Y0100404D02*
X0178800Y0100404D01*
X0178800Y0101403D02*
X0200364Y0101403D01*
X0199943Y0102401D02*
X0178800Y0102401D01*
X0178800Y0103400D02*
X0199912Y0103400D01*
X0200233Y0104398D02*
X0178800Y0104398D01*
X0178800Y0105397D02*
X0201063Y0105397D01*
X0201664Y0106395D02*
X0178800Y0106395D01*
X0178800Y0107394D02*
X0200373Y0107394D01*
X0199947Y0108392D02*
X0178800Y0108392D01*
X0178800Y0109391D02*
X0199912Y0109391D01*
X0200229Y0110389D02*
X0179223Y0110389D01*
X0179651Y0111388D02*
X0201054Y0111388D01*
X0201685Y0112386D02*
X0179687Y0112386D01*
X0179373Y0113385D02*
X0200382Y0113385D01*
X0199951Y0114383D02*
X0178550Y0114383D01*
X0176800Y0112050D02*
X0176800Y0088550D01*
X0174141Y0087423D02*
X0169459Y0087423D01*
X0169248Y0086914D02*
X0169687Y0087976D01*
X0169687Y0089124D01*
X0169248Y0090186D01*
X0168800Y0090634D01*
X0168800Y0106966D01*
X0169248Y0107414D01*
X0169687Y0108476D01*
X0169687Y0109624D01*
X0169248Y0110686D01*
X0168436Y0111498D01*
X0167374Y0111937D01*
X0166226Y0111937D01*
X0165164Y0111498D01*
X0164352Y0110686D01*
X0163913Y0109624D01*
X0163913Y0108476D01*
X0164352Y0107414D01*
X0164800Y0106966D01*
X0164800Y0090634D01*
X0164352Y0090186D01*
X0163913Y0089124D01*
X0163913Y0087976D01*
X0164352Y0086914D01*
X0165164Y0086102D01*
X0166226Y0085663D01*
X0167374Y0085663D01*
X0168436Y0086102D01*
X0169248Y0086914D01*
X0168758Y0086425D02*
X0174841Y0086425D01*
X0173912Y0088422D02*
X0169687Y0088422D01*
X0169565Y0089420D02*
X0174035Y0089420D01*
X0174585Y0090419D02*
X0169015Y0090419D01*
X0168800Y0091418D02*
X0174800Y0091418D01*
X0174800Y0092416D02*
X0168800Y0092416D01*
X0168800Y0093415D02*
X0174800Y0093415D01*
X0174800Y0094413D02*
X0168800Y0094413D01*
X0168800Y0095412D02*
X0174800Y0095412D01*
X0174800Y0096410D02*
X0168800Y0096410D01*
X0168800Y0097409D02*
X0174800Y0097409D01*
X0174800Y0098407D02*
X0168800Y0098407D01*
X0168800Y0099406D02*
X0174800Y0099406D01*
X0174800Y0100404D02*
X0168800Y0100404D01*
X0168800Y0101403D02*
X0174800Y0101403D01*
X0174800Y0102401D02*
X0168800Y0102401D01*
X0168800Y0103400D02*
X0174800Y0103400D01*
X0174800Y0104398D02*
X0168800Y0104398D01*
X0168800Y0105397D02*
X0174800Y0105397D01*
X0174800Y0106395D02*
X0168800Y0106395D01*
X0169227Y0107394D02*
X0174800Y0107394D01*
X0174800Y0108392D02*
X0169653Y0108392D01*
X0169687Y0109391D02*
X0174800Y0109391D01*
X0174377Y0110389D02*
X0169371Y0110389D01*
X0168546Y0111388D02*
X0173949Y0111388D01*
X0173912Y0112386D02*
X0158800Y0112386D01*
X0158800Y0111388D02*
X0165054Y0111388D01*
X0164229Y0110389D02*
X0158800Y0110389D01*
X0158800Y0109391D02*
X0163913Y0109391D01*
X0163947Y0108392D02*
X0158800Y0108392D01*
X0158800Y0107394D02*
X0164373Y0107394D01*
X0164800Y0106395D02*
X0158800Y0106395D01*
X0158800Y0105397D02*
X0164800Y0105397D01*
X0164800Y0104398D02*
X0158800Y0104398D01*
X0158800Y0103400D02*
X0164800Y0103400D01*
X0164800Y0102401D02*
X0158800Y0102401D01*
X0158800Y0101403D02*
X0164800Y0101403D01*
X0164800Y0100404D02*
X0158800Y0100404D01*
X0158800Y0099406D02*
X0164800Y0099406D01*
X0164800Y0098407D02*
X0158800Y0098407D01*
X0158800Y0097409D02*
X0164800Y0097409D01*
X0164800Y0096410D02*
X0158800Y0096410D01*
X0158800Y0095412D02*
X0164800Y0095412D01*
X0164800Y0094413D02*
X0158800Y0094413D01*
X0158800Y0093415D02*
X0164800Y0093415D01*
X0164800Y0092416D02*
X0158800Y0092416D01*
X0158800Y0091418D02*
X0164800Y0091418D01*
X0164585Y0090419D02*
X0159015Y0090419D01*
X0159565Y0089420D02*
X0164035Y0089420D01*
X0163913Y0088422D02*
X0159687Y0088422D01*
X0159459Y0087423D02*
X0164141Y0087423D01*
X0164841Y0086425D02*
X0158758Y0086425D01*
X0156800Y0088550D02*
X0156800Y0127050D01*
X0153800Y0131358D02*
X0204668Y0131358D01*
X0204412Y0132356D02*
X0153800Y0132356D01*
X0153800Y0133355D02*
X0204508Y0133355D01*
X0205020Y0134353D02*
X0153800Y0134353D01*
X0153800Y0135352D02*
X0206519Y0135352D01*
X0207848Y0136351D02*
X0153800Y0136351D01*
X0153800Y0137349D02*
X0208846Y0137349D01*
X0209845Y0138348D02*
X0153800Y0138348D01*
X0154180Y0139346D02*
X0210843Y0139346D01*
X0211842Y0140345D02*
X0194785Y0140345D01*
X0196218Y0140938D02*
X0198412Y0143132D01*
X0199599Y0145999D01*
X0199599Y0149101D01*
X0198412Y0151968D01*
X0196218Y0154162D01*
X0193351Y0155349D01*
X0190249Y0155349D01*
X0187382Y0154162D01*
X0185188Y0151968D01*
X0184001Y0149101D01*
X0184001Y0145999D01*
X0185188Y0143132D01*
X0187382Y0140938D01*
X0190249Y0139751D01*
X0193351Y0139751D01*
X0196218Y0140938D01*
X0196623Y0141343D02*
X0212840Y0141343D01*
X0213839Y0142342D02*
X0197621Y0142342D01*
X0198498Y0143340D02*
X0214837Y0143340D01*
X0215836Y0144339D02*
X0198912Y0144339D01*
X0199325Y0145337D02*
X0216834Y0145337D01*
X0217833Y0146336D02*
X0199599Y0146336D01*
X0199599Y0147334D02*
X0250932Y0147334D01*
X0250472Y0148333D02*
X0230166Y0148333D01*
X0230921Y0149331D02*
X0250412Y0149331D01*
X0250163Y0150330D02*
X0250705Y0150330D01*
X0250919Y0151328D02*
X0251495Y0151328D01*
X0251187Y0152327D02*
X0323390Y0152327D01*
X0324388Y0153325D02*
X0251104Y0153325D01*
X0250610Y0154324D02*
X0262943Y0154324D01*
X0264800Y0156550D02*
X0201800Y0156550D01*
X0195800Y0162550D01*
X0192300Y0162550D01*
X0189687Y0161313D02*
X0181916Y0161313D01*
X0182000Y0162312D02*
X0189412Y0162312D01*
X0189490Y0163310D02*
X0182000Y0163310D01*
X0181700Y0164309D02*
X0189975Y0164309D01*
X0191411Y0165307D02*
X0181286Y0165307D01*
X0181503Y0160315D02*
X0190452Y0160315D01*
X0194148Y0160315D02*
X0195207Y0160315D01*
X0196205Y0159316D02*
X0180920Y0159316D01*
X0179922Y0158318D02*
X0197204Y0158318D01*
X0198202Y0157319D02*
X0178874Y0157319D01*
X0180383Y0156321D02*
X0199201Y0156321D01*
X0200199Y0155322D02*
X0193416Y0155322D01*
X0195827Y0154324D02*
X0229245Y0154324D01*
X0227455Y0153325D02*
X0197055Y0153325D01*
X0198053Y0152327D02*
X0225993Y0152327D01*
X0225497Y0151328D02*
X0198677Y0151328D01*
X0199090Y0150330D02*
X0225412Y0150330D01*
X0225679Y0149331D02*
X0199504Y0149331D01*
X0199599Y0148333D02*
X0226434Y0148333D01*
X0228300Y0150550D02*
X0230300Y0152550D01*
X0248300Y0152550D01*
X0246216Y0154550D02*
X0246216Y0154550D01*
X0246437Y0150330D02*
X0231187Y0150330D01*
X0229515Y0137349D02*
X0215352Y0137349D01*
X0214353Y0136351D02*
X0228713Y0136351D01*
X0228412Y0135352D02*
X0213355Y0135352D01*
X0212356Y0134353D02*
X0228463Y0134353D01*
X0228911Y0133355D02*
X0211358Y0133355D01*
X0210359Y0132356D02*
X0226523Y0132356D01*
X0225716Y0131358D02*
X0209932Y0131358D01*
X0209193Y0130359D02*
X0225412Y0130359D01*
X0230077Y0132356D02*
X0230257Y0132356D01*
X0217800Y0121050D02*
X0220800Y0118050D01*
X0249300Y0118050D01*
X0261800Y0130550D01*
X0261800Y0136550D01*
X0264429Y0135352D02*
X0265171Y0135352D01*
X0265275Y0134353D02*
X0263800Y0134353D01*
X0263800Y0133355D02*
X0264277Y0133355D01*
X0264687Y0136351D02*
X0264913Y0136351D01*
X0265006Y0137349D02*
X0264594Y0137349D01*
X0264086Y0138348D02*
X0265514Y0138348D01*
X0267800Y0136550D02*
X0267800Y0134050D01*
X0248800Y0115050D01*
X0202800Y0115050D01*
X0203915Y0112386D02*
X0204412Y0112386D01*
X0207300Y0112050D02*
X0248300Y0112050D01*
X0275800Y0139550D01*
X0271769Y0138348D02*
X0270086Y0138348D01*
X0270594Y0137349D02*
X0270771Y0137349D01*
X0272800Y0134050D02*
X0275300Y0134050D01*
X0276300Y0135050D01*
X0278887Y0136351D02*
X0279516Y0136351D01*
X0280300Y0133550D02*
X0278800Y0132050D01*
X0273300Y0132050D01*
X0247300Y0106050D01*
X0207300Y0106050D01*
X0204412Y0106395D02*
X0203936Y0106395D01*
X0202800Y0109050D02*
X0247800Y0109050D01*
X0272800Y0134050D01*
X0273800Y0130050D02*
X0246800Y0103050D01*
X0202800Y0103050D01*
X0203958Y0100404D02*
X0204412Y0100404D01*
X0207300Y0100050D02*
X0246300Y0100050D01*
X0274300Y0128050D01*
X0285800Y0128050D01*
X0286800Y0129050D01*
X0289383Y0130359D02*
X0293526Y0130359D01*
X0293010Y0129361D02*
X0290559Y0129361D01*
X0292071Y0128362D02*
X0292784Y0128362D01*
X0295800Y0128550D02*
X0291300Y0124050D01*
X0275300Y0124050D01*
X0245300Y0094050D01*
X0207300Y0094050D01*
X0208490Y0091418D02*
X0215741Y0091418D01*
X0218300Y0090050D02*
X0221300Y0087050D01*
X0242300Y0087050D01*
X0277300Y0122050D01*
X0293300Y0122050D01*
X0303300Y0132050D01*
X0300715Y0133355D02*
X0286079Y0133355D01*
X0286591Y0132356D02*
X0300413Y0132356D01*
X0299780Y0131358D02*
X0296566Y0131358D01*
X0295034Y0131358D02*
X0288576Y0131358D01*
X0283800Y0131550D02*
X0282300Y0130050D01*
X0273800Y0130050D01*
X0274800Y0126050D02*
X0245800Y0097050D01*
X0202800Y0097050D01*
X0220384Y0092050D02*
X0244472Y0092050D01*
X0241472Y0089050D01*
X0222128Y0089050D01*
X0221187Y0089991D01*
X0221187Y0090624D01*
X0220748Y0091686D01*
X0220384Y0092050D01*
X0220859Y0091418D02*
X0243839Y0091418D01*
X0242841Y0090419D02*
X0221187Y0090419D01*
X0221758Y0089420D02*
X0241842Y0089420D01*
X0241114Y0071447D02*
X0234986Y0071447D01*
X0234936Y0071498D02*
X0233874Y0071937D01*
X0232726Y0071937D01*
X0231664Y0071498D01*
X0231116Y0070950D01*
X0200513Y0070950D01*
X0195000Y0065437D01*
X0194226Y0065437D01*
X0193164Y0064998D01*
X0192352Y0064186D01*
X0191912Y0063124D01*
X0191912Y0061976D01*
X0192352Y0060914D01*
X0193164Y0060102D01*
X0194226Y0059662D01*
X0195374Y0059662D01*
X0196436Y0060102D01*
X0197248Y0060914D01*
X0197687Y0061976D01*
X0197687Y0062750D01*
X0202087Y0067150D01*
X0231116Y0067150D01*
X0231664Y0066602D01*
X0232726Y0066163D01*
X0233874Y0066163D01*
X0234936Y0066602D01*
X0235748Y0067414D01*
X0236187Y0068476D01*
X0236187Y0069624D01*
X0235748Y0070686D01*
X0234936Y0071498D01*
X0235846Y0070449D02*
X0240254Y0070449D01*
X0239912Y0069450D02*
X0236187Y0069450D01*
X0236178Y0068452D02*
X0239922Y0068452D01*
X0240336Y0067453D02*
X0235764Y0067453D01*
X0234580Y0066455D02*
X0241520Y0066455D01*
X0244080Y0066455D02*
X0252520Y0066455D01*
X0255974Y0063459D02*
X0282126Y0063459D01*
X0281913Y0064458D02*
X0199395Y0064458D01*
X0200393Y0065456D02*
X0282050Y0065456D01*
X0282621Y0066455D02*
X0276288Y0066455D01*
X0282800Y0062461D02*
X0256548Y0062461D01*
X0256687Y0061462D02*
X0282800Y0061462D01*
X0282800Y0060464D02*
X0256475Y0060464D01*
X0255799Y0059465D02*
X0282800Y0059465D01*
X0282800Y0058467D02*
X0253687Y0058467D01*
X0253477Y0057468D02*
X0282800Y0057468D01*
X0282800Y0056470D02*
X0252803Y0056470D01*
X0266352Y0048686D02*
X0265913Y0047624D01*
X0265913Y0046476D01*
X0266352Y0045414D01*
X0266800Y0044966D01*
X0266800Y0039634D01*
X0266352Y0039186D01*
X0265913Y0038124D01*
X0265913Y0036976D01*
X0266352Y0035914D01*
X0267164Y0035102D01*
X0268226Y0034663D01*
X0269374Y0034663D01*
X0270436Y0035102D01*
X0271248Y0035914D01*
X0271687Y0036976D01*
X0271687Y0038124D01*
X0271248Y0039186D01*
X0270800Y0039634D01*
X0270800Y0044966D01*
X0271248Y0045414D01*
X0271687Y0046476D01*
X0271687Y0047624D01*
X0271248Y0048686D01*
X0270436Y0049498D01*
X0269374Y0049937D01*
X0268226Y0049937D01*
X0267164Y0049498D01*
X0266352Y0048686D01*
X0266268Y0048482D02*
X0227990Y0048482D01*
X0228300Y0047483D02*
X0265913Y0047483D01*
X0265913Y0046484D02*
X0228300Y0046484D01*
X0228300Y0045486D02*
X0266322Y0045486D01*
X0266800Y0044487D02*
X0228300Y0044487D01*
X0228300Y0043489D02*
X0266800Y0043489D01*
X0266800Y0042490D02*
X0228300Y0042490D01*
X0228300Y0041492D02*
X0266800Y0041492D01*
X0266800Y0040493D02*
X0228300Y0040493D01*
X0228300Y0039495D02*
X0266661Y0039495D01*
X0266067Y0038496D02*
X0228300Y0038496D01*
X0228300Y0037498D02*
X0265913Y0037498D01*
X0266110Y0036499D02*
X0228300Y0036499D01*
X0228300Y0035501D02*
X0266766Y0035501D01*
X0268800Y0037550D02*
X0268800Y0047050D01*
X0271332Y0048482D02*
X0282800Y0048482D01*
X0282800Y0049480D02*
X0270453Y0049480D01*
X0271687Y0047483D02*
X0282800Y0047483D01*
X0282800Y0046484D02*
X0271687Y0046484D01*
X0271278Y0045486D02*
X0282800Y0045486D01*
X0282800Y0044487D02*
X0270800Y0044487D01*
X0270800Y0043489D02*
X0282800Y0043489D01*
X0282800Y0042490D02*
X0270800Y0042490D01*
X0270800Y0041492D02*
X0282800Y0041492D01*
X0282800Y0040493D02*
X0270800Y0040493D01*
X0270939Y0039495D02*
X0282800Y0039495D01*
X0282800Y0038496D02*
X0271533Y0038496D01*
X0271687Y0037498D02*
X0282800Y0037498D01*
X0282800Y0036499D02*
X0271490Y0036499D01*
X0270834Y0035501D02*
X0282800Y0035501D01*
X0282800Y0034502D02*
X0228300Y0034502D01*
X0228300Y0033504D02*
X0282670Y0033504D01*
X0282070Y0032505D02*
X0228300Y0032505D01*
X0228300Y0031507D02*
X0281913Y0031507D01*
X0282106Y0030508D02*
X0228300Y0030508D01*
X0228300Y0029510D02*
X0282757Y0029510D01*
X0284800Y0031550D02*
X0284800Y0064550D01*
X0282800Y0055471D02*
X0219555Y0055471D01*
X0220006Y0054473D02*
X0282800Y0054473D01*
X0282800Y0053474D02*
X0220387Y0053474D01*
X0220387Y0052476D02*
X0282800Y0052476D01*
X0282800Y0051477D02*
X0220358Y0051477D01*
X0219944Y0050479D02*
X0282800Y0050479D01*
X0286800Y0047483D02*
X0335300Y0047483D01*
X0335300Y0046484D02*
X0286800Y0046484D01*
X0286800Y0045486D02*
X0335300Y0045486D01*
X0335300Y0044487D02*
X0286800Y0044487D01*
X0286800Y0043489D02*
X0335300Y0043489D01*
X0335300Y0042490D02*
X0286800Y0042490D01*
X0286800Y0041492D02*
X0335300Y0041492D01*
X0335300Y0040493D02*
X0286800Y0040493D01*
X0286800Y0039495D02*
X0335300Y0039495D01*
X0335300Y0038496D02*
X0286800Y0038496D01*
X0286800Y0037498D02*
X0335300Y0037498D01*
X0335300Y0036499D02*
X0286800Y0036499D01*
X0286800Y0035501D02*
X0335300Y0035501D01*
X0335300Y0034502D02*
X0286800Y0034502D01*
X0286930Y0033504D02*
X0335300Y0033504D01*
X0335300Y0032505D02*
X0287530Y0032505D01*
X0287687Y0031507D02*
X0335300Y0031507D01*
X0335300Y0030508D02*
X0287494Y0030508D01*
X0286843Y0029510D02*
X0335300Y0029510D01*
X0335300Y0028511D02*
X0228300Y0028511D01*
X0228300Y0027513D02*
X0335300Y0027513D01*
X0335300Y0026514D02*
X0228300Y0026514D01*
X0228300Y0025516D02*
X0335300Y0025516D01*
X0335300Y0024517D02*
X0228300Y0024517D01*
X0228300Y0023519D02*
X0335300Y0023519D01*
X0335300Y0022520D02*
X0228300Y0022520D01*
X0228300Y0021522D02*
X0335300Y0021522D01*
X0335300Y0020523D02*
X0228300Y0020523D01*
X0228300Y0019525D02*
X0270229Y0019525D01*
X0269286Y0018526D02*
X0228300Y0018526D01*
X0228300Y0017528D02*
X0268913Y0017528D01*
X0268913Y0016529D02*
X0228300Y0016529D01*
X0228300Y0015531D02*
X0269304Y0015531D01*
X0269900Y0014532D02*
X0228300Y0014532D01*
X0228300Y0013534D02*
X0269900Y0013534D01*
X0269900Y0012535D02*
X0228300Y0012535D01*
X0228300Y0011537D02*
X0258203Y0011537D01*
X0257584Y0010538D02*
X0228300Y0010538D01*
X0228300Y0009540D02*
X0257412Y0009540D01*
X0257592Y0008541D02*
X0228300Y0008541D01*
X0228300Y0007543D02*
X0228772Y0007543D01*
X0262397Y0011537D02*
X0265203Y0011537D01*
X0269397Y0011537D02*
X0269900Y0011537D01*
X0273700Y0011537D02*
X0318468Y0011537D01*
X0319467Y0012535D02*
X0273700Y0012535D01*
X0273700Y0013534D02*
X0320465Y0013534D01*
X0321464Y0014532D02*
X0273700Y0014532D01*
X0274296Y0015531D02*
X0322462Y0015531D01*
X0323196Y0016529D02*
X0274687Y0016529D01*
X0274687Y0017528D02*
X0335300Y0017528D01*
X0335300Y0018526D02*
X0274314Y0018526D01*
X0273371Y0019525D02*
X0335300Y0019525D01*
X0335300Y0016529D02*
X0327404Y0016529D01*
X0328019Y0015531D02*
X0335300Y0015531D01*
X0335300Y0014532D02*
X0328187Y0014532D01*
X0328004Y0013534D02*
X0335300Y0013534D01*
X0335300Y0012535D02*
X0327369Y0012535D01*
X0326105Y0011537D02*
X0335300Y0011537D01*
X0335300Y0010538D02*
X0325106Y0010538D01*
X0324108Y0009540D02*
X0335300Y0009540D01*
X0335300Y0008541D02*
X0323109Y0008541D01*
X0322111Y0007543D02*
X0335300Y0007543D01*
X0335300Y0006544D02*
X0321112Y0006544D01*
X0320114Y0005546D02*
X0335300Y0005546D01*
X0335300Y0004547D02*
X0319115Y0004547D01*
X0315473Y0008541D02*
X0274687Y0008541D01*
X0274687Y0009540D02*
X0316471Y0009540D01*
X0317470Y0010538D02*
X0274309Y0010538D01*
X0267146Y0049480D02*
X0219406Y0049480D01*
X0200957Y0063459D02*
X0198396Y0063459D01*
X0197687Y0062461D02*
X0199958Y0062461D01*
X0198959Y0061462D02*
X0197475Y0061462D01*
X0197961Y0060464D02*
X0196797Y0060464D01*
X0196962Y0059465D02*
X0181069Y0059465D01*
X0181564Y0060464D02*
X0192803Y0060464D01*
X0192125Y0061462D02*
X0181978Y0061462D01*
X0182000Y0062461D02*
X0191912Y0062461D01*
X0192051Y0063459D02*
X0182000Y0063459D01*
X0181638Y0064458D02*
X0192624Y0064458D01*
X0195019Y0065456D02*
X0181225Y0065456D01*
X0180249Y0066455D02*
X0196018Y0066455D01*
X0197016Y0067453D02*
X0178551Y0067453D01*
X0180056Y0068452D02*
X0198015Y0068452D01*
X0199013Y0069450D02*
X0181054Y0069450D01*
X0181558Y0070449D02*
X0188564Y0070449D01*
X0186873Y0071447D02*
X0181972Y0071447D01*
X0182000Y0072446D02*
X0185874Y0072446D01*
X0185059Y0073444D02*
X0182000Y0073444D01*
X0181644Y0074443D02*
X0184645Y0074443D01*
X0184232Y0075441D02*
X0181231Y0075441D01*
X0180264Y0076440D02*
X0184001Y0076440D01*
X0184001Y0077438D02*
X0178587Y0077438D01*
X0175013Y0077438D02*
X0168587Y0077438D01*
X0170264Y0076440D02*
X0173336Y0076440D01*
X0172369Y0075441D02*
X0171231Y0075441D01*
X0171644Y0074443D02*
X0171956Y0074443D01*
X0165013Y0077438D02*
X0158587Y0077438D01*
X0160264Y0076440D02*
X0163336Y0076440D01*
X0162369Y0075441D02*
X0161231Y0075441D01*
X0161644Y0074443D02*
X0161956Y0074443D01*
X0155013Y0077438D02*
X0148587Y0077438D01*
X0150264Y0076440D02*
X0153336Y0076440D01*
X0152369Y0075441D02*
X0151231Y0075441D01*
X0151644Y0074443D02*
X0151956Y0074443D01*
X0145013Y0077438D02*
X0138587Y0077438D01*
X0140264Y0076440D02*
X0143336Y0076440D01*
X0142369Y0075441D02*
X0141231Y0075441D01*
X0141644Y0074443D02*
X0141956Y0074443D01*
X0135013Y0077438D02*
X0128587Y0077438D01*
X0130264Y0076440D02*
X0133336Y0076440D01*
X0132369Y0075441D02*
X0131231Y0075441D01*
X0131644Y0074443D02*
X0131956Y0074443D01*
X0125013Y0077438D02*
X0118587Y0077438D01*
X0120264Y0076440D02*
X0123336Y0076440D01*
X0122369Y0075441D02*
X0121231Y0075441D01*
X0121644Y0074443D02*
X0121956Y0074443D01*
X0115013Y0077438D02*
X0108587Y0077438D01*
X0110264Y0076440D02*
X0113336Y0076440D01*
X0112369Y0075441D02*
X0111231Y0075441D01*
X0111644Y0074443D02*
X0111956Y0074443D01*
X0105013Y0077438D02*
X0098587Y0077438D01*
X0100264Y0076440D02*
X0103336Y0076440D01*
X0102369Y0075441D02*
X0101231Y0075441D01*
X0101644Y0074443D02*
X0101956Y0074443D01*
X0095013Y0077438D02*
X0088587Y0077438D01*
X0090264Y0076440D02*
X0093336Y0076440D01*
X0092369Y0075441D02*
X0091231Y0075441D01*
X0091644Y0074443D02*
X0091956Y0074443D01*
X0085013Y0077438D02*
X0078587Y0077438D01*
X0080264Y0076440D02*
X0083336Y0076440D01*
X0082369Y0075441D02*
X0081231Y0075441D01*
X0081644Y0074443D02*
X0081956Y0074443D01*
X0075013Y0077438D02*
X0068587Y0077438D01*
X0070264Y0076440D02*
X0073336Y0076440D01*
X0072369Y0075441D02*
X0071231Y0075441D01*
X0071644Y0074443D02*
X0071956Y0074443D01*
X0065013Y0077438D02*
X0019599Y0077438D01*
X0019599Y0076440D02*
X0063336Y0076440D01*
X0062369Y0075441D02*
X0019368Y0075441D01*
X0019599Y0075999D02*
X0018412Y0073132D01*
X0016218Y0070938D01*
X0013351Y0069751D01*
X0010249Y0069751D01*
X0007382Y0070938D01*
X0005188Y0073132D01*
X0004001Y0075999D01*
X0004001Y0079101D01*
X0005188Y0081968D01*
X0007382Y0084162D01*
X0010249Y0085349D01*
X0013351Y0085349D01*
X0016218Y0084162D01*
X0018412Y0081968D01*
X0019599Y0079101D01*
X0019599Y0075999D01*
X0018955Y0074443D02*
X0061956Y0074443D01*
X0061600Y0073444D02*
X0018541Y0073444D01*
X0017726Y0072446D02*
X0061600Y0072446D01*
X0061628Y0071447D02*
X0016727Y0071447D01*
X0015036Y0070449D02*
X0062042Y0070449D01*
X0062546Y0069450D02*
X0003300Y0069450D01*
X0003300Y0068452D02*
X0063544Y0068452D01*
X0064500Y0067453D02*
X0003300Y0067453D01*
X0003300Y0066455D02*
X0063351Y0066455D01*
X0062375Y0065456D02*
X0003300Y0065456D01*
X0003300Y0064458D02*
X0061962Y0064458D01*
X0061600Y0063459D02*
X0003300Y0063459D01*
X0003300Y0062461D02*
X0061600Y0062461D01*
X0061622Y0061462D02*
X0003300Y0061462D01*
X0003300Y0060464D02*
X0062036Y0060464D01*
X0062531Y0059465D02*
X0003300Y0059465D01*
X0003300Y0058467D02*
X0063529Y0058467D01*
X0064500Y0057468D02*
X0040527Y0057468D01*
X0040524Y0057469D02*
X0039740Y0057593D01*
X0036300Y0057593D01*
X0036300Y0053050D01*
X0044370Y0053050D01*
X0044262Y0053731D01*
X0044017Y0054486D01*
X0043657Y0055193D01*
X0043190Y0055835D01*
X0042629Y0056397D01*
X0041987Y0056863D01*
X0041279Y0057224D01*
X0040524Y0057469D01*
X0042529Y0056470D02*
X0064500Y0056470D01*
X0064500Y0055471D02*
X0043455Y0055471D01*
X0044021Y0054473D02*
X0064500Y0054473D01*
X0064500Y0053474D02*
X0044303Y0053474D01*
X0044280Y0051477D02*
X0065620Y0051477D01*
X0064622Y0052476D02*
X0036300Y0052476D01*
X0036300Y0053474D02*
X0035300Y0053474D01*
X0035300Y0052476D02*
X0003300Y0052476D01*
X0003300Y0053474D02*
X0027297Y0053474D01*
X0027579Y0054473D02*
X0003300Y0054473D01*
X0003300Y0055471D02*
X0028145Y0055471D01*
X0029071Y0056470D02*
X0003300Y0056470D01*
X0003300Y0057468D02*
X0031073Y0057468D01*
X0035300Y0057468D02*
X0036300Y0057468D01*
X0036300Y0056470D02*
X0035300Y0056470D01*
X0035300Y0055471D02*
X0036300Y0055471D01*
X0036300Y0054473D02*
X0035300Y0054473D01*
X0027320Y0051477D02*
X0003300Y0051477D01*
X0003300Y0050479D02*
X0027652Y0050479D01*
X0028253Y0049480D02*
X0003300Y0049480D01*
X0003300Y0070449D02*
X0008564Y0070449D01*
X0006873Y0071447D02*
X0003300Y0071447D01*
X0003300Y0072446D02*
X0005874Y0072446D01*
X0005059Y0073444D02*
X0003300Y0073444D01*
X0003300Y0074443D02*
X0004645Y0074443D01*
X0004232Y0075441D02*
X0003300Y0075441D01*
X0003300Y0076440D02*
X0004001Y0076440D01*
X0004001Y0077438D02*
X0003300Y0077438D01*
X0003300Y0078437D02*
X0004001Y0078437D01*
X0004139Y0079435D02*
X0003300Y0079435D01*
X0003300Y0080434D02*
X0004553Y0080434D01*
X0004966Y0081432D02*
X0003300Y0081432D01*
X0003300Y0082431D02*
X0005651Y0082431D01*
X0006650Y0083429D02*
X0003300Y0083429D01*
X0003300Y0084428D02*
X0008024Y0084428D01*
X0015576Y0084428D02*
X0188024Y0084428D01*
X0186650Y0083429D02*
X0016950Y0083429D01*
X0017949Y0082431D02*
X0185651Y0082431D01*
X0184966Y0081432D02*
X0018634Y0081432D01*
X0019047Y0080434D02*
X0184553Y0080434D01*
X0184139Y0079435D02*
X0019461Y0079435D01*
X0019599Y0078437D02*
X0184001Y0078437D01*
X0195036Y0070449D02*
X0200012Y0070449D01*
X0196727Y0071447D02*
X0231614Y0071447D01*
X0232020Y0066455D02*
X0201392Y0066455D01*
X0195964Y0058467D02*
X0180071Y0058467D01*
X0178120Y0057468D02*
X0194965Y0057468D01*
X0193967Y0056470D02*
X0090633Y0056470D01*
X0089635Y0057468D02*
X0095480Y0057468D01*
X0093529Y0058467D02*
X0090071Y0058467D01*
X0091069Y0059465D02*
X0092531Y0059465D01*
X0092036Y0060464D02*
X0091564Y0060464D01*
X0098120Y0057468D02*
X0105480Y0057468D01*
X0103529Y0058467D02*
X0100071Y0058467D01*
X0101069Y0059465D02*
X0102531Y0059465D01*
X0102036Y0060464D02*
X0101564Y0060464D01*
X0108120Y0057468D02*
X0115480Y0057468D01*
X0113529Y0058467D02*
X0110071Y0058467D01*
X0111069Y0059465D02*
X0112531Y0059465D01*
X0112036Y0060464D02*
X0111564Y0060464D01*
X0118120Y0057468D02*
X0125480Y0057468D01*
X0123529Y0058467D02*
X0120071Y0058467D01*
X0121069Y0059465D02*
X0122531Y0059465D01*
X0122036Y0060464D02*
X0121564Y0060464D01*
X0128120Y0057468D02*
X0135480Y0057468D01*
X0133529Y0058467D02*
X0130071Y0058467D01*
X0131069Y0059465D02*
X0132531Y0059465D01*
X0132036Y0060464D02*
X0131564Y0060464D01*
X0138120Y0057468D02*
X0145480Y0057468D01*
X0143529Y0058467D02*
X0140071Y0058467D01*
X0141069Y0059465D02*
X0142531Y0059465D01*
X0142036Y0060464D02*
X0141564Y0060464D01*
X0148120Y0057468D02*
X0155480Y0057468D01*
X0153529Y0058467D02*
X0150071Y0058467D01*
X0151069Y0059465D02*
X0152531Y0059465D01*
X0152036Y0060464D02*
X0151564Y0060464D01*
X0158120Y0057468D02*
X0165480Y0057468D01*
X0163529Y0058467D02*
X0160071Y0058467D01*
X0161069Y0059465D02*
X0162531Y0059465D01*
X0162036Y0060464D02*
X0161564Y0060464D01*
X0168120Y0057468D02*
X0175480Y0057468D01*
X0173529Y0058467D02*
X0170071Y0058467D01*
X0171069Y0059465D02*
X0172531Y0059465D01*
X0172036Y0060464D02*
X0171564Y0060464D01*
X0154841Y0086425D02*
X0148758Y0086425D01*
X0149459Y0087423D02*
X0154141Y0087423D01*
X0153913Y0088422D02*
X0149687Y0088422D01*
X0149565Y0089420D02*
X0154035Y0089420D01*
X0154585Y0090419D02*
X0149015Y0090419D01*
X0148800Y0091418D02*
X0154800Y0091418D01*
X0154800Y0092416D02*
X0148800Y0092416D01*
X0148800Y0093415D02*
X0154800Y0093415D01*
X0154800Y0094413D02*
X0148800Y0094413D01*
X0148800Y0095412D02*
X0154800Y0095412D01*
X0154800Y0096410D02*
X0148800Y0096410D01*
X0148800Y0097409D02*
X0154800Y0097409D01*
X0154800Y0098407D02*
X0148800Y0098407D01*
X0151800Y0103050D02*
X0151800Y0141050D01*
X0154390Y0142342D02*
X0185979Y0142342D01*
X0185102Y0143340D02*
X0153593Y0143340D01*
X0154687Y0141343D02*
X0186977Y0141343D01*
X0188815Y0140345D02*
X0154633Y0140345D01*
X0150007Y0143340D02*
X0138593Y0143340D01*
X0135007Y0143340D02*
X0133593Y0143340D01*
X0133663Y0148333D02*
X0129937Y0148333D01*
X0130935Y0149331D02*
X0132665Y0149331D01*
X0132091Y0150330D02*
X0131509Y0150330D01*
X0123663Y0148333D02*
X0119937Y0148333D01*
X0120935Y0149331D02*
X0122665Y0149331D01*
X0122091Y0150330D02*
X0121509Y0150330D01*
X0116800Y0152550D02*
X0116800Y0162550D01*
X0108800Y0168050D02*
X0106800Y0166050D01*
X0106800Y0162550D01*
X0108800Y0168050D02*
X0193300Y0168050D01*
X0202300Y0159050D01*
X0256300Y0159050D01*
X0263800Y0166550D01*
X0266411Y0165307D02*
X0320420Y0165307D01*
X0320701Y0165027D02*
X0321795Y0164574D01*
X0322979Y0164574D01*
X0324073Y0165027D01*
X0324910Y0165864D01*
X0325363Y0166958D01*
X0325363Y0168142D01*
X0324910Y0169236D01*
X0324073Y0170073D01*
X0322979Y0170526D01*
X0321795Y0170526D01*
X0320701Y0170073D01*
X0319863Y0169236D01*
X0319410Y0168142D01*
X0319410Y0166958D01*
X0319863Y0165864D01*
X0320701Y0165027D01*
X0319680Y0166306D02*
X0266687Y0166306D01*
X0266613Y0167304D02*
X0272383Y0167304D01*
X0270964Y0168303D02*
X0266131Y0168303D01*
X0264703Y0169301D02*
X0270485Y0169301D01*
X0270222Y0170300D02*
X0253300Y0170300D01*
X0253300Y0169301D02*
X0253897Y0169301D01*
X0255703Y0169301D02*
X0258397Y0169301D01*
X0260203Y0169301D02*
X0262897Y0169301D01*
X0259300Y0166550D02*
X0253800Y0161050D01*
X0203300Y0161050D01*
X0194300Y0170050D01*
X0104300Y0170050D01*
X0101800Y0167550D01*
X0085800Y0172050D02*
X0195300Y0172050D01*
X0204300Y0163050D01*
X0251300Y0163050D01*
X0254800Y0166550D01*
X0251300Y0166550D02*
X0251300Y0171050D01*
X0249800Y0172550D01*
X0247800Y0172550D01*
X0245193Y0171298D02*
X0220284Y0171298D01*
X0220387Y0172297D02*
X0244912Y0172297D01*
X0244983Y0173295D02*
X0220387Y0173295D01*
X0220080Y0174294D02*
X0245460Y0174294D01*
X0245974Y0175292D02*
X0219666Y0175292D01*
X0219870Y0170300D02*
X0245967Y0170300D01*
X0247800Y0167550D02*
X0205800Y0167550D01*
X0197300Y0176050D01*
X0072300Y0176050D01*
X0066800Y0170550D01*
X0066800Y0162550D01*
X0063202Y0166306D02*
X0060398Y0166306D01*
X0060188Y0166516D02*
X0059525Y0166997D01*
X0058796Y0167369D01*
X0058018Y0167622D01*
X0057300Y0167736D01*
X0057300Y0163050D01*
X0056300Y0163050D01*
X0056300Y0167736D01*
X0055582Y0167622D01*
X0054804Y0167369D01*
X0054075Y0166997D01*
X0053412Y0166516D01*
X0052834Y0165938D01*
X0052353Y0165275D01*
X0051981Y0164546D01*
X0051814Y0164033D01*
X0051208Y0165496D01*
X0049746Y0166958D01*
X0047834Y0167750D01*
X0045766Y0167750D01*
X0043854Y0166958D01*
X0042392Y0165496D01*
X0041800Y0164067D01*
X0041208Y0165496D01*
X0039746Y0166958D01*
X0038422Y0167507D01*
X0039740Y0167507D01*
X0040524Y0167631D01*
X0041279Y0167876D01*
X0041987Y0168237D01*
X0042629Y0168703D01*
X0043190Y0169265D01*
X0043657Y0169907D01*
X0044017Y0170614D01*
X0044262Y0171369D01*
X0044370Y0172050D01*
X0036300Y0172050D01*
X0036300Y0173050D01*
X0044370Y0173050D01*
X0044262Y0173731D01*
X0044017Y0174486D01*
X0043657Y0175193D01*
X0043190Y0175835D01*
X0042976Y0176050D01*
X0069472Y0176050D01*
X0064800Y0171378D01*
X0064800Y0169722D01*
X0064800Y0167350D01*
X0063854Y0166958D01*
X0062392Y0165496D01*
X0061786Y0164033D01*
X0061619Y0164546D01*
X0061247Y0165275D01*
X0060766Y0165938D01*
X0060188Y0166516D01*
X0058923Y0167304D02*
X0064690Y0167304D01*
X0064800Y0168303D02*
X0042078Y0168303D01*
X0043217Y0169301D02*
X0064800Y0169301D01*
X0064800Y0170300D02*
X0043857Y0170300D01*
X0044239Y0171298D02*
X0064800Y0171298D01*
X0065719Y0172297D02*
X0036300Y0172297D01*
X0035300Y0172297D02*
X0003300Y0172297D01*
X0003300Y0173295D02*
X0027269Y0173295D01*
X0027520Y0174294D02*
X0003300Y0174294D01*
X0003300Y0175292D02*
X0028015Y0175292D01*
X0027361Y0171298D02*
X0003300Y0171298D01*
X0003300Y0170300D02*
X0027743Y0170300D01*
X0028383Y0169301D02*
X0003300Y0169301D01*
X0003300Y0168303D02*
X0029522Y0168303D01*
X0028910Y0167304D02*
X0034690Y0167304D01*
X0033202Y0166306D02*
X0030398Y0166306D01*
X0031286Y0165307D02*
X0032314Y0165307D01*
X0031900Y0164309D02*
X0031700Y0164309D01*
X0024690Y0167304D02*
X0003300Y0167304D01*
X0003300Y0166306D02*
X0023202Y0166306D01*
X0022314Y0165307D02*
X0003300Y0165307D01*
X0003300Y0164309D02*
X0021900Y0164309D01*
X0021600Y0163310D02*
X0003300Y0163310D01*
X0003300Y0162312D02*
X0021600Y0162312D01*
X0021684Y0161313D02*
X0003300Y0161313D01*
X0003300Y0160315D02*
X0022097Y0160315D01*
X0022680Y0159316D02*
X0003300Y0159316D01*
X0003300Y0158318D02*
X0023678Y0158318D01*
X0024726Y0157319D02*
X0003300Y0157319D01*
X0003300Y0156321D02*
X0023217Y0156321D01*
X0022320Y0155322D02*
X0013416Y0155322D01*
X0013351Y0155349D02*
X0010249Y0155349D01*
X0007382Y0154162D01*
X0005188Y0151968D01*
X0004001Y0149101D01*
X0004001Y0145999D01*
X0005188Y0143132D01*
X0007382Y0140938D01*
X0010249Y0139751D01*
X0013351Y0139751D01*
X0016218Y0140938D01*
X0018412Y0143132D01*
X0019599Y0145999D01*
X0019599Y0149101D01*
X0018412Y0151968D01*
X0016218Y0154162D01*
X0013351Y0155349D01*
X0015827Y0154324D02*
X0021906Y0154324D01*
X0021600Y0153325D02*
X0017055Y0153325D01*
X0018053Y0152327D02*
X0021600Y0152327D01*
X0021678Y0151328D02*
X0018677Y0151328D01*
X0019090Y0150330D02*
X0022091Y0150330D01*
X0022665Y0149331D02*
X0019504Y0149331D01*
X0019599Y0148333D02*
X0023663Y0148333D01*
X0019599Y0147334D02*
X0184001Y0147334D01*
X0184001Y0146336D02*
X0019599Y0146336D01*
X0019325Y0145337D02*
X0184275Y0145337D01*
X0184688Y0144339D02*
X0018912Y0144339D01*
X0018498Y0143340D02*
X0110007Y0143340D01*
X0110164Y0143498D02*
X0109352Y0142686D01*
X0108912Y0141624D01*
X0108912Y0140476D01*
X0109234Y0139700D01*
X0108436Y0140498D01*
X0107374Y0140937D01*
X0106226Y0140937D01*
X0105164Y0140498D01*
X0104352Y0139686D01*
X0103912Y0138624D01*
X0103912Y0137476D01*
X0104352Y0136414D01*
X0104800Y0135966D01*
X0104800Y0114634D01*
X0104352Y0114186D01*
X0103912Y0113124D01*
X0103912Y0111976D01*
X0104352Y0110914D01*
X0105164Y0110102D01*
X0106226Y0109662D01*
X0107374Y0109662D01*
X0108436Y0110102D01*
X0109248Y0110914D01*
X0109300Y0111040D01*
X0109352Y0110914D01*
X0110164Y0110102D01*
X0111226Y0109662D01*
X0112374Y0109662D01*
X0113436Y0110102D01*
X0114248Y0110914D01*
X0114300Y0111040D01*
X0114352Y0110914D01*
X0115164Y0110102D01*
X0116226Y0109662D01*
X0117374Y0109662D01*
X0118436Y0110102D01*
X0119248Y0110914D01*
X0119687Y0111976D01*
X0119687Y0113124D01*
X0119248Y0114186D01*
X0118800Y0114634D01*
X0118800Y0118966D01*
X0119248Y0119414D01*
X0119687Y0120476D01*
X0119687Y0121624D01*
X0119248Y0122686D01*
X0118436Y0123498D01*
X0117374Y0123937D01*
X0116226Y0123937D01*
X0115164Y0123498D01*
X0114352Y0122686D01*
X0113912Y0121624D01*
X0113912Y0120476D01*
X0114352Y0119414D01*
X0114800Y0118966D01*
X0114800Y0114634D01*
X0114352Y0114186D01*
X0114300Y0114060D01*
X0114248Y0114186D01*
X0113700Y0114734D01*
X0113700Y0138866D01*
X0114248Y0139414D01*
X0114687Y0140476D01*
X0114687Y0141624D01*
X0114248Y0142686D01*
X0113436Y0143498D01*
X0112374Y0143937D01*
X0111226Y0143937D01*
X0110164Y0143498D01*
X0109210Y0142342D02*
X0017621Y0142342D01*
X0016623Y0141343D02*
X0108912Y0141343D01*
X0108967Y0140345D02*
X0108589Y0140345D01*
X0106800Y0138050D02*
X0106800Y0112550D01*
X0104156Y0111388D02*
X0003300Y0111388D01*
X0003300Y0112386D02*
X0103912Y0112386D01*
X0104020Y0113385D02*
X0003300Y0113385D01*
X0003300Y0114383D02*
X0104550Y0114383D01*
X0104800Y0115382D02*
X0003300Y0115382D01*
X0003300Y0116380D02*
X0104800Y0116380D01*
X0104800Y0117379D02*
X0003300Y0117379D01*
X0003300Y0118377D02*
X0095707Y0118377D01*
X0096226Y0118162D02*
X0097374Y0118162D01*
X0098436Y0118602D01*
X0099248Y0119414D01*
X0099687Y0120476D01*
X0099687Y0121624D01*
X0099248Y0122686D01*
X0098800Y0123134D01*
X0098800Y0133466D01*
X0099248Y0133914D01*
X0099687Y0134976D01*
X0099687Y0136124D01*
X0099248Y0137186D01*
X0098436Y0137998D01*
X0097374Y0138437D01*
X0096226Y0138437D01*
X0095164Y0137998D01*
X0094352Y0137186D01*
X0094300Y0137060D01*
X0094248Y0137186D01*
X0093436Y0137998D01*
X0092374Y0138437D01*
X0091226Y0138437D01*
X0090164Y0137998D01*
X0089352Y0137186D01*
X0088912Y0136124D01*
X0088912Y0134976D01*
X0089352Y0133914D01*
X0089800Y0133466D01*
X0089800Y0128634D01*
X0089352Y0128186D01*
X0088912Y0127124D01*
X0088912Y0125976D01*
X0089352Y0124914D01*
X0090164Y0124102D01*
X0091226Y0123662D01*
X0092374Y0123662D01*
X0093436Y0124102D01*
X0094248Y0124914D01*
X0094687Y0125976D01*
X0094687Y0127124D01*
X0094248Y0128186D01*
X0093800Y0128634D01*
X0093800Y0133466D01*
X0094248Y0133914D01*
X0094300Y0134040D01*
X0094352Y0133914D01*
X0094800Y0133466D01*
X0094800Y0123134D01*
X0094352Y0122686D01*
X0093912Y0121624D01*
X0093912Y0120476D01*
X0094352Y0119414D01*
X0095164Y0118602D01*
X0096226Y0118162D01*
X0097893Y0118377D02*
X0104800Y0118377D01*
X0104800Y0119376D02*
X0099209Y0119376D01*
X0099646Y0120374D02*
X0104800Y0120374D01*
X0104800Y0121373D02*
X0099687Y0121373D01*
X0099378Y0122371D02*
X0104800Y0122371D01*
X0104800Y0123370D02*
X0098800Y0123370D01*
X0098800Y0124368D02*
X0104800Y0124368D01*
X0104800Y0125367D02*
X0098800Y0125367D01*
X0098800Y0126365D02*
X0104800Y0126365D01*
X0104800Y0127364D02*
X0098800Y0127364D01*
X0098800Y0128362D02*
X0104800Y0128362D01*
X0104800Y0129361D02*
X0098800Y0129361D01*
X0098800Y0130359D02*
X0104800Y0130359D01*
X0104800Y0131358D02*
X0098800Y0131358D01*
X0098800Y0132356D02*
X0104800Y0132356D01*
X0104800Y0133355D02*
X0098800Y0133355D01*
X0099430Y0134353D02*
X0104800Y0134353D01*
X0104800Y0135352D02*
X0099687Y0135352D01*
X0099594Y0136351D02*
X0104416Y0136351D01*
X0103965Y0137349D02*
X0099084Y0137349D01*
X0097592Y0138348D02*
X0103912Y0138348D01*
X0104211Y0139346D02*
X0003300Y0139346D01*
X0003300Y0138348D02*
X0091008Y0138348D01*
X0092592Y0138348D02*
X0096008Y0138348D01*
X0094515Y0137349D02*
X0094084Y0137349D01*
X0091800Y0135550D02*
X0091800Y0126550D01*
X0094435Y0125367D02*
X0094800Y0125367D01*
X0094800Y0126365D02*
X0094687Y0126365D01*
X0094588Y0127364D02*
X0094800Y0127364D01*
X0094800Y0128362D02*
X0094071Y0128362D01*
X0093800Y0129361D02*
X0094800Y0129361D01*
X0094800Y0130359D02*
X0093800Y0130359D01*
X0093800Y0131358D02*
X0094800Y0131358D01*
X0094800Y0132356D02*
X0093800Y0132356D01*
X0093800Y0133355D02*
X0094800Y0133355D01*
X0096800Y0135550D02*
X0096800Y0121050D01*
X0094222Y0122371D02*
X0003300Y0122371D01*
X0003300Y0121373D02*
X0093912Y0121373D01*
X0093954Y0120374D02*
X0003300Y0120374D01*
X0003300Y0119376D02*
X0094391Y0119376D01*
X0094800Y0123370D02*
X0003300Y0123370D01*
X0003300Y0124368D02*
X0089898Y0124368D01*
X0089165Y0125367D02*
X0003300Y0125367D01*
X0003300Y0126365D02*
X0088912Y0126365D01*
X0089012Y0127364D02*
X0003300Y0127364D01*
X0003300Y0128362D02*
X0089529Y0128362D01*
X0089800Y0129361D02*
X0003300Y0129361D01*
X0003300Y0130359D02*
X0089800Y0130359D01*
X0089800Y0131358D02*
X0003300Y0131358D01*
X0003300Y0132356D02*
X0089800Y0132356D01*
X0089800Y0133355D02*
X0003300Y0133355D01*
X0003300Y0134353D02*
X0089170Y0134353D01*
X0088912Y0135352D02*
X0003300Y0135352D01*
X0003300Y0136351D02*
X0089006Y0136351D01*
X0089515Y0137349D02*
X0003300Y0137349D01*
X0003300Y0140345D02*
X0008815Y0140345D01*
X0006977Y0141343D02*
X0003300Y0141343D01*
X0003300Y0142342D02*
X0005979Y0142342D01*
X0005102Y0143340D02*
X0003300Y0143340D01*
X0003300Y0144339D02*
X0004688Y0144339D01*
X0004275Y0145337D02*
X0003300Y0145337D01*
X0003300Y0146336D02*
X0004001Y0146336D01*
X0004001Y0147334D02*
X0003300Y0147334D01*
X0003300Y0148333D02*
X0004001Y0148333D01*
X0004096Y0149331D02*
X0003300Y0149331D01*
X0003300Y0150330D02*
X0004510Y0150330D01*
X0004923Y0151328D02*
X0003300Y0151328D01*
X0003300Y0152327D02*
X0005547Y0152327D01*
X0006545Y0153325D02*
X0003300Y0153325D01*
X0003300Y0154324D02*
X0007773Y0154324D01*
X0010184Y0155322D02*
X0003300Y0155322D01*
X0014785Y0140345D02*
X0105011Y0140345D01*
X0103663Y0148333D02*
X0099937Y0148333D01*
X0100935Y0149331D02*
X0102665Y0149331D01*
X0102091Y0150330D02*
X0101509Y0150330D01*
X0093663Y0148333D02*
X0089937Y0148333D01*
X0090935Y0149331D02*
X0092665Y0149331D01*
X0092091Y0150330D02*
X0091509Y0150330D01*
X0083663Y0148333D02*
X0079937Y0148333D01*
X0080935Y0149331D02*
X0082665Y0149331D01*
X0082091Y0150330D02*
X0081509Y0150330D01*
X0073663Y0148333D02*
X0069937Y0148333D01*
X0070935Y0149331D02*
X0072665Y0149331D01*
X0072091Y0150330D02*
X0071509Y0150330D01*
X0063663Y0148333D02*
X0059842Y0148333D01*
X0060889Y0149331D02*
X0062665Y0149331D01*
X0062091Y0150330D02*
X0061505Y0150330D01*
X0057300Y0150330D02*
X0056300Y0150330D01*
X0056300Y0151328D02*
X0057300Y0151328D01*
X0057300Y0153050D02*
X0056300Y0153050D01*
X0056300Y0157736D01*
X0056300Y0162050D01*
X0057300Y0162050D01*
X0057300Y0153050D01*
X0057300Y0153325D02*
X0056300Y0153325D01*
X0056300Y0154324D02*
X0057300Y0154324D01*
X0057300Y0155322D02*
X0056300Y0155322D01*
X0056300Y0156321D02*
X0057300Y0156321D01*
X0057300Y0157319D02*
X0056300Y0157319D01*
X0056300Y0158318D02*
X0057300Y0158318D01*
X0057300Y0159316D02*
X0056300Y0159316D01*
X0056300Y0160315D02*
X0057300Y0160315D01*
X0057300Y0161313D02*
X0056300Y0161313D01*
X0056300Y0163310D02*
X0057300Y0163310D01*
X0057300Y0164309D02*
X0056300Y0164309D01*
X0056300Y0165307D02*
X0057300Y0165307D01*
X0057300Y0166306D02*
X0056300Y0166306D01*
X0056300Y0167304D02*
X0057300Y0167304D01*
X0054677Y0167304D02*
X0048910Y0167304D01*
X0050398Y0166306D02*
X0053202Y0166306D01*
X0052376Y0165307D02*
X0051286Y0165307D01*
X0051700Y0164309D02*
X0051904Y0164309D01*
X0044690Y0167304D02*
X0038910Y0167304D01*
X0040398Y0166306D02*
X0043202Y0166306D01*
X0042314Y0165307D02*
X0041286Y0165307D01*
X0041700Y0164309D02*
X0041900Y0164309D01*
X0044331Y0173295D02*
X0066717Y0173295D01*
X0067716Y0174294D02*
X0044080Y0174294D01*
X0043585Y0175292D02*
X0068714Y0175292D01*
X0076800Y0171050D02*
X0079800Y0174050D01*
X0196300Y0174050D01*
X0205300Y0165050D01*
X0249800Y0165050D01*
X0251300Y0166550D01*
X0260393Y0160315D02*
X0325900Y0160315D01*
X0325900Y0161313D02*
X0261392Y0161313D01*
X0262390Y0162312D02*
X0325900Y0162312D01*
X0325900Y0163310D02*
X0263389Y0163310D01*
X0265642Y0164309D02*
X0325900Y0164309D01*
X0325900Y0165307D02*
X0324353Y0165307D01*
X0325093Y0166306D02*
X0325900Y0166306D01*
X0325900Y0167304D02*
X0325363Y0167304D01*
X0325296Y0168303D02*
X0325900Y0168303D01*
X0325900Y0169301D02*
X0324844Y0169301D01*
X0325900Y0170300D02*
X0323525Y0170300D01*
X0321248Y0170300D02*
X0280687Y0170300D01*
X0280615Y0169301D02*
X0319929Y0169301D01*
X0319477Y0168303D02*
X0280136Y0168303D01*
X0278717Y0167304D02*
X0319410Y0167304D01*
X0325900Y0171298D02*
X0280408Y0171298D01*
X0279637Y0172297D02*
X0326360Y0172297D01*
X0327358Y0173295D02*
X0277383Y0173295D01*
X0276384Y0174294D02*
X0328357Y0174294D01*
X0333355Y0175292D02*
X0275386Y0175292D01*
X0274387Y0176291D02*
X0333400Y0176291D01*
X0333400Y0177289D02*
X0273389Y0177289D01*
X0272300Y0175550D02*
X0277800Y0170050D01*
X0276883Y0167304D02*
X0274217Y0167304D01*
X0273300Y0170050D02*
X0270800Y0172550D01*
X0252800Y0172550D01*
X0247780Y0177570D01*
X0245185Y0176291D02*
X0227662Y0176291D01*
X0228300Y0177289D02*
X0244893Y0177289D01*
X0244952Y0178288D02*
X0228300Y0178288D01*
X0228300Y0179287D02*
X0245414Y0179287D01*
X0245981Y0180285D02*
X0237119Y0180285D01*
X0236936Y0180102D02*
X0237748Y0180914D01*
X0238187Y0181976D01*
X0238187Y0183124D01*
X0238000Y0183577D01*
X0238000Y0204523D01*
X0238187Y0204976D01*
X0238187Y0206124D01*
X0237748Y0207186D01*
X0236936Y0207998D01*
X0235874Y0208437D01*
X0234726Y0208437D01*
X0233664Y0207998D01*
X0232852Y0207186D01*
X0232412Y0206124D01*
X0232412Y0204976D01*
X0232600Y0204523D01*
X0232600Y0183577D01*
X0232412Y0183124D01*
X0232412Y0181976D01*
X0232852Y0180914D01*
X0233664Y0180102D01*
X0234726Y0179662D01*
X0235874Y0179662D01*
X0236936Y0180102D01*
X0237901Y0181284D02*
X0245188Y0181284D01*
X0244893Y0182282D02*
X0238187Y0182282D01*
X0238123Y0183281D02*
X0244949Y0183281D01*
X0245406Y0184279D02*
X0238000Y0184279D01*
X0238000Y0185278D02*
X0246772Y0185278D01*
X0248788Y0185278D02*
X0281948Y0185278D01*
X0282226Y0185162D02*
X0283374Y0185162D01*
X0284436Y0185602D01*
X0284884Y0186050D01*
X0288716Y0186050D01*
X0289164Y0185602D01*
X0290226Y0185162D01*
X0291374Y0185162D01*
X0292436Y0185602D01*
X0293248Y0186414D01*
X0293687Y0187476D01*
X0293687Y0188624D01*
X0293248Y0189686D01*
X0292436Y0190498D01*
X0291374Y0190937D01*
X0290226Y0190937D01*
X0289164Y0190498D01*
X0288716Y0190050D01*
X0284884Y0190050D01*
X0284436Y0190498D01*
X0283374Y0190937D01*
X0282226Y0190937D01*
X0281164Y0190498D01*
X0280352Y0189686D01*
X0279913Y0188624D01*
X0279913Y0187476D01*
X0280352Y0186414D01*
X0281164Y0185602D01*
X0282226Y0185162D01*
X0283652Y0185278D02*
X0289948Y0185278D01*
X0291652Y0185278D02*
X0300944Y0185278D01*
X0300852Y0185186D02*
X0300413Y0184124D01*
X0300413Y0182976D01*
X0300852Y0181914D01*
X0301664Y0181102D01*
X0302726Y0180662D01*
X0303874Y0180662D01*
X0304936Y0181102D01*
X0305384Y0181550D01*
X0320216Y0181550D01*
X0320664Y0181102D01*
X0321726Y0180662D01*
X0322874Y0180662D01*
X0323936Y0181102D01*
X0324748Y0181914D01*
X0325187Y0182976D01*
X0325187Y0184124D01*
X0324748Y0185186D01*
X0323936Y0185998D01*
X0322874Y0186437D01*
X0321726Y0186437D01*
X0320664Y0185998D01*
X0320216Y0185550D01*
X0305384Y0185550D01*
X0304936Y0185998D01*
X0303874Y0186437D01*
X0302726Y0186437D01*
X0301664Y0185998D01*
X0300852Y0185186D01*
X0300477Y0184279D02*
X0250154Y0184279D01*
X0250611Y0183281D02*
X0300413Y0183281D01*
X0300700Y0182282D02*
X0250896Y0182282D01*
X0251895Y0181284D02*
X0301483Y0181284D01*
X0303300Y0183550D02*
X0322300Y0183550D01*
X0323264Y0186276D02*
X0333400Y0186276D01*
X0333400Y0185278D02*
X0324656Y0185278D01*
X0325123Y0184279D02*
X0333400Y0184279D01*
X0333400Y0183281D02*
X0325187Y0183281D01*
X0324900Y0182282D02*
X0333400Y0182282D01*
X0333400Y0181284D02*
X0324117Y0181284D01*
X0320483Y0181284D02*
X0305117Y0181284D01*
X0304264Y0186276D02*
X0321336Y0186276D01*
X0324664Y0194602D02*
X0325726Y0194162D01*
X0326874Y0194162D01*
X0327936Y0194602D01*
X0328748Y0195414D01*
X0329187Y0196476D01*
X0329187Y0197624D01*
X0328748Y0198686D01*
X0328300Y0199134D01*
X0328300Y0205947D01*
X0328768Y0206414D01*
X0329207Y0207476D01*
X0329207Y0208624D01*
X0328768Y0209686D01*
X0327955Y0210498D01*
X0326894Y0210937D01*
X0325745Y0210937D01*
X0324684Y0210498D01*
X0323872Y0209686D01*
X0323432Y0208624D01*
X0323432Y0207476D01*
X0323872Y0206414D01*
X0324300Y0205986D01*
X0324300Y0199134D01*
X0323852Y0198686D01*
X0323413Y0197624D01*
X0323413Y0196476D01*
X0323852Y0195414D01*
X0324664Y0194602D01*
X0325480Y0194264D02*
X0238000Y0194264D01*
X0238000Y0193266D02*
X0333400Y0193266D01*
X0333400Y0194264D02*
X0327120Y0194264D01*
X0328596Y0195263D02*
X0333400Y0195263D01*
X0333400Y0196261D02*
X0329099Y0196261D01*
X0329187Y0197260D02*
X0333400Y0197260D01*
X0333400Y0198258D02*
X0328925Y0198258D01*
X0328300Y0199257D02*
X0333400Y0199257D01*
X0333400Y0200255D02*
X0328300Y0200255D01*
X0328300Y0201254D02*
X0333400Y0201254D01*
X0333400Y0202252D02*
X0328300Y0202252D01*
X0328300Y0203251D02*
X0333400Y0203251D01*
X0333400Y0204249D02*
X0328300Y0204249D01*
X0328300Y0205248D02*
X0333400Y0205248D01*
X0332917Y0206246D02*
X0328600Y0206246D01*
X0329112Y0207245D02*
X0331027Y0207245D01*
X0329523Y0208243D02*
X0329207Y0208243D01*
X0329009Y0209242D02*
X0328951Y0209242D01*
X0328913Y0210240D02*
X0328213Y0210240D01*
X0329167Y0211239D02*
X0228300Y0211239D01*
X0228300Y0212237D02*
X0329904Y0212237D01*
X0333696Y0212237D02*
X0335300Y0212237D01*
X0335300Y0211239D02*
X0334433Y0211239D01*
X0334687Y0210240D02*
X0335300Y0210240D01*
X0335295Y0209242D02*
X0335300Y0209242D01*
X0335300Y0213236D02*
X0228300Y0213236D01*
X0228300Y0214234D02*
X0335300Y0214234D01*
X0335300Y0215233D02*
X0228300Y0215233D01*
X0228300Y0216231D02*
X0335300Y0216231D01*
X0335300Y0217230D02*
X0228300Y0217230D01*
X0228300Y0218228D02*
X0335300Y0218228D01*
X0335300Y0219227D02*
X0228300Y0219227D01*
X0228300Y0220225D02*
X0335300Y0220225D01*
X0324427Y0210240D02*
X0228300Y0210240D01*
X0228300Y0209242D02*
X0323688Y0209242D01*
X0323432Y0208243D02*
X0236343Y0208243D01*
X0237689Y0207245D02*
X0323528Y0207245D01*
X0324040Y0206246D02*
X0238137Y0206246D01*
X0238187Y0205248D02*
X0324300Y0205248D01*
X0324300Y0204249D02*
X0238000Y0204249D01*
X0238000Y0203251D02*
X0324300Y0203251D01*
X0324300Y0202252D02*
X0238000Y0202252D01*
X0238000Y0201254D02*
X0324300Y0201254D01*
X0324300Y0200255D02*
X0238000Y0200255D01*
X0238000Y0199257D02*
X0324300Y0199257D01*
X0323675Y0198258D02*
X0238000Y0198258D01*
X0238000Y0197260D02*
X0323413Y0197260D01*
X0323501Y0196261D02*
X0238000Y0196261D01*
X0238000Y0195263D02*
X0324004Y0195263D01*
X0326300Y0197050D02*
X0326300Y0208050D01*
X0326320Y0208050D01*
X0333400Y0192267D02*
X0238000Y0192267D01*
X0238000Y0191269D02*
X0333400Y0191269D01*
X0333400Y0190270D02*
X0292663Y0190270D01*
X0293419Y0189272D02*
X0333400Y0189272D01*
X0333400Y0188273D02*
X0293687Y0188273D01*
X0293604Y0187275D02*
X0333400Y0187275D01*
X0333400Y0180285D02*
X0252893Y0180285D01*
X0253892Y0179287D02*
X0333400Y0179287D01*
X0333400Y0178288D02*
X0254890Y0178288D01*
X0254800Y0175550D02*
X0272300Y0175550D01*
X0280490Y0186276D02*
X0238000Y0186276D01*
X0238000Y0187275D02*
X0279996Y0187275D01*
X0279913Y0188273D02*
X0238000Y0188273D01*
X0238000Y0189272D02*
X0280181Y0189272D01*
X0280937Y0190270D02*
X0238000Y0190270D01*
X0232600Y0190270D02*
X0228300Y0190270D01*
X0228300Y0189272D02*
X0232600Y0189272D01*
X0232600Y0188273D02*
X0228300Y0188273D01*
X0228300Y0187275D02*
X0232600Y0187275D01*
X0232600Y0186276D02*
X0228300Y0186276D01*
X0228300Y0185278D02*
X0232600Y0185278D01*
X0232600Y0184279D02*
X0228300Y0184279D01*
X0228300Y0183281D02*
X0232477Y0183281D01*
X0232412Y0182282D02*
X0228300Y0182282D01*
X0228300Y0181284D02*
X0232699Y0181284D01*
X0233481Y0180285D02*
X0228300Y0180285D01*
X0228300Y0191269D02*
X0232600Y0191269D01*
X0232600Y0192267D02*
X0228300Y0192267D01*
X0228300Y0193266D02*
X0232600Y0193266D01*
X0232600Y0194264D02*
X0228300Y0194264D01*
X0228300Y0195263D02*
X0232600Y0195263D01*
X0232600Y0196261D02*
X0228300Y0196261D01*
X0228300Y0197260D02*
X0232600Y0197260D01*
X0232600Y0198258D02*
X0228300Y0198258D01*
X0228300Y0199257D02*
X0232600Y0199257D01*
X0232600Y0200255D02*
X0228300Y0200255D01*
X0228300Y0201254D02*
X0232600Y0201254D01*
X0232600Y0202252D02*
X0228300Y0202252D01*
X0228300Y0203251D02*
X0232600Y0203251D01*
X0232600Y0204249D02*
X0228300Y0204249D01*
X0228300Y0205248D02*
X0232412Y0205248D01*
X0232463Y0206246D02*
X0228300Y0206246D01*
X0228300Y0207245D02*
X0232911Y0207245D01*
X0234257Y0208243D02*
X0228300Y0208243D01*
X0247780Y0182570D02*
X0254800Y0175550D01*
X0259395Y0159316D02*
X0263933Y0159316D01*
X0265667Y0159316D02*
X0325900Y0159316D01*
X0325900Y0158318D02*
X0267116Y0158318D01*
X0267607Y0157319D02*
X0325900Y0157319D01*
X0325900Y0156321D02*
X0267687Y0156321D01*
X0267417Y0155322D02*
X0325900Y0155322D01*
X0325387Y0154324D02*
X0266657Y0154324D01*
X0263605Y0151328D02*
X0322391Y0151328D01*
X0321393Y0150330D02*
X0317635Y0150330D01*
X0315965Y0150330D02*
X0264395Y0150330D01*
X0264687Y0149331D02*
X0314498Y0149331D01*
X0313999Y0148333D02*
X0264628Y0148333D01*
X0264168Y0147334D02*
X0313913Y0147334D01*
X0318671Y0145337D02*
X0323413Y0145337D01*
X0323707Y0146336D02*
X0322773Y0146336D01*
X0323771Y0147334D02*
X0324501Y0147334D01*
X0324770Y0148333D02*
X0325413Y0148333D01*
X0322902Y0144339D02*
X0250595Y0144339D01*
X0253300Y0149050D02*
X0261800Y0149050D01*
X0259995Y0151328D02*
X0255105Y0151328D01*
X0258086Y0138348D02*
X0259514Y0138348D01*
X0259006Y0137349D02*
X0258594Y0137349D01*
X0258687Y0136351D02*
X0258912Y0136351D01*
X0259171Y0135352D02*
X0258429Y0135352D01*
X0257800Y0134353D02*
X0259800Y0134353D01*
X0259800Y0133355D02*
X0257800Y0133355D01*
X0257800Y0132356D02*
X0259800Y0132356D01*
X0259780Y0131358D02*
X0257800Y0131358D01*
X0257800Y0130359D02*
X0258781Y0130359D01*
X0274800Y0126050D02*
X0289300Y0126050D01*
X0289800Y0126550D01*
X0298074Y0130359D02*
X0298781Y0130359D01*
X0301520Y0134353D02*
X0284577Y0134353D01*
X0305737Y0117550D02*
X0305800Y0117487D01*
X0305800Y0097550D01*
X0308453Y0096410D02*
X0308577Y0096410D01*
X0309110Y0091418D02*
X0289300Y0091418D01*
X0289300Y0092416D02*
X0301747Y0092416D01*
X0300748Y0093415D02*
X0289300Y0093415D01*
X0285300Y0094413D02*
X0278979Y0094413D01*
X0280245Y0095412D02*
X0285300Y0095412D01*
X0285112Y0096410D02*
X0280660Y0096410D01*
X0280687Y0097409D02*
X0284113Y0097409D01*
X0283114Y0098407D02*
X0280363Y0098407D01*
X0280100Y0099406D02*
X0282300Y0099406D01*
X0282300Y0100404D02*
X0280100Y0100404D01*
X0280100Y0101403D02*
X0282300Y0101403D01*
X0282300Y0102401D02*
X0280100Y0102401D01*
X0280100Y0103400D02*
X0282300Y0103400D01*
X0281652Y0104398D02*
X0280100Y0104398D01*
X0280100Y0105397D02*
X0281413Y0105397D01*
X0281525Y0106395D02*
X0280100Y0106395D01*
X0280100Y0107394D02*
X0282060Y0107394D01*
X0284300Y0105550D02*
X0284300Y0100050D01*
X0287300Y0097050D01*
X0287300Y0086550D01*
X0285300Y0084550D01*
X0282300Y0084550D01*
X0284264Y0082431D02*
X0311300Y0082431D01*
X0313908Y0087423D02*
X0321900Y0087423D01*
X0282300Y0090550D02*
X0276800Y0090550D01*
X0216800Y0118050D02*
X0207300Y0118050D01*
X0204412Y0118377D02*
X0204393Y0118377D01*
X0202207Y0118377D02*
X0158800Y0118377D01*
X0158800Y0117379D02*
X0201045Y0117379D01*
X0200226Y0116380D02*
X0158800Y0116380D01*
X0158800Y0115382D02*
X0199912Y0115382D01*
X0200891Y0119376D02*
X0158800Y0119376D01*
X0158800Y0120374D02*
X0200454Y0120374D01*
X0200412Y0121373D02*
X0158800Y0121373D01*
X0158800Y0122371D02*
X0200722Y0122371D01*
X0201536Y0123370D02*
X0158800Y0123370D01*
X0158800Y0114383D02*
X0175050Y0114383D01*
X0174227Y0113385D02*
X0158800Y0113385D01*
X0166800Y0109050D02*
X0166800Y0088550D01*
X0146800Y0088550D02*
X0146800Y0109050D01*
X0124800Y0109391D02*
X0124687Y0109391D01*
X0124653Y0108392D02*
X0124800Y0108392D01*
X0124800Y0107394D02*
X0124227Y0107394D01*
X0124800Y0106395D02*
X0122936Y0106395D01*
X0124800Y0105397D02*
X0003300Y0105397D01*
X0003300Y0106395D02*
X0120664Y0106395D01*
X0119373Y0107394D02*
X0003300Y0107394D01*
X0003300Y0108392D02*
X0118947Y0108392D01*
X0118912Y0109391D02*
X0003300Y0109391D01*
X0003300Y0110389D02*
X0104877Y0110389D01*
X0108723Y0110389D02*
X0109877Y0110389D01*
X0113723Y0110389D02*
X0114877Y0110389D01*
X0116800Y0112550D02*
X0116800Y0121050D01*
X0114222Y0122371D02*
X0113700Y0122371D01*
X0113700Y0121373D02*
X0113912Y0121373D01*
X0113954Y0120374D02*
X0113700Y0120374D01*
X0113700Y0119376D02*
X0114391Y0119376D01*
X0114800Y0118377D02*
X0113700Y0118377D01*
X0113700Y0117379D02*
X0114800Y0117379D01*
X0114800Y0116380D02*
X0113700Y0116380D01*
X0113700Y0115382D02*
X0114800Y0115382D01*
X0114550Y0114383D02*
X0114050Y0114383D01*
X0118800Y0115382D02*
X0119800Y0115382D01*
X0119800Y0116380D02*
X0118800Y0116380D01*
X0118800Y0117379D02*
X0119800Y0117379D01*
X0119800Y0118377D02*
X0118800Y0118377D01*
X0119209Y0119376D02*
X0119800Y0119376D01*
X0119800Y0120374D02*
X0119646Y0120374D01*
X0119687Y0121373D02*
X0119800Y0121373D01*
X0119800Y0122371D02*
X0119378Y0122371D01*
X0119800Y0123370D02*
X0118564Y0123370D01*
X0119800Y0124368D02*
X0113700Y0124368D01*
X0113700Y0123370D02*
X0115036Y0123370D01*
X0113700Y0125367D02*
X0119800Y0125367D01*
X0119800Y0126365D02*
X0113700Y0126365D01*
X0113700Y0127364D02*
X0119800Y0127364D01*
X0119800Y0128362D02*
X0113700Y0128362D01*
X0113700Y0129361D02*
X0119800Y0129361D01*
X0119800Y0130359D02*
X0113700Y0130359D01*
X0113700Y0131358D02*
X0119800Y0131358D01*
X0119800Y0132356D02*
X0113700Y0132356D01*
X0113700Y0133355D02*
X0119800Y0133355D01*
X0119800Y0134353D02*
X0113700Y0134353D01*
X0113700Y0135352D02*
X0119800Y0135352D01*
X0119800Y0136351D02*
X0113700Y0136351D01*
X0113700Y0137349D02*
X0119800Y0137349D01*
X0119800Y0138348D02*
X0113700Y0138348D01*
X0114180Y0139346D02*
X0119420Y0139346D01*
X0118967Y0140345D02*
X0114633Y0140345D01*
X0114687Y0141343D02*
X0118912Y0141343D01*
X0119210Y0142342D02*
X0114390Y0142342D01*
X0113593Y0143340D02*
X0120007Y0143340D01*
X0121800Y0141050D02*
X0121800Y0109050D01*
X0119229Y0110389D02*
X0118723Y0110389D01*
X0119444Y0111388D02*
X0119800Y0111388D01*
X0119800Y0112386D02*
X0119687Y0112386D01*
X0119580Y0113385D02*
X0119800Y0113385D01*
X0119800Y0114383D02*
X0119050Y0114383D01*
X0123800Y0114383D02*
X0124800Y0114383D01*
X0124800Y0113385D02*
X0123800Y0113385D01*
X0123800Y0112386D02*
X0124800Y0112386D01*
X0124800Y0111388D02*
X0123800Y0111388D01*
X0124371Y0110389D02*
X0124800Y0110389D01*
X0124800Y0115382D02*
X0123800Y0115382D01*
X0123800Y0116380D02*
X0124800Y0116380D01*
X0124800Y0117379D02*
X0123800Y0117379D01*
X0123800Y0118377D02*
X0124800Y0118377D01*
X0124391Y0119376D02*
X0123800Y0119376D01*
X0123800Y0120374D02*
X0123954Y0120374D01*
X0123912Y0121373D02*
X0123800Y0121373D01*
X0123800Y0122371D02*
X0124222Y0122371D01*
X0123800Y0123370D02*
X0125036Y0123370D01*
X0126800Y0121050D02*
X0126800Y0097550D01*
X0124147Y0096410D02*
X0003300Y0096410D01*
X0003300Y0095412D02*
X0124855Y0095412D01*
X0123912Y0097409D02*
X0003300Y0097409D01*
X0003300Y0098407D02*
X0124030Y0098407D01*
X0124572Y0099406D02*
X0003300Y0099406D01*
X0003300Y0100404D02*
X0124800Y0100404D01*
X0124800Y0101403D02*
X0003300Y0101403D01*
X0003300Y0102401D02*
X0124800Y0102401D01*
X0124800Y0103400D02*
X0003300Y0103400D01*
X0003300Y0104398D02*
X0124800Y0104398D01*
X0094800Y0124368D02*
X0093702Y0124368D01*
X0109937Y0148333D02*
X0113663Y0148333D01*
X0112665Y0149331D02*
X0110935Y0149331D01*
X0111509Y0150330D02*
X0112091Y0150330D01*
X0139937Y0148333D02*
X0143663Y0148333D01*
X0142665Y0149331D02*
X0140935Y0149331D01*
X0141509Y0150330D02*
X0142091Y0150330D01*
X0149937Y0148333D02*
X0153663Y0148333D01*
X0152665Y0149331D02*
X0150935Y0149331D01*
X0151509Y0150330D02*
X0152091Y0150330D01*
X0159937Y0148333D02*
X0163663Y0148333D01*
X0162665Y0149331D02*
X0160935Y0149331D01*
X0161509Y0150330D02*
X0162091Y0150330D01*
X0169937Y0148333D02*
X0173663Y0148333D01*
X0172665Y0149331D02*
X0170935Y0149331D01*
X0171509Y0150330D02*
X0172091Y0150330D01*
X0179937Y0148333D02*
X0184001Y0148333D01*
X0184096Y0149331D02*
X0180935Y0149331D01*
X0181509Y0150330D02*
X0184510Y0150330D01*
X0184923Y0151328D02*
X0181922Y0151328D01*
X0182000Y0152327D02*
X0185547Y0152327D01*
X0186545Y0153325D02*
X0182000Y0153325D01*
X0181694Y0154324D02*
X0187773Y0154324D01*
X0190184Y0155322D02*
X0181280Y0155322D01*
X0193189Y0165307D02*
X0193214Y0165307D01*
X0203300Y0121050D02*
X0217800Y0121050D01*
X0293110Y0186276D02*
X0302336Y0186276D01*
X0290800Y0188050D02*
X0282800Y0188050D01*
X0284663Y0190270D02*
X0288937Y0190270D01*
X0085800Y0172050D02*
X0084300Y0170550D01*
X0081800Y0170550D01*
X0076800Y0171050D02*
X0076800Y0162550D01*
X0062314Y0165307D02*
X0061224Y0165307D01*
X0061696Y0164309D02*
X0061900Y0164309D01*
X0052095Y0150330D02*
X0051509Y0150330D01*
X0050935Y0149331D02*
X0052711Y0149331D01*
X0053758Y0148333D02*
X0049937Y0148333D01*
X0056300Y0148333D02*
X0057300Y0148333D01*
X0057300Y0149331D02*
X0056300Y0149331D01*
X0043663Y0148333D02*
X0039937Y0148333D01*
X0040935Y0149331D02*
X0042665Y0149331D01*
X0042091Y0150330D02*
X0041509Y0150330D01*
X0033663Y0148333D02*
X0029937Y0148333D01*
X0030935Y0149331D02*
X0032665Y0149331D01*
X0032091Y0150330D02*
X0031509Y0150330D01*
X0043948Y0050479D02*
X0066619Y0050479D01*
X0067617Y0049480D02*
X0043347Y0049480D01*
D16*
X0111800Y0112550D02*
X0111800Y0141050D01*
X0194800Y0062550D02*
X0201300Y0069050D01*
X0233300Y0069050D01*
X0242800Y0069050D02*
X0253800Y0069050D01*
X0250800Y0075550D02*
X0243300Y0075550D01*
X0301800Y0095050D02*
X0302800Y0094050D01*
X0310300Y0094050D01*
X0301800Y0095050D02*
X0301800Y0102050D01*
X0323800Y0089550D02*
X0323800Y0077050D01*
X0319300Y0072550D01*
X0327800Y0061050D02*
X0331300Y0064550D01*
X0331300Y0134550D01*
X0329800Y0136050D01*
X0325300Y0136050D02*
X0329800Y0131550D01*
X0329800Y0091050D01*
X0327300Y0088550D01*
X0323800Y0089550D02*
X0328300Y0094050D01*
X0328300Y0129050D01*
X0321300Y0136050D01*
X0321300Y0140050D01*
X0326300Y0145050D01*
X0328300Y0148550D02*
X0332800Y0144050D01*
X0332800Y0063050D01*
X0331300Y0061550D01*
X0331300Y0059050D01*
X0334300Y0057550D02*
X0334300Y0148550D01*
X0331300Y0151550D01*
X0327800Y0154050D02*
X0321300Y0147550D01*
X0316800Y0147550D01*
X0327800Y0154050D02*
X0327800Y0171050D01*
X0329300Y0172550D01*
X0333300Y0172550D01*
X0335300Y0174550D01*
X0335300Y0206550D01*
X0331800Y0210050D01*
X0327800Y0061050D02*
X0327800Y0051050D01*
X0331300Y0054550D02*
X0334300Y0057550D01*
X0271800Y0017050D02*
X0271800Y0009050D01*
X0267300Y0009550D02*
X0260300Y0009550D01*
D17*
X0204300Y0058550D02*
X0195800Y0050050D01*
X0070300Y0050050D01*
X0066800Y0053550D01*
X0066800Y0062550D01*
X0066800Y0072550D01*
X0086800Y0072550D02*
X0086800Y0062550D01*
X0086800Y0057050D01*
X0090300Y0053550D01*
X0194300Y0053550D01*
X0202300Y0061550D01*
X0253800Y0061550D01*
X0250800Y0058550D02*
X0204300Y0058550D01*
X0277800Y0097050D02*
X0277800Y0111050D01*
X0282300Y0115550D01*
X0235300Y0144050D02*
X0218800Y0144050D01*
X0207300Y0132550D01*
D18*
X0235300Y0182550D02*
X0235300Y0205550D01*
X0325300Y0014550D02*
X0315800Y0005050D01*
X0230300Y0005050D01*
M02*
