G75*
%MOIN*%
%OFA0B0*%
%FSLAX25Y25*%
%IPPOS*%
%LPD*%
%AMOC8*
5,1,8,0,0,1.08239X$1,22.5*
%
%ADD10C,0.00000*%
%ADD11R,0.09974X0.09965*%
%ADD12C,0.01831*%
%ADD13R,0.04331X0.03937*%
%ADD14R,0.03937X0.04331*%
%ADD15R,0.05512X0.01575*%
%ADD16R,0.07480X0.07480*%
%ADD17R,0.07480X0.09449*%
%ADD18R,0.05906X0.06299*%
%ADD19R,0.03150X0.03543*%
%ADD20R,0.04724X0.03543*%
%ADD21R,0.05512X0.05512*%
%ADD22R,0.09000X0.11000*%
%ADD23R,0.11000X0.09000*%
%ADD24R,0.03937X0.05906*%
%ADD25R,0.05118X0.10039*%
%ADD26R,0.03937X0.04724*%
%ADD27R,0.03543X0.03150*%
%ADD28R,0.03937X0.05512*%
%ADD29R,0.01181X0.04134*%
%ADD30R,0.04134X0.01181*%
%ADD31R,0.05315X0.05315*%
%ADD32R,0.02953X0.01181*%
%ADD33R,0.01181X0.02953*%
%ADD34R,0.03150X0.03150*%
%ADD35R,0.00984X0.02756*%
%ADD36R,0.02756X0.00984*%
D10*
X0001800Y0047550D02*
X0226800Y0047550D01*
X0226800Y0002550D01*
X0336800Y0002550D01*
X0336800Y0222550D01*
X0226800Y0222550D01*
X0226800Y0177550D01*
X0001800Y0177550D01*
X0001800Y0047550D01*
X0005501Y0077550D02*
X0005503Y0077708D01*
X0005509Y0077866D01*
X0005519Y0078024D01*
X0005533Y0078182D01*
X0005551Y0078339D01*
X0005572Y0078496D01*
X0005598Y0078652D01*
X0005628Y0078808D01*
X0005661Y0078963D01*
X0005699Y0079116D01*
X0005740Y0079269D01*
X0005785Y0079421D01*
X0005834Y0079572D01*
X0005887Y0079721D01*
X0005943Y0079869D01*
X0006003Y0080015D01*
X0006067Y0080160D01*
X0006135Y0080303D01*
X0006206Y0080445D01*
X0006280Y0080585D01*
X0006358Y0080722D01*
X0006440Y0080858D01*
X0006524Y0080992D01*
X0006613Y0081123D01*
X0006704Y0081252D01*
X0006799Y0081379D01*
X0006896Y0081504D01*
X0006997Y0081626D01*
X0007101Y0081745D01*
X0007208Y0081862D01*
X0007318Y0081976D01*
X0007431Y0082087D01*
X0007546Y0082196D01*
X0007664Y0082301D01*
X0007785Y0082403D01*
X0007908Y0082503D01*
X0008034Y0082599D01*
X0008162Y0082692D01*
X0008292Y0082782D01*
X0008425Y0082868D01*
X0008560Y0082952D01*
X0008696Y0083031D01*
X0008835Y0083108D01*
X0008976Y0083180D01*
X0009118Y0083250D01*
X0009262Y0083315D01*
X0009408Y0083377D01*
X0009555Y0083435D01*
X0009704Y0083490D01*
X0009854Y0083541D01*
X0010005Y0083588D01*
X0010157Y0083631D01*
X0010310Y0083670D01*
X0010465Y0083706D01*
X0010620Y0083737D01*
X0010776Y0083765D01*
X0010932Y0083789D01*
X0011089Y0083809D01*
X0011247Y0083825D01*
X0011404Y0083837D01*
X0011563Y0083845D01*
X0011721Y0083849D01*
X0011879Y0083849D01*
X0012037Y0083845D01*
X0012196Y0083837D01*
X0012353Y0083825D01*
X0012511Y0083809D01*
X0012668Y0083789D01*
X0012824Y0083765D01*
X0012980Y0083737D01*
X0013135Y0083706D01*
X0013290Y0083670D01*
X0013443Y0083631D01*
X0013595Y0083588D01*
X0013746Y0083541D01*
X0013896Y0083490D01*
X0014045Y0083435D01*
X0014192Y0083377D01*
X0014338Y0083315D01*
X0014482Y0083250D01*
X0014624Y0083180D01*
X0014765Y0083108D01*
X0014904Y0083031D01*
X0015040Y0082952D01*
X0015175Y0082868D01*
X0015308Y0082782D01*
X0015438Y0082692D01*
X0015566Y0082599D01*
X0015692Y0082503D01*
X0015815Y0082403D01*
X0015936Y0082301D01*
X0016054Y0082196D01*
X0016169Y0082087D01*
X0016282Y0081976D01*
X0016392Y0081862D01*
X0016499Y0081745D01*
X0016603Y0081626D01*
X0016704Y0081504D01*
X0016801Y0081379D01*
X0016896Y0081252D01*
X0016987Y0081123D01*
X0017076Y0080992D01*
X0017160Y0080858D01*
X0017242Y0080722D01*
X0017320Y0080585D01*
X0017394Y0080445D01*
X0017465Y0080303D01*
X0017533Y0080160D01*
X0017597Y0080015D01*
X0017657Y0079869D01*
X0017713Y0079721D01*
X0017766Y0079572D01*
X0017815Y0079421D01*
X0017860Y0079269D01*
X0017901Y0079116D01*
X0017939Y0078963D01*
X0017972Y0078808D01*
X0018002Y0078652D01*
X0018028Y0078496D01*
X0018049Y0078339D01*
X0018067Y0078182D01*
X0018081Y0078024D01*
X0018091Y0077866D01*
X0018097Y0077708D01*
X0018099Y0077550D01*
X0018097Y0077392D01*
X0018091Y0077234D01*
X0018081Y0077076D01*
X0018067Y0076918D01*
X0018049Y0076761D01*
X0018028Y0076604D01*
X0018002Y0076448D01*
X0017972Y0076292D01*
X0017939Y0076137D01*
X0017901Y0075984D01*
X0017860Y0075831D01*
X0017815Y0075679D01*
X0017766Y0075528D01*
X0017713Y0075379D01*
X0017657Y0075231D01*
X0017597Y0075085D01*
X0017533Y0074940D01*
X0017465Y0074797D01*
X0017394Y0074655D01*
X0017320Y0074515D01*
X0017242Y0074378D01*
X0017160Y0074242D01*
X0017076Y0074108D01*
X0016987Y0073977D01*
X0016896Y0073848D01*
X0016801Y0073721D01*
X0016704Y0073596D01*
X0016603Y0073474D01*
X0016499Y0073355D01*
X0016392Y0073238D01*
X0016282Y0073124D01*
X0016169Y0073013D01*
X0016054Y0072904D01*
X0015936Y0072799D01*
X0015815Y0072697D01*
X0015692Y0072597D01*
X0015566Y0072501D01*
X0015438Y0072408D01*
X0015308Y0072318D01*
X0015175Y0072232D01*
X0015040Y0072148D01*
X0014904Y0072069D01*
X0014765Y0071992D01*
X0014624Y0071920D01*
X0014482Y0071850D01*
X0014338Y0071785D01*
X0014192Y0071723D01*
X0014045Y0071665D01*
X0013896Y0071610D01*
X0013746Y0071559D01*
X0013595Y0071512D01*
X0013443Y0071469D01*
X0013290Y0071430D01*
X0013135Y0071394D01*
X0012980Y0071363D01*
X0012824Y0071335D01*
X0012668Y0071311D01*
X0012511Y0071291D01*
X0012353Y0071275D01*
X0012196Y0071263D01*
X0012037Y0071255D01*
X0011879Y0071251D01*
X0011721Y0071251D01*
X0011563Y0071255D01*
X0011404Y0071263D01*
X0011247Y0071275D01*
X0011089Y0071291D01*
X0010932Y0071311D01*
X0010776Y0071335D01*
X0010620Y0071363D01*
X0010465Y0071394D01*
X0010310Y0071430D01*
X0010157Y0071469D01*
X0010005Y0071512D01*
X0009854Y0071559D01*
X0009704Y0071610D01*
X0009555Y0071665D01*
X0009408Y0071723D01*
X0009262Y0071785D01*
X0009118Y0071850D01*
X0008976Y0071920D01*
X0008835Y0071992D01*
X0008696Y0072069D01*
X0008560Y0072148D01*
X0008425Y0072232D01*
X0008292Y0072318D01*
X0008162Y0072408D01*
X0008034Y0072501D01*
X0007908Y0072597D01*
X0007785Y0072697D01*
X0007664Y0072799D01*
X0007546Y0072904D01*
X0007431Y0073013D01*
X0007318Y0073124D01*
X0007208Y0073238D01*
X0007101Y0073355D01*
X0006997Y0073474D01*
X0006896Y0073596D01*
X0006799Y0073721D01*
X0006704Y0073848D01*
X0006613Y0073977D01*
X0006524Y0074108D01*
X0006440Y0074242D01*
X0006358Y0074378D01*
X0006280Y0074515D01*
X0006206Y0074655D01*
X0006135Y0074797D01*
X0006067Y0074940D01*
X0006003Y0075085D01*
X0005943Y0075231D01*
X0005887Y0075379D01*
X0005834Y0075528D01*
X0005785Y0075679D01*
X0005740Y0075831D01*
X0005699Y0075984D01*
X0005661Y0076137D01*
X0005628Y0076292D01*
X0005598Y0076448D01*
X0005572Y0076604D01*
X0005551Y0076761D01*
X0005533Y0076918D01*
X0005519Y0077076D01*
X0005509Y0077234D01*
X0005503Y0077392D01*
X0005501Y0077550D01*
X0005501Y0147550D02*
X0005503Y0147708D01*
X0005509Y0147866D01*
X0005519Y0148024D01*
X0005533Y0148182D01*
X0005551Y0148339D01*
X0005572Y0148496D01*
X0005598Y0148652D01*
X0005628Y0148808D01*
X0005661Y0148963D01*
X0005699Y0149116D01*
X0005740Y0149269D01*
X0005785Y0149421D01*
X0005834Y0149572D01*
X0005887Y0149721D01*
X0005943Y0149869D01*
X0006003Y0150015D01*
X0006067Y0150160D01*
X0006135Y0150303D01*
X0006206Y0150445D01*
X0006280Y0150585D01*
X0006358Y0150722D01*
X0006440Y0150858D01*
X0006524Y0150992D01*
X0006613Y0151123D01*
X0006704Y0151252D01*
X0006799Y0151379D01*
X0006896Y0151504D01*
X0006997Y0151626D01*
X0007101Y0151745D01*
X0007208Y0151862D01*
X0007318Y0151976D01*
X0007431Y0152087D01*
X0007546Y0152196D01*
X0007664Y0152301D01*
X0007785Y0152403D01*
X0007908Y0152503D01*
X0008034Y0152599D01*
X0008162Y0152692D01*
X0008292Y0152782D01*
X0008425Y0152868D01*
X0008560Y0152952D01*
X0008696Y0153031D01*
X0008835Y0153108D01*
X0008976Y0153180D01*
X0009118Y0153250D01*
X0009262Y0153315D01*
X0009408Y0153377D01*
X0009555Y0153435D01*
X0009704Y0153490D01*
X0009854Y0153541D01*
X0010005Y0153588D01*
X0010157Y0153631D01*
X0010310Y0153670D01*
X0010465Y0153706D01*
X0010620Y0153737D01*
X0010776Y0153765D01*
X0010932Y0153789D01*
X0011089Y0153809D01*
X0011247Y0153825D01*
X0011404Y0153837D01*
X0011563Y0153845D01*
X0011721Y0153849D01*
X0011879Y0153849D01*
X0012037Y0153845D01*
X0012196Y0153837D01*
X0012353Y0153825D01*
X0012511Y0153809D01*
X0012668Y0153789D01*
X0012824Y0153765D01*
X0012980Y0153737D01*
X0013135Y0153706D01*
X0013290Y0153670D01*
X0013443Y0153631D01*
X0013595Y0153588D01*
X0013746Y0153541D01*
X0013896Y0153490D01*
X0014045Y0153435D01*
X0014192Y0153377D01*
X0014338Y0153315D01*
X0014482Y0153250D01*
X0014624Y0153180D01*
X0014765Y0153108D01*
X0014904Y0153031D01*
X0015040Y0152952D01*
X0015175Y0152868D01*
X0015308Y0152782D01*
X0015438Y0152692D01*
X0015566Y0152599D01*
X0015692Y0152503D01*
X0015815Y0152403D01*
X0015936Y0152301D01*
X0016054Y0152196D01*
X0016169Y0152087D01*
X0016282Y0151976D01*
X0016392Y0151862D01*
X0016499Y0151745D01*
X0016603Y0151626D01*
X0016704Y0151504D01*
X0016801Y0151379D01*
X0016896Y0151252D01*
X0016987Y0151123D01*
X0017076Y0150992D01*
X0017160Y0150858D01*
X0017242Y0150722D01*
X0017320Y0150585D01*
X0017394Y0150445D01*
X0017465Y0150303D01*
X0017533Y0150160D01*
X0017597Y0150015D01*
X0017657Y0149869D01*
X0017713Y0149721D01*
X0017766Y0149572D01*
X0017815Y0149421D01*
X0017860Y0149269D01*
X0017901Y0149116D01*
X0017939Y0148963D01*
X0017972Y0148808D01*
X0018002Y0148652D01*
X0018028Y0148496D01*
X0018049Y0148339D01*
X0018067Y0148182D01*
X0018081Y0148024D01*
X0018091Y0147866D01*
X0018097Y0147708D01*
X0018099Y0147550D01*
X0018097Y0147392D01*
X0018091Y0147234D01*
X0018081Y0147076D01*
X0018067Y0146918D01*
X0018049Y0146761D01*
X0018028Y0146604D01*
X0018002Y0146448D01*
X0017972Y0146292D01*
X0017939Y0146137D01*
X0017901Y0145984D01*
X0017860Y0145831D01*
X0017815Y0145679D01*
X0017766Y0145528D01*
X0017713Y0145379D01*
X0017657Y0145231D01*
X0017597Y0145085D01*
X0017533Y0144940D01*
X0017465Y0144797D01*
X0017394Y0144655D01*
X0017320Y0144515D01*
X0017242Y0144378D01*
X0017160Y0144242D01*
X0017076Y0144108D01*
X0016987Y0143977D01*
X0016896Y0143848D01*
X0016801Y0143721D01*
X0016704Y0143596D01*
X0016603Y0143474D01*
X0016499Y0143355D01*
X0016392Y0143238D01*
X0016282Y0143124D01*
X0016169Y0143013D01*
X0016054Y0142904D01*
X0015936Y0142799D01*
X0015815Y0142697D01*
X0015692Y0142597D01*
X0015566Y0142501D01*
X0015438Y0142408D01*
X0015308Y0142318D01*
X0015175Y0142232D01*
X0015040Y0142148D01*
X0014904Y0142069D01*
X0014765Y0141992D01*
X0014624Y0141920D01*
X0014482Y0141850D01*
X0014338Y0141785D01*
X0014192Y0141723D01*
X0014045Y0141665D01*
X0013896Y0141610D01*
X0013746Y0141559D01*
X0013595Y0141512D01*
X0013443Y0141469D01*
X0013290Y0141430D01*
X0013135Y0141394D01*
X0012980Y0141363D01*
X0012824Y0141335D01*
X0012668Y0141311D01*
X0012511Y0141291D01*
X0012353Y0141275D01*
X0012196Y0141263D01*
X0012037Y0141255D01*
X0011879Y0141251D01*
X0011721Y0141251D01*
X0011563Y0141255D01*
X0011404Y0141263D01*
X0011247Y0141275D01*
X0011089Y0141291D01*
X0010932Y0141311D01*
X0010776Y0141335D01*
X0010620Y0141363D01*
X0010465Y0141394D01*
X0010310Y0141430D01*
X0010157Y0141469D01*
X0010005Y0141512D01*
X0009854Y0141559D01*
X0009704Y0141610D01*
X0009555Y0141665D01*
X0009408Y0141723D01*
X0009262Y0141785D01*
X0009118Y0141850D01*
X0008976Y0141920D01*
X0008835Y0141992D01*
X0008696Y0142069D01*
X0008560Y0142148D01*
X0008425Y0142232D01*
X0008292Y0142318D01*
X0008162Y0142408D01*
X0008034Y0142501D01*
X0007908Y0142597D01*
X0007785Y0142697D01*
X0007664Y0142799D01*
X0007546Y0142904D01*
X0007431Y0143013D01*
X0007318Y0143124D01*
X0007208Y0143238D01*
X0007101Y0143355D01*
X0006997Y0143474D01*
X0006896Y0143596D01*
X0006799Y0143721D01*
X0006704Y0143848D01*
X0006613Y0143977D01*
X0006524Y0144108D01*
X0006440Y0144242D01*
X0006358Y0144378D01*
X0006280Y0144515D01*
X0006206Y0144655D01*
X0006135Y0144797D01*
X0006067Y0144940D01*
X0006003Y0145085D01*
X0005943Y0145231D01*
X0005887Y0145379D01*
X0005834Y0145528D01*
X0005785Y0145679D01*
X0005740Y0145831D01*
X0005699Y0145984D01*
X0005661Y0146137D01*
X0005628Y0146292D01*
X0005598Y0146448D01*
X0005572Y0146604D01*
X0005551Y0146761D01*
X0005533Y0146918D01*
X0005519Y0147076D01*
X0005509Y0147234D01*
X0005503Y0147392D01*
X0005501Y0147550D01*
X0185501Y0147550D02*
X0185503Y0147708D01*
X0185509Y0147866D01*
X0185519Y0148024D01*
X0185533Y0148182D01*
X0185551Y0148339D01*
X0185572Y0148496D01*
X0185598Y0148652D01*
X0185628Y0148808D01*
X0185661Y0148963D01*
X0185699Y0149116D01*
X0185740Y0149269D01*
X0185785Y0149421D01*
X0185834Y0149572D01*
X0185887Y0149721D01*
X0185943Y0149869D01*
X0186003Y0150015D01*
X0186067Y0150160D01*
X0186135Y0150303D01*
X0186206Y0150445D01*
X0186280Y0150585D01*
X0186358Y0150722D01*
X0186440Y0150858D01*
X0186524Y0150992D01*
X0186613Y0151123D01*
X0186704Y0151252D01*
X0186799Y0151379D01*
X0186896Y0151504D01*
X0186997Y0151626D01*
X0187101Y0151745D01*
X0187208Y0151862D01*
X0187318Y0151976D01*
X0187431Y0152087D01*
X0187546Y0152196D01*
X0187664Y0152301D01*
X0187785Y0152403D01*
X0187908Y0152503D01*
X0188034Y0152599D01*
X0188162Y0152692D01*
X0188292Y0152782D01*
X0188425Y0152868D01*
X0188560Y0152952D01*
X0188696Y0153031D01*
X0188835Y0153108D01*
X0188976Y0153180D01*
X0189118Y0153250D01*
X0189262Y0153315D01*
X0189408Y0153377D01*
X0189555Y0153435D01*
X0189704Y0153490D01*
X0189854Y0153541D01*
X0190005Y0153588D01*
X0190157Y0153631D01*
X0190310Y0153670D01*
X0190465Y0153706D01*
X0190620Y0153737D01*
X0190776Y0153765D01*
X0190932Y0153789D01*
X0191089Y0153809D01*
X0191247Y0153825D01*
X0191404Y0153837D01*
X0191563Y0153845D01*
X0191721Y0153849D01*
X0191879Y0153849D01*
X0192037Y0153845D01*
X0192196Y0153837D01*
X0192353Y0153825D01*
X0192511Y0153809D01*
X0192668Y0153789D01*
X0192824Y0153765D01*
X0192980Y0153737D01*
X0193135Y0153706D01*
X0193290Y0153670D01*
X0193443Y0153631D01*
X0193595Y0153588D01*
X0193746Y0153541D01*
X0193896Y0153490D01*
X0194045Y0153435D01*
X0194192Y0153377D01*
X0194338Y0153315D01*
X0194482Y0153250D01*
X0194624Y0153180D01*
X0194765Y0153108D01*
X0194904Y0153031D01*
X0195040Y0152952D01*
X0195175Y0152868D01*
X0195308Y0152782D01*
X0195438Y0152692D01*
X0195566Y0152599D01*
X0195692Y0152503D01*
X0195815Y0152403D01*
X0195936Y0152301D01*
X0196054Y0152196D01*
X0196169Y0152087D01*
X0196282Y0151976D01*
X0196392Y0151862D01*
X0196499Y0151745D01*
X0196603Y0151626D01*
X0196704Y0151504D01*
X0196801Y0151379D01*
X0196896Y0151252D01*
X0196987Y0151123D01*
X0197076Y0150992D01*
X0197160Y0150858D01*
X0197242Y0150722D01*
X0197320Y0150585D01*
X0197394Y0150445D01*
X0197465Y0150303D01*
X0197533Y0150160D01*
X0197597Y0150015D01*
X0197657Y0149869D01*
X0197713Y0149721D01*
X0197766Y0149572D01*
X0197815Y0149421D01*
X0197860Y0149269D01*
X0197901Y0149116D01*
X0197939Y0148963D01*
X0197972Y0148808D01*
X0198002Y0148652D01*
X0198028Y0148496D01*
X0198049Y0148339D01*
X0198067Y0148182D01*
X0198081Y0148024D01*
X0198091Y0147866D01*
X0198097Y0147708D01*
X0198099Y0147550D01*
X0198097Y0147392D01*
X0198091Y0147234D01*
X0198081Y0147076D01*
X0198067Y0146918D01*
X0198049Y0146761D01*
X0198028Y0146604D01*
X0198002Y0146448D01*
X0197972Y0146292D01*
X0197939Y0146137D01*
X0197901Y0145984D01*
X0197860Y0145831D01*
X0197815Y0145679D01*
X0197766Y0145528D01*
X0197713Y0145379D01*
X0197657Y0145231D01*
X0197597Y0145085D01*
X0197533Y0144940D01*
X0197465Y0144797D01*
X0197394Y0144655D01*
X0197320Y0144515D01*
X0197242Y0144378D01*
X0197160Y0144242D01*
X0197076Y0144108D01*
X0196987Y0143977D01*
X0196896Y0143848D01*
X0196801Y0143721D01*
X0196704Y0143596D01*
X0196603Y0143474D01*
X0196499Y0143355D01*
X0196392Y0143238D01*
X0196282Y0143124D01*
X0196169Y0143013D01*
X0196054Y0142904D01*
X0195936Y0142799D01*
X0195815Y0142697D01*
X0195692Y0142597D01*
X0195566Y0142501D01*
X0195438Y0142408D01*
X0195308Y0142318D01*
X0195175Y0142232D01*
X0195040Y0142148D01*
X0194904Y0142069D01*
X0194765Y0141992D01*
X0194624Y0141920D01*
X0194482Y0141850D01*
X0194338Y0141785D01*
X0194192Y0141723D01*
X0194045Y0141665D01*
X0193896Y0141610D01*
X0193746Y0141559D01*
X0193595Y0141512D01*
X0193443Y0141469D01*
X0193290Y0141430D01*
X0193135Y0141394D01*
X0192980Y0141363D01*
X0192824Y0141335D01*
X0192668Y0141311D01*
X0192511Y0141291D01*
X0192353Y0141275D01*
X0192196Y0141263D01*
X0192037Y0141255D01*
X0191879Y0141251D01*
X0191721Y0141251D01*
X0191563Y0141255D01*
X0191404Y0141263D01*
X0191247Y0141275D01*
X0191089Y0141291D01*
X0190932Y0141311D01*
X0190776Y0141335D01*
X0190620Y0141363D01*
X0190465Y0141394D01*
X0190310Y0141430D01*
X0190157Y0141469D01*
X0190005Y0141512D01*
X0189854Y0141559D01*
X0189704Y0141610D01*
X0189555Y0141665D01*
X0189408Y0141723D01*
X0189262Y0141785D01*
X0189118Y0141850D01*
X0188976Y0141920D01*
X0188835Y0141992D01*
X0188696Y0142069D01*
X0188560Y0142148D01*
X0188425Y0142232D01*
X0188292Y0142318D01*
X0188162Y0142408D01*
X0188034Y0142501D01*
X0187908Y0142597D01*
X0187785Y0142697D01*
X0187664Y0142799D01*
X0187546Y0142904D01*
X0187431Y0143013D01*
X0187318Y0143124D01*
X0187208Y0143238D01*
X0187101Y0143355D01*
X0186997Y0143474D01*
X0186896Y0143596D01*
X0186799Y0143721D01*
X0186704Y0143848D01*
X0186613Y0143977D01*
X0186524Y0144108D01*
X0186440Y0144242D01*
X0186358Y0144378D01*
X0186280Y0144515D01*
X0186206Y0144655D01*
X0186135Y0144797D01*
X0186067Y0144940D01*
X0186003Y0145085D01*
X0185943Y0145231D01*
X0185887Y0145379D01*
X0185834Y0145528D01*
X0185785Y0145679D01*
X0185740Y0145831D01*
X0185699Y0145984D01*
X0185661Y0146137D01*
X0185628Y0146292D01*
X0185598Y0146448D01*
X0185572Y0146604D01*
X0185551Y0146761D01*
X0185533Y0146918D01*
X0185519Y0147076D01*
X0185509Y0147234D01*
X0185503Y0147392D01*
X0185501Y0147550D01*
X0185501Y0077550D02*
X0185503Y0077708D01*
X0185509Y0077866D01*
X0185519Y0078024D01*
X0185533Y0078182D01*
X0185551Y0078339D01*
X0185572Y0078496D01*
X0185598Y0078652D01*
X0185628Y0078808D01*
X0185661Y0078963D01*
X0185699Y0079116D01*
X0185740Y0079269D01*
X0185785Y0079421D01*
X0185834Y0079572D01*
X0185887Y0079721D01*
X0185943Y0079869D01*
X0186003Y0080015D01*
X0186067Y0080160D01*
X0186135Y0080303D01*
X0186206Y0080445D01*
X0186280Y0080585D01*
X0186358Y0080722D01*
X0186440Y0080858D01*
X0186524Y0080992D01*
X0186613Y0081123D01*
X0186704Y0081252D01*
X0186799Y0081379D01*
X0186896Y0081504D01*
X0186997Y0081626D01*
X0187101Y0081745D01*
X0187208Y0081862D01*
X0187318Y0081976D01*
X0187431Y0082087D01*
X0187546Y0082196D01*
X0187664Y0082301D01*
X0187785Y0082403D01*
X0187908Y0082503D01*
X0188034Y0082599D01*
X0188162Y0082692D01*
X0188292Y0082782D01*
X0188425Y0082868D01*
X0188560Y0082952D01*
X0188696Y0083031D01*
X0188835Y0083108D01*
X0188976Y0083180D01*
X0189118Y0083250D01*
X0189262Y0083315D01*
X0189408Y0083377D01*
X0189555Y0083435D01*
X0189704Y0083490D01*
X0189854Y0083541D01*
X0190005Y0083588D01*
X0190157Y0083631D01*
X0190310Y0083670D01*
X0190465Y0083706D01*
X0190620Y0083737D01*
X0190776Y0083765D01*
X0190932Y0083789D01*
X0191089Y0083809D01*
X0191247Y0083825D01*
X0191404Y0083837D01*
X0191563Y0083845D01*
X0191721Y0083849D01*
X0191879Y0083849D01*
X0192037Y0083845D01*
X0192196Y0083837D01*
X0192353Y0083825D01*
X0192511Y0083809D01*
X0192668Y0083789D01*
X0192824Y0083765D01*
X0192980Y0083737D01*
X0193135Y0083706D01*
X0193290Y0083670D01*
X0193443Y0083631D01*
X0193595Y0083588D01*
X0193746Y0083541D01*
X0193896Y0083490D01*
X0194045Y0083435D01*
X0194192Y0083377D01*
X0194338Y0083315D01*
X0194482Y0083250D01*
X0194624Y0083180D01*
X0194765Y0083108D01*
X0194904Y0083031D01*
X0195040Y0082952D01*
X0195175Y0082868D01*
X0195308Y0082782D01*
X0195438Y0082692D01*
X0195566Y0082599D01*
X0195692Y0082503D01*
X0195815Y0082403D01*
X0195936Y0082301D01*
X0196054Y0082196D01*
X0196169Y0082087D01*
X0196282Y0081976D01*
X0196392Y0081862D01*
X0196499Y0081745D01*
X0196603Y0081626D01*
X0196704Y0081504D01*
X0196801Y0081379D01*
X0196896Y0081252D01*
X0196987Y0081123D01*
X0197076Y0080992D01*
X0197160Y0080858D01*
X0197242Y0080722D01*
X0197320Y0080585D01*
X0197394Y0080445D01*
X0197465Y0080303D01*
X0197533Y0080160D01*
X0197597Y0080015D01*
X0197657Y0079869D01*
X0197713Y0079721D01*
X0197766Y0079572D01*
X0197815Y0079421D01*
X0197860Y0079269D01*
X0197901Y0079116D01*
X0197939Y0078963D01*
X0197972Y0078808D01*
X0198002Y0078652D01*
X0198028Y0078496D01*
X0198049Y0078339D01*
X0198067Y0078182D01*
X0198081Y0078024D01*
X0198091Y0077866D01*
X0198097Y0077708D01*
X0198099Y0077550D01*
X0198097Y0077392D01*
X0198091Y0077234D01*
X0198081Y0077076D01*
X0198067Y0076918D01*
X0198049Y0076761D01*
X0198028Y0076604D01*
X0198002Y0076448D01*
X0197972Y0076292D01*
X0197939Y0076137D01*
X0197901Y0075984D01*
X0197860Y0075831D01*
X0197815Y0075679D01*
X0197766Y0075528D01*
X0197713Y0075379D01*
X0197657Y0075231D01*
X0197597Y0075085D01*
X0197533Y0074940D01*
X0197465Y0074797D01*
X0197394Y0074655D01*
X0197320Y0074515D01*
X0197242Y0074378D01*
X0197160Y0074242D01*
X0197076Y0074108D01*
X0196987Y0073977D01*
X0196896Y0073848D01*
X0196801Y0073721D01*
X0196704Y0073596D01*
X0196603Y0073474D01*
X0196499Y0073355D01*
X0196392Y0073238D01*
X0196282Y0073124D01*
X0196169Y0073013D01*
X0196054Y0072904D01*
X0195936Y0072799D01*
X0195815Y0072697D01*
X0195692Y0072597D01*
X0195566Y0072501D01*
X0195438Y0072408D01*
X0195308Y0072318D01*
X0195175Y0072232D01*
X0195040Y0072148D01*
X0194904Y0072069D01*
X0194765Y0071992D01*
X0194624Y0071920D01*
X0194482Y0071850D01*
X0194338Y0071785D01*
X0194192Y0071723D01*
X0194045Y0071665D01*
X0193896Y0071610D01*
X0193746Y0071559D01*
X0193595Y0071512D01*
X0193443Y0071469D01*
X0193290Y0071430D01*
X0193135Y0071394D01*
X0192980Y0071363D01*
X0192824Y0071335D01*
X0192668Y0071311D01*
X0192511Y0071291D01*
X0192353Y0071275D01*
X0192196Y0071263D01*
X0192037Y0071255D01*
X0191879Y0071251D01*
X0191721Y0071251D01*
X0191563Y0071255D01*
X0191404Y0071263D01*
X0191247Y0071275D01*
X0191089Y0071291D01*
X0190932Y0071311D01*
X0190776Y0071335D01*
X0190620Y0071363D01*
X0190465Y0071394D01*
X0190310Y0071430D01*
X0190157Y0071469D01*
X0190005Y0071512D01*
X0189854Y0071559D01*
X0189704Y0071610D01*
X0189555Y0071665D01*
X0189408Y0071723D01*
X0189262Y0071785D01*
X0189118Y0071850D01*
X0188976Y0071920D01*
X0188835Y0071992D01*
X0188696Y0072069D01*
X0188560Y0072148D01*
X0188425Y0072232D01*
X0188292Y0072318D01*
X0188162Y0072408D01*
X0188034Y0072501D01*
X0187908Y0072597D01*
X0187785Y0072697D01*
X0187664Y0072799D01*
X0187546Y0072904D01*
X0187431Y0073013D01*
X0187318Y0073124D01*
X0187208Y0073238D01*
X0187101Y0073355D01*
X0186997Y0073474D01*
X0186896Y0073596D01*
X0186799Y0073721D01*
X0186704Y0073848D01*
X0186613Y0073977D01*
X0186524Y0074108D01*
X0186440Y0074242D01*
X0186358Y0074378D01*
X0186280Y0074515D01*
X0186206Y0074655D01*
X0186135Y0074797D01*
X0186067Y0074940D01*
X0186003Y0075085D01*
X0185943Y0075231D01*
X0185887Y0075379D01*
X0185834Y0075528D01*
X0185785Y0075679D01*
X0185740Y0075831D01*
X0185699Y0075984D01*
X0185661Y0076137D01*
X0185628Y0076292D01*
X0185598Y0076448D01*
X0185572Y0076604D01*
X0185551Y0076761D01*
X0185533Y0076918D01*
X0185519Y0077076D01*
X0185509Y0077234D01*
X0185503Y0077392D01*
X0185501Y0077550D01*
X0320911Y0167550D02*
X0320913Y0167627D01*
X0320919Y0167703D01*
X0320929Y0167779D01*
X0320943Y0167854D01*
X0320960Y0167929D01*
X0320982Y0168002D01*
X0321007Y0168075D01*
X0321037Y0168146D01*
X0321069Y0168215D01*
X0321106Y0168282D01*
X0321145Y0168348D01*
X0321188Y0168411D01*
X0321235Y0168472D01*
X0321284Y0168531D01*
X0321337Y0168587D01*
X0321392Y0168640D01*
X0321450Y0168690D01*
X0321510Y0168737D01*
X0321573Y0168781D01*
X0321638Y0168822D01*
X0321705Y0168859D01*
X0321774Y0168893D01*
X0321844Y0168923D01*
X0321916Y0168949D01*
X0321990Y0168971D01*
X0322064Y0168990D01*
X0322139Y0169005D01*
X0322215Y0169016D01*
X0322291Y0169023D01*
X0322368Y0169026D01*
X0322444Y0169025D01*
X0322521Y0169020D01*
X0322597Y0169011D01*
X0322673Y0168998D01*
X0322747Y0168981D01*
X0322821Y0168961D01*
X0322894Y0168936D01*
X0322965Y0168908D01*
X0323035Y0168876D01*
X0323103Y0168841D01*
X0323169Y0168802D01*
X0323233Y0168760D01*
X0323294Y0168714D01*
X0323354Y0168665D01*
X0323410Y0168614D01*
X0323464Y0168559D01*
X0323515Y0168502D01*
X0323563Y0168442D01*
X0323608Y0168380D01*
X0323649Y0168315D01*
X0323687Y0168249D01*
X0323722Y0168181D01*
X0323752Y0168110D01*
X0323780Y0168039D01*
X0323803Y0167966D01*
X0323823Y0167892D01*
X0323839Y0167817D01*
X0323851Y0167741D01*
X0323859Y0167665D01*
X0323863Y0167588D01*
X0323863Y0167512D01*
X0323859Y0167435D01*
X0323851Y0167359D01*
X0323839Y0167283D01*
X0323823Y0167208D01*
X0323803Y0167134D01*
X0323780Y0167061D01*
X0323752Y0166990D01*
X0323722Y0166919D01*
X0323687Y0166851D01*
X0323649Y0166785D01*
X0323608Y0166720D01*
X0323563Y0166658D01*
X0323515Y0166598D01*
X0323464Y0166541D01*
X0323410Y0166486D01*
X0323354Y0166435D01*
X0323294Y0166386D01*
X0323233Y0166340D01*
X0323169Y0166298D01*
X0323103Y0166259D01*
X0323035Y0166224D01*
X0322965Y0166192D01*
X0322894Y0166164D01*
X0322821Y0166139D01*
X0322747Y0166119D01*
X0322673Y0166102D01*
X0322597Y0166089D01*
X0322521Y0166080D01*
X0322444Y0166075D01*
X0322368Y0166074D01*
X0322291Y0166077D01*
X0322215Y0166084D01*
X0322139Y0166095D01*
X0322064Y0166110D01*
X0321990Y0166129D01*
X0321916Y0166151D01*
X0321844Y0166177D01*
X0321774Y0166207D01*
X0321705Y0166241D01*
X0321638Y0166278D01*
X0321573Y0166319D01*
X0321510Y0166363D01*
X0321450Y0166410D01*
X0321392Y0166460D01*
X0321337Y0166513D01*
X0321284Y0166569D01*
X0321235Y0166628D01*
X0321188Y0166689D01*
X0321145Y0166752D01*
X0321106Y0166818D01*
X0321069Y0166885D01*
X0321037Y0166954D01*
X0321007Y0167025D01*
X0320982Y0167098D01*
X0320960Y0167171D01*
X0320943Y0167246D01*
X0320929Y0167321D01*
X0320919Y0167397D01*
X0320913Y0167473D01*
X0320911Y0167550D01*
X0331737Y0167550D02*
X0331739Y0167627D01*
X0331745Y0167703D01*
X0331755Y0167779D01*
X0331769Y0167854D01*
X0331786Y0167929D01*
X0331808Y0168002D01*
X0331833Y0168075D01*
X0331863Y0168146D01*
X0331895Y0168215D01*
X0331932Y0168282D01*
X0331971Y0168348D01*
X0332014Y0168411D01*
X0332061Y0168472D01*
X0332110Y0168531D01*
X0332163Y0168587D01*
X0332218Y0168640D01*
X0332276Y0168690D01*
X0332336Y0168737D01*
X0332399Y0168781D01*
X0332464Y0168822D01*
X0332531Y0168859D01*
X0332600Y0168893D01*
X0332670Y0168923D01*
X0332742Y0168949D01*
X0332816Y0168971D01*
X0332890Y0168990D01*
X0332965Y0169005D01*
X0333041Y0169016D01*
X0333117Y0169023D01*
X0333194Y0169026D01*
X0333270Y0169025D01*
X0333347Y0169020D01*
X0333423Y0169011D01*
X0333499Y0168998D01*
X0333573Y0168981D01*
X0333647Y0168961D01*
X0333720Y0168936D01*
X0333791Y0168908D01*
X0333861Y0168876D01*
X0333929Y0168841D01*
X0333995Y0168802D01*
X0334059Y0168760D01*
X0334120Y0168714D01*
X0334180Y0168665D01*
X0334236Y0168614D01*
X0334290Y0168559D01*
X0334341Y0168502D01*
X0334389Y0168442D01*
X0334434Y0168380D01*
X0334475Y0168315D01*
X0334513Y0168249D01*
X0334548Y0168181D01*
X0334578Y0168110D01*
X0334606Y0168039D01*
X0334629Y0167966D01*
X0334649Y0167892D01*
X0334665Y0167817D01*
X0334677Y0167741D01*
X0334685Y0167665D01*
X0334689Y0167588D01*
X0334689Y0167512D01*
X0334685Y0167435D01*
X0334677Y0167359D01*
X0334665Y0167283D01*
X0334649Y0167208D01*
X0334629Y0167134D01*
X0334606Y0167061D01*
X0334578Y0166990D01*
X0334548Y0166919D01*
X0334513Y0166851D01*
X0334475Y0166785D01*
X0334434Y0166720D01*
X0334389Y0166658D01*
X0334341Y0166598D01*
X0334290Y0166541D01*
X0334236Y0166486D01*
X0334180Y0166435D01*
X0334120Y0166386D01*
X0334059Y0166340D01*
X0333995Y0166298D01*
X0333929Y0166259D01*
X0333861Y0166224D01*
X0333791Y0166192D01*
X0333720Y0166164D01*
X0333647Y0166139D01*
X0333573Y0166119D01*
X0333499Y0166102D01*
X0333423Y0166089D01*
X0333347Y0166080D01*
X0333270Y0166075D01*
X0333194Y0166074D01*
X0333117Y0166077D01*
X0333041Y0166084D01*
X0332965Y0166095D01*
X0332890Y0166110D01*
X0332816Y0166129D01*
X0332742Y0166151D01*
X0332670Y0166177D01*
X0332600Y0166207D01*
X0332531Y0166241D01*
X0332464Y0166278D01*
X0332399Y0166319D01*
X0332336Y0166363D01*
X0332276Y0166410D01*
X0332218Y0166460D01*
X0332163Y0166513D01*
X0332110Y0166569D01*
X0332061Y0166628D01*
X0332014Y0166689D01*
X0331971Y0166752D01*
X0331932Y0166818D01*
X0331895Y0166885D01*
X0331863Y0166954D01*
X0331833Y0167025D01*
X0331808Y0167098D01*
X0331786Y0167171D01*
X0331769Y0167246D01*
X0331755Y0167321D01*
X0331745Y0167397D01*
X0331739Y0167473D01*
X0331737Y0167550D01*
D11*
X0271360Y0186898D03*
D12*
X0244054Y0186655D02*
X0240176Y0186655D01*
X0240176Y0188485D01*
X0244054Y0188485D01*
X0244054Y0186655D01*
X0244054Y0188485D02*
X0240176Y0188485D01*
X0240176Y0191655D02*
X0244054Y0191655D01*
X0240176Y0191655D02*
X0240176Y0193485D01*
X0244054Y0193485D01*
X0244054Y0191655D01*
X0244054Y0193485D02*
X0240176Y0193485D01*
X0240176Y0196655D02*
X0244054Y0196655D01*
X0240176Y0196655D02*
X0240176Y0198485D01*
X0244054Y0198485D01*
X0244054Y0196655D01*
X0244054Y0198485D02*
X0240176Y0198485D01*
X0240176Y0201655D02*
X0244054Y0201655D01*
X0240176Y0201655D02*
X0240176Y0203485D01*
X0244054Y0203485D01*
X0244054Y0201655D01*
X0244054Y0203485D02*
X0240176Y0203485D01*
X0240176Y0206655D02*
X0244054Y0206655D01*
X0240176Y0206655D02*
X0240176Y0208485D01*
X0244054Y0208485D01*
X0244054Y0206655D01*
X0244054Y0208485D02*
X0240176Y0208485D01*
X0240176Y0211655D02*
X0244054Y0211655D01*
X0240176Y0211655D02*
X0240176Y0213485D01*
X0244054Y0213485D01*
X0244054Y0211655D01*
X0244054Y0213485D02*
X0240176Y0213485D01*
X0240176Y0216655D02*
X0244054Y0216655D01*
X0240176Y0216655D02*
X0240176Y0218485D01*
X0244054Y0218485D01*
X0244054Y0216655D01*
X0244054Y0218485D02*
X0240176Y0218485D01*
X0240176Y0181655D02*
X0244054Y0181655D01*
X0240176Y0181655D02*
X0240176Y0183485D01*
X0244054Y0183485D01*
X0244054Y0181655D01*
X0244054Y0183485D02*
X0240176Y0183485D01*
X0240176Y0176655D02*
X0244054Y0176655D01*
X0240176Y0176655D02*
X0240176Y0178485D01*
X0244054Y0178485D01*
X0244054Y0176655D01*
X0244054Y0178485D02*
X0240176Y0178485D01*
X0240176Y0171655D02*
X0244054Y0171655D01*
X0240176Y0171655D02*
X0240176Y0173485D01*
X0244054Y0173485D01*
X0244054Y0171655D01*
X0244054Y0173485D02*
X0240176Y0173485D01*
X0240176Y0166655D02*
X0244054Y0166655D01*
X0240176Y0166655D02*
X0240176Y0168485D01*
X0244054Y0168485D01*
X0244054Y0166655D01*
X0244054Y0168485D02*
X0240176Y0168485D01*
X0240176Y0161655D02*
X0244054Y0161655D01*
X0240176Y0161655D02*
X0240176Y0163485D01*
X0244054Y0163485D01*
X0244054Y0161655D01*
X0244054Y0163485D02*
X0240176Y0163485D01*
X0240176Y0156655D02*
X0244054Y0156655D01*
X0240176Y0156655D02*
X0240176Y0158485D01*
X0244054Y0158485D01*
X0244054Y0156655D01*
X0244054Y0158485D02*
X0240176Y0158485D01*
X0240176Y0151655D02*
X0244054Y0151655D01*
X0240176Y0151655D02*
X0240176Y0153485D01*
X0244054Y0153485D01*
X0244054Y0151655D01*
X0244054Y0153485D02*
X0240176Y0153485D01*
X0240176Y0146655D02*
X0244054Y0146655D01*
X0240176Y0146655D02*
X0240176Y0148485D01*
X0244054Y0148485D01*
X0244054Y0146655D01*
X0244054Y0148485D02*
X0240176Y0148485D01*
X0240176Y0141655D02*
X0244054Y0141655D01*
X0240176Y0141655D02*
X0240176Y0143485D01*
X0244054Y0143485D01*
X0244054Y0141655D01*
X0244054Y0143485D02*
X0240176Y0143485D01*
X0240176Y0136655D02*
X0244054Y0136655D01*
X0240176Y0136655D02*
X0240176Y0138485D01*
X0244054Y0138485D01*
X0244054Y0136655D01*
X0244054Y0138485D02*
X0240176Y0138485D01*
X0240176Y0131655D02*
X0244054Y0131655D01*
X0240176Y0131655D02*
X0240176Y0133485D01*
X0244054Y0133485D01*
X0244054Y0131655D01*
X0244054Y0133485D02*
X0240176Y0133485D01*
X0240176Y0126655D02*
X0244054Y0126655D01*
X0240176Y0126655D02*
X0240176Y0128485D01*
X0244054Y0128485D01*
X0244054Y0126655D01*
X0244054Y0128485D02*
X0240176Y0128485D01*
X0309546Y0128485D02*
X0313424Y0128485D01*
X0313424Y0126655D01*
X0309546Y0126655D01*
X0309546Y0128485D01*
X0313424Y0128485D01*
X0313424Y0133485D02*
X0309546Y0133485D01*
X0313424Y0133485D02*
X0313424Y0131655D01*
X0309546Y0131655D01*
X0309546Y0133485D01*
X0313424Y0133485D01*
X0313424Y0138485D02*
X0309546Y0138485D01*
X0313424Y0138485D02*
X0313424Y0136655D01*
X0309546Y0136655D01*
X0309546Y0138485D01*
X0313424Y0138485D01*
X0313424Y0143485D02*
X0309546Y0143485D01*
X0313424Y0143485D02*
X0313424Y0141655D01*
X0309546Y0141655D01*
X0309546Y0143485D01*
X0313424Y0143485D01*
X0313424Y0148485D02*
X0309546Y0148485D01*
X0313424Y0148485D02*
X0313424Y0146655D01*
X0309546Y0146655D01*
X0309546Y0148485D01*
X0313424Y0148485D01*
X0313424Y0153485D02*
X0309546Y0153485D01*
X0313424Y0153485D02*
X0313424Y0151655D01*
X0309546Y0151655D01*
X0309546Y0153485D01*
X0313424Y0153485D01*
X0313424Y0158485D02*
X0309546Y0158485D01*
X0313424Y0158485D02*
X0313424Y0156655D01*
X0309546Y0156655D01*
X0309546Y0158485D01*
X0313424Y0158485D01*
X0313424Y0163485D02*
X0309546Y0163485D01*
X0313424Y0163485D02*
X0313424Y0161655D01*
X0309546Y0161655D01*
X0309546Y0163485D01*
X0313424Y0163485D01*
X0313424Y0168485D02*
X0309546Y0168485D01*
X0313424Y0168485D02*
X0313424Y0166655D01*
X0309546Y0166655D01*
X0309546Y0168485D01*
X0313424Y0168485D01*
X0313424Y0173485D02*
X0309546Y0173485D01*
X0313424Y0173485D02*
X0313424Y0171655D01*
X0309546Y0171655D01*
X0309546Y0173485D01*
X0313424Y0173485D01*
X0313424Y0178485D02*
X0309546Y0178485D01*
X0313424Y0178485D02*
X0313424Y0176655D01*
X0309546Y0176655D01*
X0309546Y0178485D01*
X0313424Y0178485D01*
X0313424Y0183485D02*
X0309546Y0183485D01*
X0313424Y0183485D02*
X0313424Y0181655D01*
X0309546Y0181655D01*
X0309546Y0183485D01*
X0313424Y0183485D01*
X0313424Y0188485D02*
X0309546Y0188485D01*
X0313424Y0188485D02*
X0313424Y0186655D01*
X0309546Y0186655D01*
X0309546Y0188485D01*
X0313424Y0188485D01*
X0313424Y0193485D02*
X0309546Y0193485D01*
X0313424Y0193485D02*
X0313424Y0191655D01*
X0309546Y0191655D01*
X0309546Y0193485D01*
X0313424Y0193485D01*
X0313424Y0198485D02*
X0309546Y0198485D01*
X0313424Y0198485D02*
X0313424Y0196655D01*
X0309546Y0196655D01*
X0309546Y0198485D01*
X0313424Y0198485D01*
X0313424Y0203485D02*
X0309546Y0203485D01*
X0313424Y0203485D02*
X0313424Y0201655D01*
X0309546Y0201655D01*
X0309546Y0203485D01*
X0313424Y0203485D01*
X0313424Y0208485D02*
X0309546Y0208485D01*
X0313424Y0208485D02*
X0313424Y0206655D01*
X0309546Y0206655D01*
X0309546Y0208485D01*
X0313424Y0208485D01*
X0313424Y0213485D02*
X0309546Y0213485D01*
X0313424Y0213485D02*
X0313424Y0211655D01*
X0309546Y0211655D01*
X0309546Y0213485D01*
X0313424Y0213485D01*
X0313424Y0218485D02*
X0309546Y0218485D01*
X0313424Y0218485D02*
X0313424Y0216655D01*
X0309546Y0216655D01*
X0309546Y0218485D01*
X0313424Y0218485D01*
D13*
X0322454Y0192550D03*
X0322454Y0187550D03*
X0329146Y0187550D03*
X0329146Y0192550D03*
X0329646Y0140550D03*
X0322954Y0140550D03*
X0269146Y0098050D03*
X0270954Y0092550D03*
X0270954Y0087550D03*
X0270954Y0082550D03*
X0277646Y0082550D03*
X0277646Y0087550D03*
X0277646Y0092550D03*
X0262454Y0098050D03*
X0240146Y0101050D03*
X0233454Y0101050D03*
X0225146Y0101050D03*
X0218454Y0101050D03*
X0217954Y0079550D03*
X0224646Y0079550D03*
X0233954Y0079550D03*
X0240646Y0079550D03*
X0264454Y0073550D03*
X0271146Y0073550D03*
X0305954Y0062550D03*
X0312646Y0062550D03*
X0312646Y0052550D03*
X0305954Y0052550D03*
X0313454Y0037550D03*
X0313454Y0032550D03*
X0313454Y0027550D03*
X0320146Y0027550D03*
X0320146Y0032550D03*
X0320146Y0037550D03*
X0280146Y0037550D03*
X0280146Y0032550D03*
X0280146Y0027550D03*
X0273454Y0027550D03*
X0273454Y0032550D03*
X0273454Y0037550D03*
X0256146Y0015050D03*
X0249454Y0015050D03*
X0314454Y0091550D03*
X0321146Y0091550D03*
X0230146Y0125550D03*
X0223454Y0125550D03*
X0223146Y0132550D03*
X0216454Y0132550D03*
X0223454Y0139550D03*
X0230146Y0139550D03*
X0230146Y0160550D03*
X0223454Y0160550D03*
X0223454Y0167550D03*
X0230146Y0167550D03*
D14*
X0231800Y0193704D03*
X0231800Y0200396D03*
X0231800Y0210704D03*
X0231800Y0217396D03*
X0269300Y0110896D03*
X0274300Y0110896D03*
X0279300Y0110896D03*
X0289300Y0110896D03*
X0289300Y0104204D03*
X0279300Y0104204D03*
X0274300Y0104204D03*
X0269300Y0104204D03*
X0291800Y0055896D03*
X0296800Y0055896D03*
X0296800Y0049204D03*
X0291800Y0049204D03*
X0280300Y0049896D03*
X0280300Y0043204D03*
X0265300Y0028396D03*
X0265300Y0021704D03*
X0276800Y0015896D03*
X0281800Y0015896D03*
X0286800Y0015896D03*
X0291800Y0015896D03*
X0296800Y0015896D03*
X0302300Y0015896D03*
X0302300Y0009204D03*
X0296800Y0009204D03*
X0291800Y0009204D03*
X0286800Y0009204D03*
X0281800Y0009204D03*
X0276800Y0009204D03*
X0240300Y0021704D03*
X0240300Y0028396D03*
D15*
X0319973Y0107432D03*
X0319973Y0109991D03*
X0319973Y0112550D03*
X0319973Y0115109D03*
X0319973Y0117668D03*
D16*
X0330800Y0117274D03*
X0330800Y0107826D03*
D17*
X0330800Y0096408D03*
X0330800Y0128692D03*
D18*
X0320170Y0125148D03*
X0320170Y0099952D03*
D19*
X0305737Y0101113D03*
X0297863Y0101113D03*
X0297863Y0108987D03*
X0240540Y0086113D03*
X0233060Y0086113D03*
X0225540Y0086113D03*
X0218060Y0086113D03*
X0221800Y0094381D03*
X0236800Y0094381D03*
X0228300Y0146219D03*
X0224560Y0154487D03*
X0232040Y0154487D03*
D20*
X0304950Y0108987D03*
D21*
X0319300Y0082530D03*
X0329300Y0082530D03*
X0329300Y0067570D03*
X0319300Y0067570D03*
X0321800Y0202570D03*
X0331800Y0202570D03*
X0331800Y0217530D03*
X0321800Y0217530D03*
D22*
X0222355Y0064550D03*
X0206245Y0064550D03*
D23*
X0211800Y0141995D03*
X0211800Y0158105D03*
D24*
X0122753Y0172050D03*
X0116847Y0172050D03*
X0092753Y0172050D03*
X0086847Y0172050D03*
D25*
X0248879Y0045050D03*
X0258721Y0045050D03*
D26*
X0324454Y0156526D03*
X0331146Y0156526D03*
X0331146Y0178574D03*
X0324454Y0178574D03*
D27*
X0254863Y0114790D03*
X0263131Y0111050D03*
X0254863Y0107310D03*
X0254863Y0090290D03*
X0263131Y0086550D03*
X0254863Y0082810D03*
D28*
X0241040Y0108219D03*
X0233560Y0108219D03*
X0225540Y0108219D03*
X0218060Y0108219D03*
X0221800Y0116881D03*
X0237300Y0116881D03*
D29*
X0290894Y0092196D03*
X0292863Y0092196D03*
X0294831Y0092196D03*
X0296800Y0092196D03*
X0298769Y0092196D03*
X0300737Y0092196D03*
X0302706Y0092196D03*
X0302706Y0072904D03*
X0300737Y0072904D03*
X0298769Y0072904D03*
X0296800Y0072904D03*
X0294831Y0072904D03*
X0292863Y0072904D03*
X0290894Y0072904D03*
D30*
X0287154Y0076644D03*
X0287154Y0078613D03*
X0287154Y0080581D03*
X0287154Y0082550D03*
X0287154Y0084519D03*
X0287154Y0086487D03*
X0287154Y0088456D03*
X0306446Y0088456D03*
X0306446Y0086487D03*
X0306446Y0084519D03*
X0306446Y0082550D03*
X0306446Y0080581D03*
X0306446Y0078613D03*
X0306446Y0076644D03*
D31*
X0299851Y0079499D03*
X0293749Y0079499D03*
X0293749Y0085601D03*
X0299851Y0085601D03*
D32*
X0304674Y0036487D03*
X0304674Y0034519D03*
X0304674Y0032550D03*
X0304674Y0030581D03*
X0304674Y0028613D03*
X0288926Y0028613D03*
X0288926Y0030581D03*
X0288926Y0032550D03*
X0288926Y0034519D03*
X0288926Y0036487D03*
D33*
X0292863Y0040424D03*
X0294831Y0040424D03*
X0296800Y0040424D03*
X0298769Y0040424D03*
X0300737Y0040424D03*
X0300737Y0024676D03*
X0298769Y0024676D03*
X0296800Y0024676D03*
X0294831Y0024676D03*
X0292863Y0024676D03*
D34*
X0293650Y0029400D03*
X0299950Y0029400D03*
X0299950Y0035700D03*
X0293650Y0035700D03*
D35*
X0255753Y0032274D03*
X0253784Y0032274D03*
X0251816Y0032274D03*
X0249847Y0032274D03*
X0249847Y0022826D03*
X0251816Y0022826D03*
X0253784Y0022826D03*
X0255753Y0022826D03*
D36*
X0257524Y0026566D03*
X0257524Y0028534D03*
X0248076Y0028534D03*
X0248076Y0026566D03*
M02*
