G75*
%MOIN*%
%OFA0B0*%
%FSLAX25Y25*%
%IPPOS*%
%LPD*%
%AMOC8*
5,1,8,0,0,1.08239X$1,22.5*
%
%ADD10C,0.00000*%
%ADD11C,0.01200*%
%ADD12C,0.01100*%
%ADD13C,0.00600*%
%ADD14C,0.01000*%
%ADD15C,0.00500*%
%ADD16C,0.00945*%
%ADD17C,0.02200*%
%ADD18R,0.07480X0.01181*%
%ADD19C,0.00276*%
%ADD20R,0.07087X0.02362*%
%ADD21R,0.04331X0.02362*%
%ADD22R,0.02362X0.07087*%
%ADD23R,0.02362X0.04331*%
%ADD24C,0.00800*%
%ADD25C,0.00806*%
%ADD26R,0.03000X0.01800*%
%ADD27R,0.01800X0.03000*%
%ADD28R,0.01575X0.02362*%
%ADD29C,0.00100*%
D10*
X0001800Y0047550D02*
X0226800Y0047550D01*
X0226800Y0002550D01*
X0336800Y0002550D01*
X0336800Y0222550D01*
X0226800Y0222550D01*
X0226800Y0177550D01*
X0001800Y0177550D01*
X0001800Y0047550D01*
X0005501Y0077550D02*
X0005503Y0077708D01*
X0005509Y0077866D01*
X0005519Y0078024D01*
X0005533Y0078182D01*
X0005551Y0078339D01*
X0005572Y0078496D01*
X0005598Y0078652D01*
X0005628Y0078808D01*
X0005661Y0078963D01*
X0005699Y0079116D01*
X0005740Y0079269D01*
X0005785Y0079421D01*
X0005834Y0079572D01*
X0005887Y0079721D01*
X0005943Y0079869D01*
X0006003Y0080015D01*
X0006067Y0080160D01*
X0006135Y0080303D01*
X0006206Y0080445D01*
X0006280Y0080585D01*
X0006358Y0080722D01*
X0006440Y0080858D01*
X0006524Y0080992D01*
X0006613Y0081123D01*
X0006704Y0081252D01*
X0006799Y0081379D01*
X0006896Y0081504D01*
X0006997Y0081626D01*
X0007101Y0081745D01*
X0007208Y0081862D01*
X0007318Y0081976D01*
X0007431Y0082087D01*
X0007546Y0082196D01*
X0007664Y0082301D01*
X0007785Y0082403D01*
X0007908Y0082503D01*
X0008034Y0082599D01*
X0008162Y0082692D01*
X0008292Y0082782D01*
X0008425Y0082868D01*
X0008560Y0082952D01*
X0008696Y0083031D01*
X0008835Y0083108D01*
X0008976Y0083180D01*
X0009118Y0083250D01*
X0009262Y0083315D01*
X0009408Y0083377D01*
X0009555Y0083435D01*
X0009704Y0083490D01*
X0009854Y0083541D01*
X0010005Y0083588D01*
X0010157Y0083631D01*
X0010310Y0083670D01*
X0010465Y0083706D01*
X0010620Y0083737D01*
X0010776Y0083765D01*
X0010932Y0083789D01*
X0011089Y0083809D01*
X0011247Y0083825D01*
X0011404Y0083837D01*
X0011563Y0083845D01*
X0011721Y0083849D01*
X0011879Y0083849D01*
X0012037Y0083845D01*
X0012196Y0083837D01*
X0012353Y0083825D01*
X0012511Y0083809D01*
X0012668Y0083789D01*
X0012824Y0083765D01*
X0012980Y0083737D01*
X0013135Y0083706D01*
X0013290Y0083670D01*
X0013443Y0083631D01*
X0013595Y0083588D01*
X0013746Y0083541D01*
X0013896Y0083490D01*
X0014045Y0083435D01*
X0014192Y0083377D01*
X0014338Y0083315D01*
X0014482Y0083250D01*
X0014624Y0083180D01*
X0014765Y0083108D01*
X0014904Y0083031D01*
X0015040Y0082952D01*
X0015175Y0082868D01*
X0015308Y0082782D01*
X0015438Y0082692D01*
X0015566Y0082599D01*
X0015692Y0082503D01*
X0015815Y0082403D01*
X0015936Y0082301D01*
X0016054Y0082196D01*
X0016169Y0082087D01*
X0016282Y0081976D01*
X0016392Y0081862D01*
X0016499Y0081745D01*
X0016603Y0081626D01*
X0016704Y0081504D01*
X0016801Y0081379D01*
X0016896Y0081252D01*
X0016987Y0081123D01*
X0017076Y0080992D01*
X0017160Y0080858D01*
X0017242Y0080722D01*
X0017320Y0080585D01*
X0017394Y0080445D01*
X0017465Y0080303D01*
X0017533Y0080160D01*
X0017597Y0080015D01*
X0017657Y0079869D01*
X0017713Y0079721D01*
X0017766Y0079572D01*
X0017815Y0079421D01*
X0017860Y0079269D01*
X0017901Y0079116D01*
X0017939Y0078963D01*
X0017972Y0078808D01*
X0018002Y0078652D01*
X0018028Y0078496D01*
X0018049Y0078339D01*
X0018067Y0078182D01*
X0018081Y0078024D01*
X0018091Y0077866D01*
X0018097Y0077708D01*
X0018099Y0077550D01*
X0018097Y0077392D01*
X0018091Y0077234D01*
X0018081Y0077076D01*
X0018067Y0076918D01*
X0018049Y0076761D01*
X0018028Y0076604D01*
X0018002Y0076448D01*
X0017972Y0076292D01*
X0017939Y0076137D01*
X0017901Y0075984D01*
X0017860Y0075831D01*
X0017815Y0075679D01*
X0017766Y0075528D01*
X0017713Y0075379D01*
X0017657Y0075231D01*
X0017597Y0075085D01*
X0017533Y0074940D01*
X0017465Y0074797D01*
X0017394Y0074655D01*
X0017320Y0074515D01*
X0017242Y0074378D01*
X0017160Y0074242D01*
X0017076Y0074108D01*
X0016987Y0073977D01*
X0016896Y0073848D01*
X0016801Y0073721D01*
X0016704Y0073596D01*
X0016603Y0073474D01*
X0016499Y0073355D01*
X0016392Y0073238D01*
X0016282Y0073124D01*
X0016169Y0073013D01*
X0016054Y0072904D01*
X0015936Y0072799D01*
X0015815Y0072697D01*
X0015692Y0072597D01*
X0015566Y0072501D01*
X0015438Y0072408D01*
X0015308Y0072318D01*
X0015175Y0072232D01*
X0015040Y0072148D01*
X0014904Y0072069D01*
X0014765Y0071992D01*
X0014624Y0071920D01*
X0014482Y0071850D01*
X0014338Y0071785D01*
X0014192Y0071723D01*
X0014045Y0071665D01*
X0013896Y0071610D01*
X0013746Y0071559D01*
X0013595Y0071512D01*
X0013443Y0071469D01*
X0013290Y0071430D01*
X0013135Y0071394D01*
X0012980Y0071363D01*
X0012824Y0071335D01*
X0012668Y0071311D01*
X0012511Y0071291D01*
X0012353Y0071275D01*
X0012196Y0071263D01*
X0012037Y0071255D01*
X0011879Y0071251D01*
X0011721Y0071251D01*
X0011563Y0071255D01*
X0011404Y0071263D01*
X0011247Y0071275D01*
X0011089Y0071291D01*
X0010932Y0071311D01*
X0010776Y0071335D01*
X0010620Y0071363D01*
X0010465Y0071394D01*
X0010310Y0071430D01*
X0010157Y0071469D01*
X0010005Y0071512D01*
X0009854Y0071559D01*
X0009704Y0071610D01*
X0009555Y0071665D01*
X0009408Y0071723D01*
X0009262Y0071785D01*
X0009118Y0071850D01*
X0008976Y0071920D01*
X0008835Y0071992D01*
X0008696Y0072069D01*
X0008560Y0072148D01*
X0008425Y0072232D01*
X0008292Y0072318D01*
X0008162Y0072408D01*
X0008034Y0072501D01*
X0007908Y0072597D01*
X0007785Y0072697D01*
X0007664Y0072799D01*
X0007546Y0072904D01*
X0007431Y0073013D01*
X0007318Y0073124D01*
X0007208Y0073238D01*
X0007101Y0073355D01*
X0006997Y0073474D01*
X0006896Y0073596D01*
X0006799Y0073721D01*
X0006704Y0073848D01*
X0006613Y0073977D01*
X0006524Y0074108D01*
X0006440Y0074242D01*
X0006358Y0074378D01*
X0006280Y0074515D01*
X0006206Y0074655D01*
X0006135Y0074797D01*
X0006067Y0074940D01*
X0006003Y0075085D01*
X0005943Y0075231D01*
X0005887Y0075379D01*
X0005834Y0075528D01*
X0005785Y0075679D01*
X0005740Y0075831D01*
X0005699Y0075984D01*
X0005661Y0076137D01*
X0005628Y0076292D01*
X0005598Y0076448D01*
X0005572Y0076604D01*
X0005551Y0076761D01*
X0005533Y0076918D01*
X0005519Y0077076D01*
X0005509Y0077234D01*
X0005503Y0077392D01*
X0005501Y0077550D01*
X0005501Y0147550D02*
X0005503Y0147708D01*
X0005509Y0147866D01*
X0005519Y0148024D01*
X0005533Y0148182D01*
X0005551Y0148339D01*
X0005572Y0148496D01*
X0005598Y0148652D01*
X0005628Y0148808D01*
X0005661Y0148963D01*
X0005699Y0149116D01*
X0005740Y0149269D01*
X0005785Y0149421D01*
X0005834Y0149572D01*
X0005887Y0149721D01*
X0005943Y0149869D01*
X0006003Y0150015D01*
X0006067Y0150160D01*
X0006135Y0150303D01*
X0006206Y0150445D01*
X0006280Y0150585D01*
X0006358Y0150722D01*
X0006440Y0150858D01*
X0006524Y0150992D01*
X0006613Y0151123D01*
X0006704Y0151252D01*
X0006799Y0151379D01*
X0006896Y0151504D01*
X0006997Y0151626D01*
X0007101Y0151745D01*
X0007208Y0151862D01*
X0007318Y0151976D01*
X0007431Y0152087D01*
X0007546Y0152196D01*
X0007664Y0152301D01*
X0007785Y0152403D01*
X0007908Y0152503D01*
X0008034Y0152599D01*
X0008162Y0152692D01*
X0008292Y0152782D01*
X0008425Y0152868D01*
X0008560Y0152952D01*
X0008696Y0153031D01*
X0008835Y0153108D01*
X0008976Y0153180D01*
X0009118Y0153250D01*
X0009262Y0153315D01*
X0009408Y0153377D01*
X0009555Y0153435D01*
X0009704Y0153490D01*
X0009854Y0153541D01*
X0010005Y0153588D01*
X0010157Y0153631D01*
X0010310Y0153670D01*
X0010465Y0153706D01*
X0010620Y0153737D01*
X0010776Y0153765D01*
X0010932Y0153789D01*
X0011089Y0153809D01*
X0011247Y0153825D01*
X0011404Y0153837D01*
X0011563Y0153845D01*
X0011721Y0153849D01*
X0011879Y0153849D01*
X0012037Y0153845D01*
X0012196Y0153837D01*
X0012353Y0153825D01*
X0012511Y0153809D01*
X0012668Y0153789D01*
X0012824Y0153765D01*
X0012980Y0153737D01*
X0013135Y0153706D01*
X0013290Y0153670D01*
X0013443Y0153631D01*
X0013595Y0153588D01*
X0013746Y0153541D01*
X0013896Y0153490D01*
X0014045Y0153435D01*
X0014192Y0153377D01*
X0014338Y0153315D01*
X0014482Y0153250D01*
X0014624Y0153180D01*
X0014765Y0153108D01*
X0014904Y0153031D01*
X0015040Y0152952D01*
X0015175Y0152868D01*
X0015308Y0152782D01*
X0015438Y0152692D01*
X0015566Y0152599D01*
X0015692Y0152503D01*
X0015815Y0152403D01*
X0015936Y0152301D01*
X0016054Y0152196D01*
X0016169Y0152087D01*
X0016282Y0151976D01*
X0016392Y0151862D01*
X0016499Y0151745D01*
X0016603Y0151626D01*
X0016704Y0151504D01*
X0016801Y0151379D01*
X0016896Y0151252D01*
X0016987Y0151123D01*
X0017076Y0150992D01*
X0017160Y0150858D01*
X0017242Y0150722D01*
X0017320Y0150585D01*
X0017394Y0150445D01*
X0017465Y0150303D01*
X0017533Y0150160D01*
X0017597Y0150015D01*
X0017657Y0149869D01*
X0017713Y0149721D01*
X0017766Y0149572D01*
X0017815Y0149421D01*
X0017860Y0149269D01*
X0017901Y0149116D01*
X0017939Y0148963D01*
X0017972Y0148808D01*
X0018002Y0148652D01*
X0018028Y0148496D01*
X0018049Y0148339D01*
X0018067Y0148182D01*
X0018081Y0148024D01*
X0018091Y0147866D01*
X0018097Y0147708D01*
X0018099Y0147550D01*
X0018097Y0147392D01*
X0018091Y0147234D01*
X0018081Y0147076D01*
X0018067Y0146918D01*
X0018049Y0146761D01*
X0018028Y0146604D01*
X0018002Y0146448D01*
X0017972Y0146292D01*
X0017939Y0146137D01*
X0017901Y0145984D01*
X0017860Y0145831D01*
X0017815Y0145679D01*
X0017766Y0145528D01*
X0017713Y0145379D01*
X0017657Y0145231D01*
X0017597Y0145085D01*
X0017533Y0144940D01*
X0017465Y0144797D01*
X0017394Y0144655D01*
X0017320Y0144515D01*
X0017242Y0144378D01*
X0017160Y0144242D01*
X0017076Y0144108D01*
X0016987Y0143977D01*
X0016896Y0143848D01*
X0016801Y0143721D01*
X0016704Y0143596D01*
X0016603Y0143474D01*
X0016499Y0143355D01*
X0016392Y0143238D01*
X0016282Y0143124D01*
X0016169Y0143013D01*
X0016054Y0142904D01*
X0015936Y0142799D01*
X0015815Y0142697D01*
X0015692Y0142597D01*
X0015566Y0142501D01*
X0015438Y0142408D01*
X0015308Y0142318D01*
X0015175Y0142232D01*
X0015040Y0142148D01*
X0014904Y0142069D01*
X0014765Y0141992D01*
X0014624Y0141920D01*
X0014482Y0141850D01*
X0014338Y0141785D01*
X0014192Y0141723D01*
X0014045Y0141665D01*
X0013896Y0141610D01*
X0013746Y0141559D01*
X0013595Y0141512D01*
X0013443Y0141469D01*
X0013290Y0141430D01*
X0013135Y0141394D01*
X0012980Y0141363D01*
X0012824Y0141335D01*
X0012668Y0141311D01*
X0012511Y0141291D01*
X0012353Y0141275D01*
X0012196Y0141263D01*
X0012037Y0141255D01*
X0011879Y0141251D01*
X0011721Y0141251D01*
X0011563Y0141255D01*
X0011404Y0141263D01*
X0011247Y0141275D01*
X0011089Y0141291D01*
X0010932Y0141311D01*
X0010776Y0141335D01*
X0010620Y0141363D01*
X0010465Y0141394D01*
X0010310Y0141430D01*
X0010157Y0141469D01*
X0010005Y0141512D01*
X0009854Y0141559D01*
X0009704Y0141610D01*
X0009555Y0141665D01*
X0009408Y0141723D01*
X0009262Y0141785D01*
X0009118Y0141850D01*
X0008976Y0141920D01*
X0008835Y0141992D01*
X0008696Y0142069D01*
X0008560Y0142148D01*
X0008425Y0142232D01*
X0008292Y0142318D01*
X0008162Y0142408D01*
X0008034Y0142501D01*
X0007908Y0142597D01*
X0007785Y0142697D01*
X0007664Y0142799D01*
X0007546Y0142904D01*
X0007431Y0143013D01*
X0007318Y0143124D01*
X0007208Y0143238D01*
X0007101Y0143355D01*
X0006997Y0143474D01*
X0006896Y0143596D01*
X0006799Y0143721D01*
X0006704Y0143848D01*
X0006613Y0143977D01*
X0006524Y0144108D01*
X0006440Y0144242D01*
X0006358Y0144378D01*
X0006280Y0144515D01*
X0006206Y0144655D01*
X0006135Y0144797D01*
X0006067Y0144940D01*
X0006003Y0145085D01*
X0005943Y0145231D01*
X0005887Y0145379D01*
X0005834Y0145528D01*
X0005785Y0145679D01*
X0005740Y0145831D01*
X0005699Y0145984D01*
X0005661Y0146137D01*
X0005628Y0146292D01*
X0005598Y0146448D01*
X0005572Y0146604D01*
X0005551Y0146761D01*
X0005533Y0146918D01*
X0005519Y0147076D01*
X0005509Y0147234D01*
X0005503Y0147392D01*
X0005501Y0147550D01*
X0185501Y0147550D02*
X0185503Y0147708D01*
X0185509Y0147866D01*
X0185519Y0148024D01*
X0185533Y0148182D01*
X0185551Y0148339D01*
X0185572Y0148496D01*
X0185598Y0148652D01*
X0185628Y0148808D01*
X0185661Y0148963D01*
X0185699Y0149116D01*
X0185740Y0149269D01*
X0185785Y0149421D01*
X0185834Y0149572D01*
X0185887Y0149721D01*
X0185943Y0149869D01*
X0186003Y0150015D01*
X0186067Y0150160D01*
X0186135Y0150303D01*
X0186206Y0150445D01*
X0186280Y0150585D01*
X0186358Y0150722D01*
X0186440Y0150858D01*
X0186524Y0150992D01*
X0186613Y0151123D01*
X0186704Y0151252D01*
X0186799Y0151379D01*
X0186896Y0151504D01*
X0186997Y0151626D01*
X0187101Y0151745D01*
X0187208Y0151862D01*
X0187318Y0151976D01*
X0187431Y0152087D01*
X0187546Y0152196D01*
X0187664Y0152301D01*
X0187785Y0152403D01*
X0187908Y0152503D01*
X0188034Y0152599D01*
X0188162Y0152692D01*
X0188292Y0152782D01*
X0188425Y0152868D01*
X0188560Y0152952D01*
X0188696Y0153031D01*
X0188835Y0153108D01*
X0188976Y0153180D01*
X0189118Y0153250D01*
X0189262Y0153315D01*
X0189408Y0153377D01*
X0189555Y0153435D01*
X0189704Y0153490D01*
X0189854Y0153541D01*
X0190005Y0153588D01*
X0190157Y0153631D01*
X0190310Y0153670D01*
X0190465Y0153706D01*
X0190620Y0153737D01*
X0190776Y0153765D01*
X0190932Y0153789D01*
X0191089Y0153809D01*
X0191247Y0153825D01*
X0191404Y0153837D01*
X0191563Y0153845D01*
X0191721Y0153849D01*
X0191879Y0153849D01*
X0192037Y0153845D01*
X0192196Y0153837D01*
X0192353Y0153825D01*
X0192511Y0153809D01*
X0192668Y0153789D01*
X0192824Y0153765D01*
X0192980Y0153737D01*
X0193135Y0153706D01*
X0193290Y0153670D01*
X0193443Y0153631D01*
X0193595Y0153588D01*
X0193746Y0153541D01*
X0193896Y0153490D01*
X0194045Y0153435D01*
X0194192Y0153377D01*
X0194338Y0153315D01*
X0194482Y0153250D01*
X0194624Y0153180D01*
X0194765Y0153108D01*
X0194904Y0153031D01*
X0195040Y0152952D01*
X0195175Y0152868D01*
X0195308Y0152782D01*
X0195438Y0152692D01*
X0195566Y0152599D01*
X0195692Y0152503D01*
X0195815Y0152403D01*
X0195936Y0152301D01*
X0196054Y0152196D01*
X0196169Y0152087D01*
X0196282Y0151976D01*
X0196392Y0151862D01*
X0196499Y0151745D01*
X0196603Y0151626D01*
X0196704Y0151504D01*
X0196801Y0151379D01*
X0196896Y0151252D01*
X0196987Y0151123D01*
X0197076Y0150992D01*
X0197160Y0150858D01*
X0197242Y0150722D01*
X0197320Y0150585D01*
X0197394Y0150445D01*
X0197465Y0150303D01*
X0197533Y0150160D01*
X0197597Y0150015D01*
X0197657Y0149869D01*
X0197713Y0149721D01*
X0197766Y0149572D01*
X0197815Y0149421D01*
X0197860Y0149269D01*
X0197901Y0149116D01*
X0197939Y0148963D01*
X0197972Y0148808D01*
X0198002Y0148652D01*
X0198028Y0148496D01*
X0198049Y0148339D01*
X0198067Y0148182D01*
X0198081Y0148024D01*
X0198091Y0147866D01*
X0198097Y0147708D01*
X0198099Y0147550D01*
X0198097Y0147392D01*
X0198091Y0147234D01*
X0198081Y0147076D01*
X0198067Y0146918D01*
X0198049Y0146761D01*
X0198028Y0146604D01*
X0198002Y0146448D01*
X0197972Y0146292D01*
X0197939Y0146137D01*
X0197901Y0145984D01*
X0197860Y0145831D01*
X0197815Y0145679D01*
X0197766Y0145528D01*
X0197713Y0145379D01*
X0197657Y0145231D01*
X0197597Y0145085D01*
X0197533Y0144940D01*
X0197465Y0144797D01*
X0197394Y0144655D01*
X0197320Y0144515D01*
X0197242Y0144378D01*
X0197160Y0144242D01*
X0197076Y0144108D01*
X0196987Y0143977D01*
X0196896Y0143848D01*
X0196801Y0143721D01*
X0196704Y0143596D01*
X0196603Y0143474D01*
X0196499Y0143355D01*
X0196392Y0143238D01*
X0196282Y0143124D01*
X0196169Y0143013D01*
X0196054Y0142904D01*
X0195936Y0142799D01*
X0195815Y0142697D01*
X0195692Y0142597D01*
X0195566Y0142501D01*
X0195438Y0142408D01*
X0195308Y0142318D01*
X0195175Y0142232D01*
X0195040Y0142148D01*
X0194904Y0142069D01*
X0194765Y0141992D01*
X0194624Y0141920D01*
X0194482Y0141850D01*
X0194338Y0141785D01*
X0194192Y0141723D01*
X0194045Y0141665D01*
X0193896Y0141610D01*
X0193746Y0141559D01*
X0193595Y0141512D01*
X0193443Y0141469D01*
X0193290Y0141430D01*
X0193135Y0141394D01*
X0192980Y0141363D01*
X0192824Y0141335D01*
X0192668Y0141311D01*
X0192511Y0141291D01*
X0192353Y0141275D01*
X0192196Y0141263D01*
X0192037Y0141255D01*
X0191879Y0141251D01*
X0191721Y0141251D01*
X0191563Y0141255D01*
X0191404Y0141263D01*
X0191247Y0141275D01*
X0191089Y0141291D01*
X0190932Y0141311D01*
X0190776Y0141335D01*
X0190620Y0141363D01*
X0190465Y0141394D01*
X0190310Y0141430D01*
X0190157Y0141469D01*
X0190005Y0141512D01*
X0189854Y0141559D01*
X0189704Y0141610D01*
X0189555Y0141665D01*
X0189408Y0141723D01*
X0189262Y0141785D01*
X0189118Y0141850D01*
X0188976Y0141920D01*
X0188835Y0141992D01*
X0188696Y0142069D01*
X0188560Y0142148D01*
X0188425Y0142232D01*
X0188292Y0142318D01*
X0188162Y0142408D01*
X0188034Y0142501D01*
X0187908Y0142597D01*
X0187785Y0142697D01*
X0187664Y0142799D01*
X0187546Y0142904D01*
X0187431Y0143013D01*
X0187318Y0143124D01*
X0187208Y0143238D01*
X0187101Y0143355D01*
X0186997Y0143474D01*
X0186896Y0143596D01*
X0186799Y0143721D01*
X0186704Y0143848D01*
X0186613Y0143977D01*
X0186524Y0144108D01*
X0186440Y0144242D01*
X0186358Y0144378D01*
X0186280Y0144515D01*
X0186206Y0144655D01*
X0186135Y0144797D01*
X0186067Y0144940D01*
X0186003Y0145085D01*
X0185943Y0145231D01*
X0185887Y0145379D01*
X0185834Y0145528D01*
X0185785Y0145679D01*
X0185740Y0145831D01*
X0185699Y0145984D01*
X0185661Y0146137D01*
X0185628Y0146292D01*
X0185598Y0146448D01*
X0185572Y0146604D01*
X0185551Y0146761D01*
X0185533Y0146918D01*
X0185519Y0147076D01*
X0185509Y0147234D01*
X0185503Y0147392D01*
X0185501Y0147550D01*
X0185501Y0077550D02*
X0185503Y0077708D01*
X0185509Y0077866D01*
X0185519Y0078024D01*
X0185533Y0078182D01*
X0185551Y0078339D01*
X0185572Y0078496D01*
X0185598Y0078652D01*
X0185628Y0078808D01*
X0185661Y0078963D01*
X0185699Y0079116D01*
X0185740Y0079269D01*
X0185785Y0079421D01*
X0185834Y0079572D01*
X0185887Y0079721D01*
X0185943Y0079869D01*
X0186003Y0080015D01*
X0186067Y0080160D01*
X0186135Y0080303D01*
X0186206Y0080445D01*
X0186280Y0080585D01*
X0186358Y0080722D01*
X0186440Y0080858D01*
X0186524Y0080992D01*
X0186613Y0081123D01*
X0186704Y0081252D01*
X0186799Y0081379D01*
X0186896Y0081504D01*
X0186997Y0081626D01*
X0187101Y0081745D01*
X0187208Y0081862D01*
X0187318Y0081976D01*
X0187431Y0082087D01*
X0187546Y0082196D01*
X0187664Y0082301D01*
X0187785Y0082403D01*
X0187908Y0082503D01*
X0188034Y0082599D01*
X0188162Y0082692D01*
X0188292Y0082782D01*
X0188425Y0082868D01*
X0188560Y0082952D01*
X0188696Y0083031D01*
X0188835Y0083108D01*
X0188976Y0083180D01*
X0189118Y0083250D01*
X0189262Y0083315D01*
X0189408Y0083377D01*
X0189555Y0083435D01*
X0189704Y0083490D01*
X0189854Y0083541D01*
X0190005Y0083588D01*
X0190157Y0083631D01*
X0190310Y0083670D01*
X0190465Y0083706D01*
X0190620Y0083737D01*
X0190776Y0083765D01*
X0190932Y0083789D01*
X0191089Y0083809D01*
X0191247Y0083825D01*
X0191404Y0083837D01*
X0191563Y0083845D01*
X0191721Y0083849D01*
X0191879Y0083849D01*
X0192037Y0083845D01*
X0192196Y0083837D01*
X0192353Y0083825D01*
X0192511Y0083809D01*
X0192668Y0083789D01*
X0192824Y0083765D01*
X0192980Y0083737D01*
X0193135Y0083706D01*
X0193290Y0083670D01*
X0193443Y0083631D01*
X0193595Y0083588D01*
X0193746Y0083541D01*
X0193896Y0083490D01*
X0194045Y0083435D01*
X0194192Y0083377D01*
X0194338Y0083315D01*
X0194482Y0083250D01*
X0194624Y0083180D01*
X0194765Y0083108D01*
X0194904Y0083031D01*
X0195040Y0082952D01*
X0195175Y0082868D01*
X0195308Y0082782D01*
X0195438Y0082692D01*
X0195566Y0082599D01*
X0195692Y0082503D01*
X0195815Y0082403D01*
X0195936Y0082301D01*
X0196054Y0082196D01*
X0196169Y0082087D01*
X0196282Y0081976D01*
X0196392Y0081862D01*
X0196499Y0081745D01*
X0196603Y0081626D01*
X0196704Y0081504D01*
X0196801Y0081379D01*
X0196896Y0081252D01*
X0196987Y0081123D01*
X0197076Y0080992D01*
X0197160Y0080858D01*
X0197242Y0080722D01*
X0197320Y0080585D01*
X0197394Y0080445D01*
X0197465Y0080303D01*
X0197533Y0080160D01*
X0197597Y0080015D01*
X0197657Y0079869D01*
X0197713Y0079721D01*
X0197766Y0079572D01*
X0197815Y0079421D01*
X0197860Y0079269D01*
X0197901Y0079116D01*
X0197939Y0078963D01*
X0197972Y0078808D01*
X0198002Y0078652D01*
X0198028Y0078496D01*
X0198049Y0078339D01*
X0198067Y0078182D01*
X0198081Y0078024D01*
X0198091Y0077866D01*
X0198097Y0077708D01*
X0198099Y0077550D01*
X0198097Y0077392D01*
X0198091Y0077234D01*
X0198081Y0077076D01*
X0198067Y0076918D01*
X0198049Y0076761D01*
X0198028Y0076604D01*
X0198002Y0076448D01*
X0197972Y0076292D01*
X0197939Y0076137D01*
X0197901Y0075984D01*
X0197860Y0075831D01*
X0197815Y0075679D01*
X0197766Y0075528D01*
X0197713Y0075379D01*
X0197657Y0075231D01*
X0197597Y0075085D01*
X0197533Y0074940D01*
X0197465Y0074797D01*
X0197394Y0074655D01*
X0197320Y0074515D01*
X0197242Y0074378D01*
X0197160Y0074242D01*
X0197076Y0074108D01*
X0196987Y0073977D01*
X0196896Y0073848D01*
X0196801Y0073721D01*
X0196704Y0073596D01*
X0196603Y0073474D01*
X0196499Y0073355D01*
X0196392Y0073238D01*
X0196282Y0073124D01*
X0196169Y0073013D01*
X0196054Y0072904D01*
X0195936Y0072799D01*
X0195815Y0072697D01*
X0195692Y0072597D01*
X0195566Y0072501D01*
X0195438Y0072408D01*
X0195308Y0072318D01*
X0195175Y0072232D01*
X0195040Y0072148D01*
X0194904Y0072069D01*
X0194765Y0071992D01*
X0194624Y0071920D01*
X0194482Y0071850D01*
X0194338Y0071785D01*
X0194192Y0071723D01*
X0194045Y0071665D01*
X0193896Y0071610D01*
X0193746Y0071559D01*
X0193595Y0071512D01*
X0193443Y0071469D01*
X0193290Y0071430D01*
X0193135Y0071394D01*
X0192980Y0071363D01*
X0192824Y0071335D01*
X0192668Y0071311D01*
X0192511Y0071291D01*
X0192353Y0071275D01*
X0192196Y0071263D01*
X0192037Y0071255D01*
X0191879Y0071251D01*
X0191721Y0071251D01*
X0191563Y0071255D01*
X0191404Y0071263D01*
X0191247Y0071275D01*
X0191089Y0071291D01*
X0190932Y0071311D01*
X0190776Y0071335D01*
X0190620Y0071363D01*
X0190465Y0071394D01*
X0190310Y0071430D01*
X0190157Y0071469D01*
X0190005Y0071512D01*
X0189854Y0071559D01*
X0189704Y0071610D01*
X0189555Y0071665D01*
X0189408Y0071723D01*
X0189262Y0071785D01*
X0189118Y0071850D01*
X0188976Y0071920D01*
X0188835Y0071992D01*
X0188696Y0072069D01*
X0188560Y0072148D01*
X0188425Y0072232D01*
X0188292Y0072318D01*
X0188162Y0072408D01*
X0188034Y0072501D01*
X0187908Y0072597D01*
X0187785Y0072697D01*
X0187664Y0072799D01*
X0187546Y0072904D01*
X0187431Y0073013D01*
X0187318Y0073124D01*
X0187208Y0073238D01*
X0187101Y0073355D01*
X0186997Y0073474D01*
X0186896Y0073596D01*
X0186799Y0073721D01*
X0186704Y0073848D01*
X0186613Y0073977D01*
X0186524Y0074108D01*
X0186440Y0074242D01*
X0186358Y0074378D01*
X0186280Y0074515D01*
X0186206Y0074655D01*
X0186135Y0074797D01*
X0186067Y0074940D01*
X0186003Y0075085D01*
X0185943Y0075231D01*
X0185887Y0075379D01*
X0185834Y0075528D01*
X0185785Y0075679D01*
X0185740Y0075831D01*
X0185699Y0075984D01*
X0185661Y0076137D01*
X0185628Y0076292D01*
X0185598Y0076448D01*
X0185572Y0076604D01*
X0185551Y0076761D01*
X0185533Y0076918D01*
X0185519Y0077076D01*
X0185509Y0077234D01*
X0185503Y0077392D01*
X0185501Y0077550D01*
X0320911Y0167550D02*
X0320913Y0167627D01*
X0320919Y0167703D01*
X0320929Y0167779D01*
X0320943Y0167854D01*
X0320960Y0167929D01*
X0320982Y0168002D01*
X0321007Y0168075D01*
X0321037Y0168146D01*
X0321069Y0168215D01*
X0321106Y0168282D01*
X0321145Y0168348D01*
X0321188Y0168411D01*
X0321235Y0168472D01*
X0321284Y0168531D01*
X0321337Y0168587D01*
X0321392Y0168640D01*
X0321450Y0168690D01*
X0321510Y0168737D01*
X0321573Y0168781D01*
X0321638Y0168822D01*
X0321705Y0168859D01*
X0321774Y0168893D01*
X0321844Y0168923D01*
X0321916Y0168949D01*
X0321990Y0168971D01*
X0322064Y0168990D01*
X0322139Y0169005D01*
X0322215Y0169016D01*
X0322291Y0169023D01*
X0322368Y0169026D01*
X0322444Y0169025D01*
X0322521Y0169020D01*
X0322597Y0169011D01*
X0322673Y0168998D01*
X0322747Y0168981D01*
X0322821Y0168961D01*
X0322894Y0168936D01*
X0322965Y0168908D01*
X0323035Y0168876D01*
X0323103Y0168841D01*
X0323169Y0168802D01*
X0323233Y0168760D01*
X0323294Y0168714D01*
X0323354Y0168665D01*
X0323410Y0168614D01*
X0323464Y0168559D01*
X0323515Y0168502D01*
X0323563Y0168442D01*
X0323608Y0168380D01*
X0323649Y0168315D01*
X0323687Y0168249D01*
X0323722Y0168181D01*
X0323752Y0168110D01*
X0323780Y0168039D01*
X0323803Y0167966D01*
X0323823Y0167892D01*
X0323839Y0167817D01*
X0323851Y0167741D01*
X0323859Y0167665D01*
X0323863Y0167588D01*
X0323863Y0167512D01*
X0323859Y0167435D01*
X0323851Y0167359D01*
X0323839Y0167283D01*
X0323823Y0167208D01*
X0323803Y0167134D01*
X0323780Y0167061D01*
X0323752Y0166990D01*
X0323722Y0166919D01*
X0323687Y0166851D01*
X0323649Y0166785D01*
X0323608Y0166720D01*
X0323563Y0166658D01*
X0323515Y0166598D01*
X0323464Y0166541D01*
X0323410Y0166486D01*
X0323354Y0166435D01*
X0323294Y0166386D01*
X0323233Y0166340D01*
X0323169Y0166298D01*
X0323103Y0166259D01*
X0323035Y0166224D01*
X0322965Y0166192D01*
X0322894Y0166164D01*
X0322821Y0166139D01*
X0322747Y0166119D01*
X0322673Y0166102D01*
X0322597Y0166089D01*
X0322521Y0166080D01*
X0322444Y0166075D01*
X0322368Y0166074D01*
X0322291Y0166077D01*
X0322215Y0166084D01*
X0322139Y0166095D01*
X0322064Y0166110D01*
X0321990Y0166129D01*
X0321916Y0166151D01*
X0321844Y0166177D01*
X0321774Y0166207D01*
X0321705Y0166241D01*
X0321638Y0166278D01*
X0321573Y0166319D01*
X0321510Y0166363D01*
X0321450Y0166410D01*
X0321392Y0166460D01*
X0321337Y0166513D01*
X0321284Y0166569D01*
X0321235Y0166628D01*
X0321188Y0166689D01*
X0321145Y0166752D01*
X0321106Y0166818D01*
X0321069Y0166885D01*
X0321037Y0166954D01*
X0321007Y0167025D01*
X0320982Y0167098D01*
X0320960Y0167171D01*
X0320943Y0167246D01*
X0320929Y0167321D01*
X0320919Y0167397D01*
X0320913Y0167473D01*
X0320911Y0167550D01*
X0331737Y0167550D02*
X0331739Y0167627D01*
X0331745Y0167703D01*
X0331755Y0167779D01*
X0331769Y0167854D01*
X0331786Y0167929D01*
X0331808Y0168002D01*
X0331833Y0168075D01*
X0331863Y0168146D01*
X0331895Y0168215D01*
X0331932Y0168282D01*
X0331971Y0168348D01*
X0332014Y0168411D01*
X0332061Y0168472D01*
X0332110Y0168531D01*
X0332163Y0168587D01*
X0332218Y0168640D01*
X0332276Y0168690D01*
X0332336Y0168737D01*
X0332399Y0168781D01*
X0332464Y0168822D01*
X0332531Y0168859D01*
X0332600Y0168893D01*
X0332670Y0168923D01*
X0332742Y0168949D01*
X0332816Y0168971D01*
X0332890Y0168990D01*
X0332965Y0169005D01*
X0333041Y0169016D01*
X0333117Y0169023D01*
X0333194Y0169026D01*
X0333270Y0169025D01*
X0333347Y0169020D01*
X0333423Y0169011D01*
X0333499Y0168998D01*
X0333573Y0168981D01*
X0333647Y0168961D01*
X0333720Y0168936D01*
X0333791Y0168908D01*
X0333861Y0168876D01*
X0333929Y0168841D01*
X0333995Y0168802D01*
X0334059Y0168760D01*
X0334120Y0168714D01*
X0334180Y0168665D01*
X0334236Y0168614D01*
X0334290Y0168559D01*
X0334341Y0168502D01*
X0334389Y0168442D01*
X0334434Y0168380D01*
X0334475Y0168315D01*
X0334513Y0168249D01*
X0334548Y0168181D01*
X0334578Y0168110D01*
X0334606Y0168039D01*
X0334629Y0167966D01*
X0334649Y0167892D01*
X0334665Y0167817D01*
X0334677Y0167741D01*
X0334685Y0167665D01*
X0334689Y0167588D01*
X0334689Y0167512D01*
X0334685Y0167435D01*
X0334677Y0167359D01*
X0334665Y0167283D01*
X0334649Y0167208D01*
X0334629Y0167134D01*
X0334606Y0167061D01*
X0334578Y0166990D01*
X0334548Y0166919D01*
X0334513Y0166851D01*
X0334475Y0166785D01*
X0334434Y0166720D01*
X0334389Y0166658D01*
X0334341Y0166598D01*
X0334290Y0166541D01*
X0334236Y0166486D01*
X0334180Y0166435D01*
X0334120Y0166386D01*
X0334059Y0166340D01*
X0333995Y0166298D01*
X0333929Y0166259D01*
X0333861Y0166224D01*
X0333791Y0166192D01*
X0333720Y0166164D01*
X0333647Y0166139D01*
X0333573Y0166119D01*
X0333499Y0166102D01*
X0333423Y0166089D01*
X0333347Y0166080D01*
X0333270Y0166075D01*
X0333194Y0166074D01*
X0333117Y0166077D01*
X0333041Y0166084D01*
X0332965Y0166095D01*
X0332890Y0166110D01*
X0332816Y0166129D01*
X0332742Y0166151D01*
X0332670Y0166177D01*
X0332600Y0166207D01*
X0332531Y0166241D01*
X0332464Y0166278D01*
X0332399Y0166319D01*
X0332336Y0166363D01*
X0332276Y0166410D01*
X0332218Y0166460D01*
X0332163Y0166513D01*
X0332110Y0166569D01*
X0332061Y0166628D01*
X0332014Y0166689D01*
X0331971Y0166752D01*
X0331932Y0166818D01*
X0331895Y0166885D01*
X0331863Y0166954D01*
X0331833Y0167025D01*
X0331808Y0167098D01*
X0331786Y0167171D01*
X0331769Y0167246D01*
X0331755Y0167321D01*
X0331745Y0167397D01*
X0331739Y0167473D01*
X0331737Y0167550D01*
D11*
X0220800Y0162550D02*
X0218300Y0163550D01*
X0267800Y0087550D02*
X0266300Y0085550D01*
X0256300Y0078550D02*
X0256300Y0075050D01*
X0059300Y0062550D02*
X0057300Y0060550D01*
X0059300Y0062550D02*
X0057300Y0064550D01*
X0059300Y0062550D02*
X0050800Y0062550D01*
X0017800Y0160550D02*
X0019800Y0162550D01*
X0017800Y0164550D01*
X0019800Y0162550D02*
X0011300Y0162550D01*
D12*
X0015350Y0169600D02*
X0018303Y0169600D01*
X0019287Y0170584D01*
X0019287Y0171568D01*
X0018303Y0172553D01*
X0015350Y0172553D01*
X0015350Y0175505D02*
X0015350Y0169600D01*
X0018303Y0172553D02*
X0019287Y0173537D01*
X0019287Y0174521D01*
X0018303Y0175505D01*
X0015350Y0175505D01*
X0021795Y0172553D02*
X0025732Y0172553D01*
X0018303Y0055505D02*
X0015350Y0055505D01*
X0015350Y0049600D01*
X0018303Y0049600D01*
X0019287Y0050584D01*
X0019287Y0051568D01*
X0018303Y0052553D01*
X0015350Y0052553D01*
X0018303Y0052553D02*
X0019287Y0053537D01*
X0019287Y0054521D01*
X0018303Y0055505D01*
X0021795Y0052553D02*
X0025732Y0052553D01*
X0192850Y0052553D02*
X0195803Y0052553D01*
X0196787Y0051568D01*
X0196787Y0050584D01*
X0195803Y0049600D01*
X0192850Y0049600D01*
X0192850Y0055505D01*
X0195803Y0055505D01*
X0196787Y0054521D01*
X0196787Y0053537D01*
X0195803Y0052553D01*
X0199295Y0052553D02*
X0203232Y0052553D01*
X0201264Y0054521D02*
X0201264Y0050584D01*
X0195803Y0169600D02*
X0192850Y0169600D01*
X0192850Y0175505D01*
X0195803Y0175505D01*
X0196787Y0174521D01*
X0196787Y0173537D01*
X0195803Y0172553D01*
X0192850Y0172553D01*
X0195803Y0172553D02*
X0196787Y0171568D01*
X0196787Y0170584D01*
X0195803Y0169600D01*
X0199295Y0172553D02*
X0203232Y0172553D01*
X0201264Y0174521D02*
X0201264Y0170584D01*
D13*
X0210100Y0167253D02*
X0211801Y0167253D01*
X0212369Y0166686D01*
X0212369Y0165551D01*
X0211801Y0164984D01*
X0210100Y0164984D01*
X0210100Y0163850D02*
X0210100Y0167253D01*
X0211234Y0164984D02*
X0212369Y0163850D01*
X0213783Y0163850D02*
X0216052Y0163850D01*
X0214917Y0163850D02*
X0214917Y0167253D01*
X0213783Y0166119D01*
X0217466Y0167253D02*
X0219735Y0167253D01*
X0219735Y0166686D01*
X0217466Y0164417D01*
X0217466Y0163850D01*
X0225234Y0170917D02*
X0225801Y0170350D01*
X0226935Y0170350D01*
X0227502Y0170917D01*
X0228917Y0170917D02*
X0229484Y0170350D01*
X0230618Y0170350D01*
X0231185Y0170917D01*
X0231185Y0173186D01*
X0230618Y0173753D01*
X0229484Y0173753D01*
X0228917Y0173186D01*
X0228917Y0172619D01*
X0229484Y0172051D01*
X0231185Y0172051D01*
X0227502Y0173186D02*
X0226935Y0173753D01*
X0225801Y0173753D01*
X0225234Y0173186D01*
X0225234Y0170917D01*
X0204000Y0153248D02*
X0204000Y0150980D01*
X0201731Y0153248D01*
X0201164Y0153248D01*
X0200597Y0152681D01*
X0200597Y0151547D01*
X0201164Y0150980D01*
X0200597Y0149565D02*
X0200597Y0147297D01*
X0204000Y0147297D01*
X0202299Y0147297D02*
X0202299Y0148431D01*
X0206118Y0129753D02*
X0205551Y0129186D01*
X0205551Y0126917D01*
X0206118Y0126350D01*
X0207252Y0126350D01*
X0207819Y0126917D01*
X0209234Y0126350D02*
X0211502Y0126350D01*
X0210368Y0126350D02*
X0210368Y0129753D01*
X0209234Y0128619D01*
X0207819Y0129186D02*
X0207252Y0129753D01*
X0206118Y0129753D01*
X0212917Y0128051D02*
X0212917Y0126917D01*
X0213484Y0126350D01*
X0214618Y0126350D01*
X0215185Y0126917D01*
X0215185Y0127484D01*
X0214618Y0128051D01*
X0212917Y0128051D01*
X0214051Y0129186D01*
X0215185Y0129753D01*
X0225100Y0122753D02*
X0226801Y0122753D01*
X0227369Y0122186D01*
X0227369Y0121051D01*
X0226801Y0120484D01*
X0225100Y0120484D01*
X0225100Y0119350D02*
X0225100Y0122753D01*
X0226234Y0120484D02*
X0227369Y0119350D01*
X0228783Y0119350D02*
X0231052Y0121619D01*
X0231052Y0122186D01*
X0230485Y0122753D01*
X0229350Y0122753D01*
X0228783Y0122186D01*
X0232466Y0122186D02*
X0232466Y0121619D01*
X0233033Y0121051D01*
X0234168Y0121051D01*
X0234735Y0120484D01*
X0234735Y0119917D01*
X0234168Y0119350D01*
X0233033Y0119350D01*
X0232466Y0119917D01*
X0232466Y0120484D01*
X0233033Y0121051D01*
X0234168Y0121051D02*
X0234735Y0121619D01*
X0234735Y0122186D01*
X0234168Y0122753D01*
X0233033Y0122753D01*
X0232466Y0122186D01*
X0231052Y0119350D02*
X0228783Y0119350D01*
X0215052Y0114253D02*
X0212783Y0114253D01*
X0212783Y0112551D01*
X0213917Y0113119D01*
X0214485Y0113119D01*
X0215052Y0112551D01*
X0215052Y0111417D01*
X0214485Y0110850D01*
X0213350Y0110850D01*
X0212783Y0111417D01*
X0211369Y0111417D02*
X0211369Y0113686D01*
X0210801Y0114253D01*
X0209667Y0114253D01*
X0209100Y0113686D01*
X0209100Y0111417D01*
X0209667Y0110850D01*
X0210801Y0110850D01*
X0211369Y0111417D01*
X0211369Y0110850D02*
X0210234Y0111984D01*
X0209600Y0098253D02*
X0211301Y0098253D01*
X0211869Y0097686D01*
X0211869Y0096551D01*
X0211301Y0095984D01*
X0209600Y0095984D01*
X0209600Y0094850D02*
X0209600Y0098253D01*
X0210734Y0095984D02*
X0211869Y0094850D01*
X0213283Y0094850D02*
X0215552Y0097119D01*
X0215552Y0097686D01*
X0214985Y0098253D01*
X0213850Y0098253D01*
X0213283Y0097686D01*
X0213283Y0094850D02*
X0215552Y0094850D01*
X0216966Y0095417D02*
X0217533Y0094850D01*
X0218668Y0094850D01*
X0219235Y0095417D01*
X0219235Y0096551D01*
X0218668Y0097119D01*
X0218101Y0097119D01*
X0216966Y0096551D01*
X0216966Y0098253D01*
X0219235Y0098253D01*
X0213896Y0091647D02*
X0212762Y0091079D01*
X0211628Y0089945D01*
X0213329Y0089945D01*
X0213896Y0089378D01*
X0213896Y0088811D01*
X0213329Y0088244D01*
X0212195Y0088244D01*
X0211628Y0088811D01*
X0211628Y0089945D01*
X0210213Y0091079D02*
X0210213Y0088811D01*
X0209646Y0088244D01*
X0208512Y0088244D01*
X0207944Y0088811D01*
X0207944Y0091079D01*
X0208512Y0091647D01*
X0209646Y0091647D01*
X0210213Y0091079D01*
X0209079Y0089378D02*
X0210213Y0088244D01*
X0208604Y0076253D02*
X0207470Y0075119D01*
X0208604Y0076253D02*
X0208604Y0072850D01*
X0207470Y0072850D02*
X0209739Y0072850D01*
X0206056Y0076253D02*
X0203787Y0076253D01*
X0203787Y0072850D01*
X0203787Y0074551D02*
X0204921Y0074551D01*
X0216600Y0074484D02*
X0218301Y0074484D01*
X0218869Y0075051D01*
X0218869Y0076186D01*
X0218301Y0076753D01*
X0216600Y0076753D01*
X0216600Y0073350D01*
X0217734Y0074484D02*
X0218869Y0073350D01*
X0220283Y0073350D02*
X0222552Y0075619D01*
X0222552Y0076186D01*
X0221985Y0076753D01*
X0220850Y0076753D01*
X0220283Y0076186D01*
X0220283Y0073350D02*
X0222552Y0073350D01*
X0223966Y0073917D02*
X0224533Y0073350D01*
X0225668Y0073350D01*
X0226235Y0073917D01*
X0226235Y0074484D01*
X0225668Y0075051D01*
X0223966Y0075051D01*
X0223966Y0073917D01*
X0223966Y0075051D02*
X0225101Y0076186D01*
X0226235Y0076753D01*
X0231551Y0076753D02*
X0231551Y0073350D01*
X0231551Y0074484D02*
X0233252Y0074484D01*
X0233819Y0075051D01*
X0233819Y0076186D01*
X0233252Y0076753D01*
X0231551Y0076753D01*
X0232685Y0074484D02*
X0233819Y0073350D01*
X0235234Y0073350D02*
X0237502Y0075619D01*
X0237502Y0076186D01*
X0236935Y0076753D01*
X0235801Y0076753D01*
X0235234Y0076186D01*
X0235234Y0073350D02*
X0237502Y0073350D01*
X0238917Y0075051D02*
X0241185Y0075051D01*
X0240618Y0073350D02*
X0240618Y0076753D01*
X0238917Y0075051D01*
X0245012Y0088244D02*
X0244444Y0088811D01*
X0244444Y0091079D01*
X0245012Y0091647D01*
X0246146Y0091647D01*
X0246713Y0091079D01*
X0246713Y0088811D01*
X0246146Y0088244D01*
X0245012Y0088244D01*
X0245579Y0089378D02*
X0246713Y0088244D01*
X0248128Y0089945D02*
X0250396Y0089945D01*
X0249829Y0088244D02*
X0249829Y0091647D01*
X0248128Y0089945D01*
X0253100Y0096350D02*
X0253100Y0099753D01*
X0254801Y0099753D01*
X0255369Y0099186D01*
X0255369Y0098051D01*
X0254801Y0097484D01*
X0253100Y0097484D01*
X0254234Y0097484D02*
X0255369Y0096350D01*
X0256783Y0096350D02*
X0256783Y0096917D01*
X0259052Y0099186D01*
X0259052Y0099753D01*
X0256783Y0099753D01*
X0253185Y0103186D02*
X0250917Y0100917D01*
X0250917Y0100350D01*
X0249502Y0100350D02*
X0247234Y0100350D01*
X0249502Y0102619D01*
X0249502Y0103186D01*
X0248935Y0103753D01*
X0247801Y0103753D01*
X0247234Y0103186D01*
X0245819Y0103186D02*
X0245819Y0102051D01*
X0245252Y0101484D01*
X0243551Y0101484D01*
X0244685Y0101484D02*
X0245819Y0100350D01*
X0243551Y0100350D02*
X0243551Y0103753D01*
X0245252Y0103753D01*
X0245819Y0103186D01*
X0250917Y0103753D02*
X0253185Y0103753D01*
X0253185Y0103186D01*
X0247783Y0110850D02*
X0247783Y0111417D01*
X0250052Y0113686D01*
X0250052Y0114253D01*
X0247783Y0114253D01*
X0246369Y0113686D02*
X0246369Y0111417D01*
X0245801Y0110850D01*
X0244667Y0110850D01*
X0244100Y0111417D01*
X0244100Y0113686D01*
X0244667Y0114253D01*
X0245801Y0114253D01*
X0246369Y0113686D01*
X0245234Y0111984D02*
X0246369Y0110850D01*
X0255994Y0119073D02*
X0256561Y0118506D01*
X0257695Y0118506D01*
X0258262Y0119073D01*
X0258262Y0121341D01*
X0257695Y0121908D01*
X0256561Y0121908D01*
X0255994Y0121341D01*
X0255994Y0119073D01*
X0257128Y0119640D02*
X0258262Y0118506D01*
X0259677Y0118506D02*
X0261945Y0118506D01*
X0260811Y0118506D02*
X0260811Y0121908D01*
X0259677Y0120774D01*
X0268097Y0124984D02*
X0268097Y0126685D01*
X0268664Y0127252D01*
X0269799Y0127252D01*
X0270366Y0126685D01*
X0270366Y0124984D01*
X0270366Y0126118D02*
X0271500Y0127252D01*
X0273097Y0126551D02*
X0273664Y0127119D01*
X0274799Y0127119D01*
X0275366Y0126551D01*
X0275366Y0124850D01*
X0276500Y0124850D02*
X0273097Y0124850D01*
X0273097Y0126551D01*
X0271500Y0124984D02*
X0268097Y0124984D01*
X0269799Y0128667D02*
X0269799Y0130935D01*
X0271500Y0130368D02*
X0268097Y0130368D01*
X0269799Y0128667D01*
X0273097Y0129667D02*
X0276500Y0129667D01*
X0276500Y0128533D02*
X0276500Y0130802D01*
X0278097Y0130235D02*
X0278664Y0130802D01*
X0279231Y0130802D01*
X0279799Y0130235D01*
X0280366Y0130802D01*
X0280933Y0130802D01*
X0281500Y0130235D01*
X0281500Y0129100D01*
X0280933Y0128533D01*
X0280933Y0127119D02*
X0281500Y0126551D01*
X0281500Y0125417D01*
X0280933Y0124850D01*
X0278664Y0124850D01*
X0278097Y0125417D01*
X0278097Y0126551D01*
X0278664Y0127119D01*
X0278664Y0128533D02*
X0278097Y0129100D01*
X0278097Y0130235D01*
X0279799Y0130235D02*
X0279799Y0129667D01*
X0276500Y0127119D02*
X0275366Y0125984D01*
X0274231Y0128533D02*
X0273097Y0129667D01*
X0261185Y0139417D02*
X0261185Y0139984D01*
X0260618Y0140551D01*
X0258917Y0140551D01*
X0258917Y0139417D01*
X0259484Y0138850D01*
X0260618Y0138850D01*
X0261185Y0139417D01*
X0258917Y0140551D02*
X0260051Y0141686D01*
X0261185Y0142253D01*
X0256368Y0142253D02*
X0255234Y0141119D01*
X0253819Y0141686D02*
X0253252Y0142253D01*
X0251551Y0142253D01*
X0251551Y0138850D01*
X0251551Y0139984D02*
X0253252Y0139984D01*
X0253819Y0140551D01*
X0253819Y0141686D01*
X0252685Y0139984D02*
X0253819Y0138850D01*
X0255234Y0138850D02*
X0257502Y0138850D01*
X0256368Y0138850D02*
X0256368Y0142253D01*
X0256274Y0151456D02*
X0255140Y0151456D01*
X0254572Y0152023D01*
X0253158Y0152023D02*
X0252591Y0151456D01*
X0251456Y0151456D01*
X0250889Y0152023D01*
X0250889Y0154292D01*
X0251456Y0154859D01*
X0252591Y0154859D01*
X0253158Y0154292D01*
X0253158Y0152023D01*
X0253158Y0151456D02*
X0252024Y0152591D01*
X0254572Y0154292D02*
X0255140Y0154859D01*
X0256274Y0154859D01*
X0256841Y0154292D01*
X0256841Y0153725D01*
X0256274Y0153158D01*
X0256841Y0152591D01*
X0256841Y0152023D01*
X0256274Y0151456D01*
X0256274Y0153158D02*
X0255707Y0153158D01*
X0299868Y0127812D02*
X0301002Y0127812D01*
X0300435Y0127812D02*
X0300435Y0124976D01*
X0299868Y0124409D01*
X0299301Y0124409D01*
X0298734Y0124976D01*
X0302417Y0124409D02*
X0304685Y0124409D01*
X0303551Y0124409D02*
X0303551Y0127812D01*
X0302417Y0126678D01*
X0291000Y0119735D02*
X0287597Y0119735D01*
X0289299Y0118033D01*
X0289299Y0120302D01*
X0290433Y0116619D02*
X0291000Y0116051D01*
X0291000Y0114917D01*
X0290433Y0114350D01*
X0288164Y0114350D01*
X0287597Y0114917D01*
X0287597Y0116051D01*
X0288164Y0116619D01*
X0310576Y0106564D02*
X0310576Y0103161D01*
X0312278Y0103161D01*
X0312845Y0103728D01*
X0312845Y0105997D01*
X0312278Y0106564D01*
X0310576Y0106564D01*
X0314259Y0105430D02*
X0315394Y0106564D01*
X0315394Y0103161D01*
X0316528Y0103161D02*
X0314259Y0103161D01*
X0312435Y0099253D02*
X0313002Y0098686D01*
X0313002Y0097551D01*
X0312435Y0096984D01*
X0310734Y0096984D01*
X0311868Y0096984D02*
X0313002Y0095850D01*
X0314417Y0096417D02*
X0314417Y0097551D01*
X0316118Y0097551D01*
X0316685Y0096984D01*
X0316685Y0096417D01*
X0316118Y0095850D01*
X0314984Y0095850D01*
X0314417Y0096417D01*
X0314417Y0097551D02*
X0315551Y0098686D01*
X0316685Y0099253D01*
X0312435Y0099253D02*
X0310734Y0099253D01*
X0310734Y0095850D01*
X0286185Y0095350D02*
X0283917Y0095350D01*
X0286185Y0097619D01*
X0286185Y0098186D01*
X0285618Y0098753D01*
X0284484Y0098753D01*
X0283917Y0098186D01*
X0282502Y0098186D02*
X0281935Y0098753D01*
X0280801Y0098753D01*
X0280234Y0098186D01*
X0280234Y0095917D01*
X0280801Y0095350D01*
X0281935Y0095350D01*
X0282502Y0095917D01*
X0268000Y0084935D02*
X0268000Y0082667D01*
X0268000Y0083801D02*
X0264597Y0083801D01*
X0265731Y0082667D01*
X0265164Y0081252D02*
X0264597Y0080685D01*
X0264597Y0079551D01*
X0265164Y0078984D01*
X0267433Y0078984D01*
X0268000Y0079551D01*
X0268000Y0080685D01*
X0267433Y0081252D01*
X0274600Y0079253D02*
X0274600Y0075850D01*
X0274600Y0076984D02*
X0276301Y0076984D01*
X0276869Y0077551D01*
X0276869Y0078686D01*
X0276301Y0079253D01*
X0274600Y0079253D01*
X0275734Y0076984D02*
X0276869Y0075850D01*
X0278283Y0075850D02*
X0280552Y0078119D01*
X0280552Y0078686D01*
X0279985Y0079253D01*
X0278850Y0079253D01*
X0278283Y0078686D01*
X0278283Y0075850D02*
X0280552Y0075850D01*
X0270552Y0070186D02*
X0270552Y0069619D01*
X0269985Y0069051D01*
X0270552Y0068484D01*
X0270552Y0067917D01*
X0269985Y0067350D01*
X0268850Y0067350D01*
X0268283Y0067917D01*
X0266869Y0067350D02*
X0265734Y0068484D01*
X0266301Y0068484D02*
X0264600Y0068484D01*
X0264600Y0067350D02*
X0264600Y0070753D01*
X0266301Y0070753D01*
X0266869Y0070186D01*
X0266869Y0069051D01*
X0266301Y0068484D01*
X0268283Y0070186D02*
X0268850Y0070753D01*
X0269985Y0070753D01*
X0270552Y0070186D01*
X0269985Y0069051D02*
X0269417Y0069051D01*
X0260945Y0070006D02*
X0258677Y0070006D01*
X0260945Y0072274D01*
X0260945Y0072841D01*
X0260378Y0073408D01*
X0259244Y0073408D01*
X0258677Y0072841D01*
X0257262Y0072841D02*
X0257262Y0070573D01*
X0256695Y0070006D01*
X0255561Y0070006D01*
X0254994Y0070573D01*
X0254994Y0072841D01*
X0255561Y0073408D01*
X0256695Y0073408D01*
X0257262Y0072841D01*
X0256128Y0071140D02*
X0257262Y0070006D01*
X0255579Y0055497D02*
X0255579Y0052094D01*
X0256713Y0052094D02*
X0254444Y0052094D01*
X0253030Y0052094D02*
X0250761Y0052094D01*
X0250761Y0055497D01*
X0254444Y0054363D02*
X0255579Y0055497D01*
X0269234Y0043753D02*
X0270935Y0043753D01*
X0271502Y0043186D01*
X0271502Y0042051D01*
X0270935Y0041484D01*
X0269234Y0041484D01*
X0270368Y0041484D02*
X0271502Y0040350D01*
X0272917Y0040917D02*
X0272917Y0041484D01*
X0273484Y0042051D01*
X0274618Y0042051D01*
X0275185Y0041484D01*
X0275185Y0040917D01*
X0274618Y0040350D01*
X0273484Y0040350D01*
X0272917Y0040917D01*
X0273484Y0042051D02*
X0272917Y0042619D01*
X0272917Y0043186D01*
X0273484Y0043753D01*
X0274618Y0043753D01*
X0275185Y0043186D01*
X0275185Y0042619D01*
X0274618Y0042051D01*
X0269234Y0040350D02*
X0269234Y0043753D01*
X0274097Y0048917D02*
X0274664Y0048350D01*
X0276933Y0048350D01*
X0277500Y0048917D01*
X0277500Y0050051D01*
X0276933Y0050619D01*
X0276933Y0052033D02*
X0277500Y0052033D01*
X0276933Y0052033D02*
X0274664Y0054302D01*
X0274097Y0054302D01*
X0274097Y0052033D01*
X0274664Y0050619D02*
X0274097Y0050051D01*
X0274097Y0048917D01*
X0284864Y0045611D02*
X0284864Y0042775D01*
X0285431Y0042208D01*
X0286565Y0042208D01*
X0287132Y0042775D01*
X0287132Y0045611D01*
X0288547Y0045044D02*
X0289114Y0045611D01*
X0290248Y0045611D01*
X0290816Y0045044D01*
X0290816Y0044477D01*
X0288547Y0042208D01*
X0290816Y0042208D01*
X0288433Y0049850D02*
X0289000Y0050417D01*
X0289000Y0051551D01*
X0288433Y0052119D01*
X0288433Y0053533D02*
X0289000Y0054100D01*
X0289000Y0055235D01*
X0288433Y0055802D01*
X0287299Y0055802D01*
X0286731Y0055235D01*
X0286731Y0054667D01*
X0287299Y0053533D01*
X0285597Y0053533D01*
X0285597Y0055802D01*
X0286164Y0052119D02*
X0285597Y0051551D01*
X0285597Y0050417D01*
X0286164Y0049850D01*
X0288433Y0049850D01*
X0299597Y0050417D02*
X0300164Y0049850D01*
X0302433Y0049850D01*
X0303000Y0050417D01*
X0303000Y0051551D01*
X0302433Y0052119D01*
X0302433Y0053533D02*
X0303000Y0054100D01*
X0303000Y0055235D01*
X0302433Y0055802D01*
X0301866Y0055802D01*
X0301299Y0055235D01*
X0301299Y0053533D01*
X0302433Y0053533D01*
X0301299Y0053533D02*
X0300164Y0054667D01*
X0299597Y0055802D01*
X0300164Y0052119D02*
X0299597Y0051551D01*
X0299597Y0050417D01*
X0304551Y0049753D02*
X0304551Y0046350D01*
X0304551Y0047484D02*
X0306252Y0047484D01*
X0306819Y0048051D01*
X0306819Y0049186D01*
X0306252Y0049753D01*
X0304551Y0049753D01*
X0305685Y0047484D02*
X0306819Y0046350D01*
X0308234Y0046350D02*
X0310502Y0046350D01*
X0309368Y0046350D02*
X0309368Y0049753D01*
X0308234Y0048619D01*
X0311917Y0048051D02*
X0314185Y0048051D01*
X0313618Y0046350D02*
X0313618Y0049753D01*
X0311917Y0048051D01*
X0312484Y0056350D02*
X0311917Y0056917D01*
X0312484Y0056350D02*
X0313618Y0056350D01*
X0314185Y0056917D01*
X0314185Y0057484D01*
X0313618Y0058051D01*
X0313051Y0058051D01*
X0313618Y0058051D02*
X0314185Y0058619D01*
X0314185Y0059186D01*
X0313618Y0059753D01*
X0312484Y0059753D01*
X0311917Y0059186D01*
X0309368Y0059753D02*
X0309368Y0056350D01*
X0308234Y0056350D02*
X0310502Y0056350D01*
X0308234Y0058619D02*
X0309368Y0059753D01*
X0306819Y0059186D02*
X0306819Y0058051D01*
X0306252Y0057484D01*
X0304551Y0057484D01*
X0305685Y0057484D02*
X0306819Y0056350D01*
X0304551Y0056350D02*
X0304551Y0059753D01*
X0306252Y0059753D01*
X0306819Y0059186D01*
X0299552Y0066350D02*
X0297283Y0066350D01*
X0298417Y0066350D02*
X0298417Y0069753D01*
X0297283Y0068619D01*
X0295869Y0069753D02*
X0295869Y0066917D01*
X0295301Y0066350D01*
X0294167Y0066350D01*
X0293600Y0066917D01*
X0293600Y0069753D01*
X0319766Y0061361D02*
X0320334Y0061928D01*
X0320901Y0061928D01*
X0321468Y0061361D01*
X0322035Y0061928D01*
X0322602Y0061928D01*
X0323169Y0061361D01*
X0323169Y0060226D01*
X0322602Y0059659D01*
X0322602Y0058245D02*
X0320334Y0058245D01*
X0319766Y0057677D01*
X0319766Y0055976D01*
X0323169Y0055976D01*
X0323169Y0057677D01*
X0322602Y0058245D01*
X0320334Y0059659D02*
X0319766Y0060226D01*
X0319766Y0061361D01*
X0321468Y0061361D02*
X0321468Y0060793D01*
X0326266Y0060226D02*
X0326834Y0059659D01*
X0326266Y0060226D02*
X0326266Y0061361D01*
X0326834Y0061928D01*
X0327401Y0061928D01*
X0329669Y0059659D01*
X0329669Y0061928D01*
X0329102Y0058245D02*
X0326834Y0058245D01*
X0326266Y0057677D01*
X0326266Y0055976D01*
X0329669Y0055976D01*
X0329669Y0057677D01*
X0329102Y0058245D01*
X0328985Y0039253D02*
X0327850Y0039253D01*
X0327283Y0038686D01*
X0327283Y0038119D01*
X0327850Y0037551D01*
X0328985Y0037551D01*
X0329552Y0036984D01*
X0329552Y0036417D01*
X0328985Y0035850D01*
X0327850Y0035850D01*
X0327283Y0036417D01*
X0327283Y0036984D01*
X0327850Y0037551D01*
X0328985Y0037551D02*
X0329552Y0038119D01*
X0329552Y0038686D01*
X0328985Y0039253D01*
X0325869Y0038686D02*
X0325301Y0039253D01*
X0324167Y0039253D01*
X0323600Y0038686D01*
X0323600Y0036417D01*
X0324167Y0035850D01*
X0325301Y0035850D01*
X0325869Y0036417D01*
X0325252Y0034253D02*
X0323551Y0034253D01*
X0323551Y0030850D01*
X0323551Y0031984D02*
X0325252Y0031984D01*
X0325819Y0032551D01*
X0325819Y0033686D01*
X0325252Y0034253D01*
X0327234Y0033119D02*
X0328368Y0034253D01*
X0328368Y0030850D01*
X0327234Y0030850D02*
X0329502Y0030850D01*
X0330917Y0031417D02*
X0333185Y0033686D01*
X0333185Y0031417D01*
X0332618Y0030850D01*
X0331484Y0030850D01*
X0330917Y0031417D01*
X0330917Y0033686D01*
X0331484Y0034253D01*
X0332618Y0034253D01*
X0333185Y0033686D01*
X0332051Y0029253D02*
X0330917Y0028119D01*
X0332051Y0029253D02*
X0332051Y0025850D01*
X0330917Y0025850D02*
X0333185Y0025850D01*
X0329502Y0025850D02*
X0327234Y0025850D01*
X0328368Y0025850D02*
X0328368Y0029253D01*
X0327234Y0028119D01*
X0325819Y0028686D02*
X0325819Y0027551D01*
X0325252Y0026984D01*
X0323551Y0026984D01*
X0324685Y0026984D02*
X0325819Y0025850D01*
X0323551Y0025850D02*
X0323551Y0029253D01*
X0325252Y0029253D01*
X0325819Y0028686D01*
X0325819Y0030850D02*
X0324685Y0031984D01*
X0322433Y0016935D02*
X0320164Y0016935D01*
X0322433Y0014667D01*
X0323000Y0015234D01*
X0323000Y0016368D01*
X0322433Y0016935D01*
X0322433Y0014667D02*
X0320164Y0014667D01*
X0319597Y0015234D01*
X0319597Y0016368D01*
X0320164Y0016935D01*
X0318000Y0016368D02*
X0317433Y0016935D01*
X0315164Y0016935D01*
X0314597Y0016368D01*
X0314597Y0015234D01*
X0315164Y0014667D01*
X0315731Y0014667D01*
X0316299Y0015234D01*
X0316299Y0016935D01*
X0318000Y0016368D02*
X0318000Y0015234D01*
X0317433Y0014667D01*
X0318000Y0013252D02*
X0318000Y0010984D01*
X0318000Y0012118D02*
X0314597Y0012118D01*
X0315731Y0010984D01*
X0315164Y0009569D02*
X0316299Y0009569D01*
X0316866Y0009002D01*
X0316866Y0007301D01*
X0316866Y0008435D02*
X0318000Y0009569D01*
X0319597Y0009002D02*
X0320164Y0009569D01*
X0321299Y0009569D01*
X0321866Y0009002D01*
X0321866Y0007301D01*
X0321866Y0008435D02*
X0323000Y0009569D01*
X0323000Y0010984D02*
X0320731Y0013252D01*
X0320164Y0013252D01*
X0319597Y0012685D01*
X0319597Y0011551D01*
X0320164Y0010984D01*
X0319597Y0009002D02*
X0319597Y0007301D01*
X0323000Y0007301D01*
X0326597Y0007301D02*
X0326597Y0009002D01*
X0327164Y0009569D01*
X0328299Y0009569D01*
X0328866Y0009002D01*
X0328866Y0007301D01*
X0328866Y0008435D02*
X0330000Y0009569D01*
X0330000Y0010984D02*
X0327731Y0013252D01*
X0327164Y0013252D01*
X0326597Y0012685D01*
X0326597Y0011551D01*
X0327164Y0010984D01*
X0330000Y0010984D02*
X0330000Y0013252D01*
X0330000Y0014667D02*
X0330000Y0016935D01*
X0330000Y0015801D02*
X0326597Y0015801D01*
X0327731Y0014667D01*
X0323000Y0013252D02*
X0323000Y0010984D01*
X0326597Y0007301D02*
X0330000Y0007301D01*
X0332097Y0007350D02*
X0332097Y0009051D01*
X0332664Y0009619D01*
X0333799Y0009619D01*
X0334366Y0009051D01*
X0334366Y0007350D01*
X0335500Y0007350D02*
X0332097Y0007350D01*
X0334366Y0008484D02*
X0335500Y0009619D01*
X0335500Y0011033D02*
X0335500Y0013302D01*
X0335500Y0012167D02*
X0332097Y0012167D01*
X0333231Y0011033D01*
X0332664Y0014716D02*
X0332097Y0015283D01*
X0332097Y0016418D01*
X0332664Y0016985D01*
X0333231Y0016985D01*
X0335500Y0014716D01*
X0335500Y0016985D01*
X0318000Y0007301D02*
X0314597Y0007301D01*
X0314597Y0009002D01*
X0315164Y0009569D01*
X0313000Y0009619D02*
X0311866Y0008484D01*
X0311866Y0009051D02*
X0311866Y0007350D01*
X0313000Y0007350D02*
X0309597Y0007350D01*
X0309597Y0009051D01*
X0310164Y0009619D01*
X0311299Y0009619D01*
X0311866Y0009051D01*
X0313000Y0011033D02*
X0313000Y0013302D01*
X0313000Y0012167D02*
X0309597Y0012167D01*
X0310731Y0011033D01*
X0308500Y0011033D02*
X0308500Y0013302D01*
X0308500Y0012167D02*
X0305097Y0012167D01*
X0306231Y0011033D01*
X0305664Y0009619D02*
X0305097Y0009051D01*
X0305097Y0007917D01*
X0305664Y0007350D01*
X0307933Y0007350D01*
X0308500Y0007917D01*
X0308500Y0009051D01*
X0307933Y0009619D01*
X0307933Y0014716D02*
X0305664Y0014716D01*
X0305097Y0015283D01*
X0305097Y0016418D01*
X0305664Y0016985D01*
X0307933Y0014716D01*
X0308500Y0015283D01*
X0308500Y0016418D01*
X0307933Y0016985D01*
X0305664Y0016985D01*
X0309597Y0016418D02*
X0310164Y0016985D01*
X0310731Y0016985D01*
X0311299Y0016418D01*
X0311299Y0015283D01*
X0310731Y0014716D01*
X0310164Y0014716D01*
X0309597Y0015283D01*
X0309597Y0016418D01*
X0311299Y0016418D02*
X0311866Y0016985D01*
X0312433Y0016985D01*
X0313000Y0016418D01*
X0313000Y0015283D01*
X0312433Y0014716D01*
X0311866Y0014716D01*
X0311299Y0015283D01*
X0288235Y0021417D02*
X0287668Y0020850D01*
X0286533Y0020850D01*
X0285966Y0021417D01*
X0285966Y0022551D02*
X0287101Y0023119D01*
X0287668Y0023119D01*
X0288235Y0022551D01*
X0288235Y0021417D01*
X0285966Y0022551D02*
X0285966Y0024253D01*
X0288235Y0024253D01*
X0283417Y0024253D02*
X0283417Y0020850D01*
X0282283Y0020850D02*
X0284552Y0020850D01*
X0282283Y0023119D02*
X0283417Y0024253D01*
X0280869Y0023686D02*
X0280869Y0022551D01*
X0280301Y0021984D01*
X0278600Y0021984D01*
X0278600Y0020850D02*
X0278600Y0024253D01*
X0280301Y0024253D01*
X0280869Y0023686D01*
X0279734Y0021984D02*
X0280869Y0020850D01*
X0269985Y0031350D02*
X0270552Y0031917D01*
X0270552Y0034186D01*
X0269985Y0034753D01*
X0268850Y0034753D01*
X0268283Y0034186D01*
X0268283Y0033619D01*
X0268850Y0033051D01*
X0270552Y0033051D01*
X0269985Y0031350D02*
X0268850Y0031350D01*
X0268283Y0031917D01*
X0266869Y0031350D02*
X0265734Y0032484D01*
X0266301Y0032484D02*
X0264600Y0032484D01*
X0264600Y0031350D02*
X0264600Y0034753D01*
X0266301Y0034753D01*
X0266869Y0034186D01*
X0266869Y0033051D01*
X0266301Y0032484D01*
X0249532Y0034972D02*
X0248965Y0034405D01*
X0247831Y0034405D01*
X0247263Y0034972D01*
X0245849Y0034972D02*
X0245282Y0034405D01*
X0244147Y0034405D01*
X0243580Y0034972D01*
X0243580Y0037808D01*
X0245849Y0037808D02*
X0245849Y0034972D01*
X0247263Y0037241D02*
X0247831Y0037808D01*
X0248965Y0037808D01*
X0249532Y0037241D01*
X0249532Y0036674D01*
X0248965Y0036107D01*
X0249532Y0035539D01*
X0249532Y0034972D01*
X0248965Y0036107D02*
X0248398Y0036107D01*
X0241433Y0018435D02*
X0242000Y0017868D01*
X0242000Y0016734D01*
X0241433Y0016167D01*
X0242000Y0014752D02*
X0242000Y0012484D01*
X0242000Y0013618D02*
X0238597Y0013618D01*
X0239731Y0012484D01*
X0239164Y0011069D02*
X0238597Y0010502D01*
X0238597Y0009368D01*
X0239164Y0008801D01*
X0241433Y0008801D01*
X0242000Y0009368D01*
X0242000Y0010502D01*
X0241433Y0011069D01*
X0239164Y0016167D02*
X0238597Y0016734D01*
X0238597Y0017868D01*
X0239164Y0018435D01*
X0239731Y0018435D01*
X0240299Y0017868D01*
X0240866Y0018435D01*
X0241433Y0018435D01*
X0240299Y0017868D02*
X0240299Y0017301D01*
X0247600Y0011186D02*
X0247600Y0008917D01*
X0248167Y0008350D01*
X0249301Y0008350D01*
X0249869Y0008917D01*
X0251283Y0008350D02*
X0253552Y0008350D01*
X0252417Y0008350D02*
X0252417Y0011753D01*
X0251283Y0010619D01*
X0249869Y0011186D02*
X0249301Y0011753D01*
X0248167Y0011753D01*
X0247600Y0011186D01*
X0254966Y0011186D02*
X0255533Y0011753D01*
X0256668Y0011753D01*
X0257235Y0011186D01*
X0257235Y0010619D01*
X0254966Y0008350D01*
X0257235Y0008350D01*
X0262597Y0009618D02*
X0266000Y0009618D01*
X0266000Y0008484D02*
X0266000Y0010752D01*
X0266000Y0012167D02*
X0266000Y0014435D01*
X0266000Y0013301D02*
X0262597Y0013301D01*
X0263731Y0012167D01*
X0262597Y0009618D02*
X0263731Y0008484D01*
X0263164Y0007069D02*
X0262597Y0006502D01*
X0262597Y0005368D01*
X0263164Y0004801D01*
X0265433Y0004801D01*
X0266000Y0005368D01*
X0266000Y0006502D01*
X0265433Y0007069D01*
X0129071Y0092783D02*
X0129071Y0095619D01*
X0127369Y0095619D01*
X0126802Y0095051D01*
X0126802Y0093917D01*
X0127369Y0093350D01*
X0129071Y0093350D01*
X0129071Y0092783D02*
X0128504Y0092216D01*
X0127936Y0092216D01*
X0125388Y0093350D02*
X0125388Y0095051D01*
X0124820Y0095619D01*
X0123119Y0095619D01*
X0123119Y0093350D01*
X0121798Y0093350D02*
X0120664Y0093350D01*
X0121231Y0093350D02*
X0121231Y0095619D01*
X0120664Y0095619D01*
X0121231Y0096753D02*
X0121231Y0097320D01*
X0119249Y0095619D02*
X0119249Y0093917D01*
X0118682Y0093350D01*
X0118115Y0093917D01*
X0117548Y0093350D01*
X0116980Y0093917D01*
X0116980Y0095619D01*
X0115613Y0095619D02*
X0115045Y0095619D01*
X0113911Y0094484D01*
X0113911Y0093350D02*
X0113911Y0095619D01*
X0112497Y0095051D02*
X0112497Y0094484D01*
X0110228Y0094484D01*
X0110228Y0093917D02*
X0110228Y0095051D01*
X0110795Y0095619D01*
X0111929Y0095619D01*
X0112497Y0095051D01*
X0111929Y0093350D02*
X0110795Y0093350D01*
X0110228Y0093917D01*
X0108813Y0093350D02*
X0108813Y0095051D01*
X0108246Y0095619D01*
X0107112Y0095619D01*
X0106545Y0095051D01*
X0105224Y0095619D02*
X0104089Y0095619D01*
X0104657Y0096186D02*
X0104657Y0093917D01*
X0105224Y0093350D01*
X0106545Y0093350D02*
X0106545Y0096753D01*
X0102675Y0095051D02*
X0102675Y0093350D01*
X0100973Y0093350D01*
X0100406Y0093917D01*
X0100973Y0094484D01*
X0102675Y0094484D01*
X0102675Y0095051D02*
X0102108Y0095619D01*
X0100973Y0095619D01*
X0098992Y0095051D02*
X0098992Y0094484D01*
X0096723Y0094484D01*
X0096723Y0093917D02*
X0096723Y0095051D01*
X0097290Y0095619D01*
X0098425Y0095619D01*
X0098992Y0095051D01*
X0098425Y0093350D02*
X0097290Y0093350D01*
X0096723Y0093917D01*
X0094174Y0095051D02*
X0093040Y0095051D01*
X0093040Y0093350D02*
X0093040Y0096753D01*
X0095309Y0096753D01*
X0094268Y0089753D02*
X0094268Y0086350D01*
X0096536Y0086350D01*
X0097951Y0086350D02*
X0100219Y0086350D01*
X0101634Y0086917D02*
X0102201Y0086350D01*
X0103335Y0086350D01*
X0103903Y0086917D01*
X0103903Y0089186D02*
X0103335Y0089753D01*
X0102201Y0089753D01*
X0101634Y0089186D01*
X0101634Y0086917D01*
X0097951Y0086350D02*
X0097951Y0089753D01*
X0089263Y0086917D02*
X0088696Y0086917D01*
X0088696Y0086350D01*
X0089263Y0086350D01*
X0089263Y0086917D01*
X0089263Y0086350D02*
X0088129Y0085216D01*
X0086715Y0086917D02*
X0086147Y0087484D01*
X0085013Y0087484D01*
X0084446Y0088051D01*
X0085013Y0088619D01*
X0086715Y0088619D01*
X0086715Y0086917D02*
X0086147Y0086350D01*
X0084446Y0086350D01*
X0083031Y0086350D02*
X0083031Y0088051D01*
X0082464Y0088619D01*
X0080763Y0088619D01*
X0080763Y0086350D01*
X0079348Y0086350D02*
X0077647Y0086350D01*
X0077080Y0086917D01*
X0077080Y0088051D01*
X0077647Y0088619D01*
X0079348Y0088619D01*
X0079348Y0085783D01*
X0078781Y0085216D01*
X0078214Y0085216D01*
X0075759Y0086350D02*
X0074624Y0086350D01*
X0075191Y0086350D02*
X0075191Y0088619D01*
X0074624Y0088619D01*
X0075191Y0089753D02*
X0075191Y0090320D01*
X0073210Y0088619D02*
X0071508Y0088619D01*
X0070941Y0088051D01*
X0071508Y0087484D01*
X0072643Y0087484D01*
X0073210Y0086917D01*
X0072643Y0086350D01*
X0070941Y0086350D01*
X0069527Y0087484D02*
X0067258Y0087484D01*
X0067258Y0086917D02*
X0067258Y0088051D01*
X0067825Y0088619D01*
X0068959Y0088619D01*
X0069527Y0088051D01*
X0069527Y0087484D01*
X0068959Y0086350D02*
X0067825Y0086350D01*
X0067258Y0086917D01*
X0065843Y0086350D02*
X0064142Y0086350D01*
X0063575Y0086917D01*
X0063575Y0088051D01*
X0064142Y0088619D01*
X0065843Y0088619D01*
X0065843Y0089753D02*
X0065843Y0086350D01*
X0062160Y0086917D02*
X0062160Y0088051D01*
X0061593Y0088619D01*
X0060459Y0088619D01*
X0059892Y0088051D01*
X0059892Y0086917D01*
X0060459Y0086350D01*
X0061593Y0086350D01*
X0062160Y0086917D01*
X0058571Y0086350D02*
X0057436Y0086350D01*
X0058003Y0086350D02*
X0058003Y0088619D01*
X0057436Y0088619D01*
X0058003Y0089753D02*
X0058003Y0090320D01*
X0055548Y0089753D02*
X0055548Y0086350D01*
X0054981Y0086350D02*
X0056115Y0086350D01*
X0053566Y0086350D02*
X0053566Y0088619D01*
X0054981Y0089753D02*
X0055548Y0089753D01*
X0054887Y0093350D02*
X0053753Y0093350D01*
X0054320Y0093350D02*
X0054320Y0095619D01*
X0053753Y0095619D01*
X0054320Y0096753D02*
X0054320Y0097320D01*
X0056209Y0095619D02*
X0057343Y0095619D01*
X0056776Y0096186D02*
X0056776Y0093917D01*
X0057343Y0093350D01*
X0062347Y0093917D02*
X0062914Y0093350D01*
X0064049Y0093350D01*
X0064616Y0093917D01*
X0064616Y0094484D01*
X0064049Y0095051D01*
X0063481Y0095051D01*
X0064049Y0095051D02*
X0064616Y0095619D01*
X0064616Y0096186D01*
X0064049Y0096753D01*
X0062914Y0096753D01*
X0062347Y0096186D01*
X0066030Y0093917D02*
X0066597Y0093917D01*
X0066597Y0093350D01*
X0066030Y0093350D01*
X0066030Y0093917D01*
X0067872Y0093917D02*
X0068439Y0093350D01*
X0069573Y0093350D01*
X0070140Y0093917D01*
X0070140Y0095051D01*
X0069573Y0095619D01*
X0069006Y0095619D01*
X0067872Y0095051D01*
X0067872Y0096753D01*
X0070140Y0096753D01*
X0071555Y0095619D02*
X0072122Y0096186D01*
X0072122Y0097320D01*
X0073256Y0097320D02*
X0073256Y0096186D01*
X0072689Y0095619D01*
X0078307Y0096753D02*
X0080576Y0096753D01*
X0079442Y0096753D02*
X0079442Y0093350D01*
X0081991Y0093350D02*
X0081991Y0096753D01*
X0084259Y0096753D01*
X0085674Y0096753D02*
X0087942Y0096753D01*
X0086808Y0096753D02*
X0086808Y0093350D01*
X0083125Y0095051D02*
X0081991Y0095051D01*
X0053566Y0086350D02*
X0051865Y0086350D01*
X0051298Y0086917D01*
X0051298Y0088619D01*
X0049977Y0088619D02*
X0049977Y0085783D01*
X0049409Y0085216D01*
X0048842Y0085216D01*
X0047428Y0086350D02*
X0047428Y0088051D01*
X0046861Y0088619D01*
X0045159Y0088619D01*
X0045159Y0086350D01*
X0043745Y0086350D02*
X0042043Y0086350D01*
X0041476Y0086917D01*
X0042043Y0087484D01*
X0043745Y0087484D01*
X0043745Y0088051D02*
X0043745Y0086350D01*
X0043745Y0088051D02*
X0043177Y0088619D01*
X0042043Y0088619D01*
X0040061Y0088619D02*
X0038360Y0088619D01*
X0037793Y0088051D01*
X0037793Y0086917D01*
X0038360Y0086350D01*
X0040061Y0086350D01*
X0040061Y0089753D01*
X0039448Y0093350D02*
X0037746Y0093350D01*
X0037179Y0093917D01*
X0037179Y0095051D01*
X0037746Y0095619D01*
X0039448Y0095619D01*
X0039448Y0096753D02*
X0039448Y0093350D01*
X0040862Y0093917D02*
X0041429Y0094484D01*
X0043131Y0094484D01*
X0043131Y0095051D02*
X0043131Y0093350D01*
X0041429Y0093350D01*
X0040862Y0093917D01*
X0041429Y0095619D02*
X0042564Y0095619D01*
X0043131Y0095051D01*
X0044545Y0095051D02*
X0045680Y0095051D01*
X0045112Y0096186D02*
X0045680Y0096753D01*
X0045112Y0096186D02*
X0045112Y0093350D01*
X0047001Y0093350D02*
X0047001Y0095619D01*
X0048135Y0095619D02*
X0048702Y0095619D01*
X0048135Y0095619D02*
X0047001Y0094484D01*
X0050070Y0093917D02*
X0050070Y0095619D01*
X0050070Y0093917D02*
X0050637Y0093350D01*
X0052339Y0093350D01*
X0052339Y0095619D01*
X0049977Y0090320D02*
X0049977Y0089753D01*
X0040601Y0081686D02*
X0040034Y0082253D01*
X0038900Y0082253D01*
X0038333Y0081686D01*
X0040601Y0081686D02*
X0040601Y0081119D01*
X0038333Y0078850D01*
X0040601Y0078850D01*
X0033235Y0081119D02*
X0032101Y0078850D01*
X0030966Y0081119D01*
X0029552Y0080551D02*
X0029552Y0079984D01*
X0027283Y0079984D01*
X0027283Y0079417D02*
X0027283Y0080551D01*
X0027850Y0081119D01*
X0028985Y0081119D01*
X0029552Y0080551D01*
X0028985Y0078850D02*
X0027850Y0078850D01*
X0027283Y0079417D01*
X0025869Y0078850D02*
X0024734Y0079984D01*
X0025301Y0079984D02*
X0023600Y0079984D01*
X0023600Y0078850D02*
X0023600Y0082253D01*
X0025301Y0082253D01*
X0025869Y0081686D01*
X0025869Y0080551D01*
X0025301Y0079984D01*
X0024762Y0086350D02*
X0023627Y0086350D01*
X0023060Y0086917D01*
X0025329Y0089186D01*
X0025329Y0086917D01*
X0024762Y0086350D01*
X0023060Y0086917D02*
X0023060Y0089186D01*
X0023627Y0089753D01*
X0024762Y0089753D01*
X0025329Y0089186D01*
X0026743Y0089186D02*
X0027311Y0089753D01*
X0028445Y0089753D01*
X0029012Y0089186D01*
X0029012Y0088619D01*
X0026743Y0086350D01*
X0029012Y0086350D01*
X0030427Y0086917D02*
X0032695Y0089186D01*
X0032695Y0086917D01*
X0032128Y0086350D01*
X0030994Y0086350D01*
X0030427Y0086917D01*
X0030427Y0089186D01*
X0030994Y0089753D01*
X0032128Y0089753D01*
X0032695Y0089186D01*
X0033496Y0093350D02*
X0033496Y0095619D01*
X0034630Y0096753D01*
X0035764Y0095619D01*
X0035764Y0093350D01*
X0035764Y0095051D02*
X0033496Y0095051D01*
X0028398Y0095051D02*
X0028398Y0094484D01*
X0026130Y0094484D01*
X0026130Y0093917D02*
X0026130Y0095051D01*
X0026697Y0095619D01*
X0027831Y0095619D01*
X0028398Y0095051D01*
X0027831Y0093350D02*
X0026697Y0093350D01*
X0026130Y0093917D01*
X0024715Y0093350D02*
X0024715Y0095051D01*
X0024148Y0095619D01*
X0023014Y0095619D01*
X0022446Y0095051D01*
X0021125Y0095619D02*
X0019991Y0095619D01*
X0020558Y0096186D02*
X0020558Y0093917D01*
X0021125Y0093350D01*
X0022446Y0093350D02*
X0022446Y0096753D01*
X0021079Y0089753D02*
X0019944Y0089753D01*
X0019377Y0089186D01*
X0021079Y0089753D02*
X0021646Y0089186D01*
X0021646Y0088619D01*
X0019377Y0086350D01*
X0021646Y0086350D01*
X0014373Y0087484D02*
X0014373Y0088619D01*
X0013239Y0089753D01*
X0011824Y0088619D02*
X0010123Y0088619D01*
X0009555Y0088051D01*
X0009555Y0086917D01*
X0010123Y0086350D01*
X0011824Y0086350D01*
X0013239Y0086350D02*
X0014373Y0087484D01*
X0013239Y0093350D02*
X0013239Y0095619D01*
X0014373Y0095619D02*
X0013239Y0094484D01*
X0011824Y0093917D02*
X0011824Y0095051D01*
X0011257Y0095619D01*
X0010123Y0095619D01*
X0009555Y0095051D01*
X0009555Y0093917D01*
X0010123Y0093350D01*
X0011257Y0093350D01*
X0011824Y0093917D01*
X0014373Y0095619D02*
X0014940Y0095619D01*
X0008234Y0095051D02*
X0007100Y0095051D01*
X0007667Y0096186D02*
X0008234Y0096753D01*
X0007667Y0096186D02*
X0007667Y0093350D01*
X0008234Y0089753D02*
X0007100Y0088619D01*
X0007100Y0087484D01*
X0008234Y0086350D01*
X0083894Y0168113D02*
X0095706Y0168113D01*
X0095706Y0168310D02*
X0095706Y0175790D01*
X0095706Y0175987D02*
X0083894Y0175987D01*
X0083894Y0175790D02*
X0083894Y0168310D01*
X0082245Y0172350D02*
X0082245Y0175753D01*
X0079976Y0175753D02*
X0079976Y0172350D01*
X0082245Y0172350D02*
X0079976Y0175753D01*
X0078561Y0175753D02*
X0076293Y0175753D01*
X0077427Y0175753D02*
X0077427Y0172350D01*
X0074878Y0172917D02*
X0074311Y0172350D01*
X0072610Y0172350D01*
X0072610Y0175753D01*
X0074311Y0175753D01*
X0074878Y0175186D01*
X0074878Y0174619D01*
X0074311Y0174051D01*
X0072610Y0174051D01*
X0074311Y0174051D02*
X0074878Y0173484D01*
X0074878Y0172917D01*
X0071195Y0171783D02*
X0068927Y0171783D01*
X0067512Y0172917D02*
X0066945Y0172350D01*
X0065811Y0172350D01*
X0065243Y0172917D01*
X0065811Y0174051D02*
X0066945Y0174051D01*
X0067512Y0173484D01*
X0067512Y0172917D01*
X0065811Y0174051D02*
X0065243Y0174619D01*
X0065243Y0175186D01*
X0065811Y0175753D01*
X0066945Y0175753D01*
X0067512Y0175186D01*
X0063829Y0175753D02*
X0063829Y0172350D01*
X0061560Y0175753D01*
X0061560Y0172350D01*
X0060146Y0172917D02*
X0059579Y0172350D01*
X0058444Y0172350D01*
X0057877Y0172917D01*
X0058444Y0174051D02*
X0059579Y0174051D01*
X0060146Y0173484D01*
X0060146Y0172917D01*
X0058444Y0174051D02*
X0057877Y0174619D01*
X0057877Y0175186D01*
X0058444Y0175753D01*
X0059579Y0175753D01*
X0060146Y0175186D01*
X0056556Y0174619D02*
X0056556Y0173484D01*
X0055422Y0172350D01*
X0054007Y0172350D02*
X0051739Y0172350D01*
X0054007Y0174619D01*
X0054007Y0175186D01*
X0053440Y0175753D01*
X0052306Y0175753D01*
X0051739Y0175186D01*
X0050324Y0174619D02*
X0050324Y0172350D01*
X0050324Y0174051D02*
X0048055Y0174051D01*
X0048055Y0174619D02*
X0048055Y0172350D01*
X0046734Y0172350D02*
X0045600Y0173484D01*
X0045600Y0174619D01*
X0046734Y0175753D01*
X0048055Y0174619D02*
X0049190Y0175753D01*
X0050324Y0174619D01*
X0055422Y0175753D02*
X0056556Y0174619D01*
X0096473Y0170417D02*
X0097040Y0169850D01*
X0097607Y0169850D01*
X0098175Y0170417D01*
X0098175Y0173253D01*
X0098742Y0173253D02*
X0097607Y0173253D01*
X0100156Y0172686D02*
X0100723Y0173253D01*
X0101858Y0173253D01*
X0102425Y0172686D01*
X0102425Y0172119D01*
X0101858Y0171551D01*
X0102425Y0170984D01*
X0102425Y0170417D01*
X0101858Y0169850D01*
X0100723Y0169850D01*
X0100156Y0170417D01*
X0101291Y0171551D02*
X0101858Y0171551D01*
X0106973Y0170417D02*
X0107540Y0169850D01*
X0108107Y0169850D01*
X0108675Y0170417D01*
X0108675Y0173253D01*
X0109242Y0173253D02*
X0108107Y0173253D01*
X0110656Y0172686D02*
X0111223Y0173253D01*
X0112358Y0173253D01*
X0112925Y0172686D01*
X0112925Y0172119D01*
X0110656Y0169850D01*
X0112925Y0169850D01*
X0113894Y0168310D02*
X0113894Y0175790D01*
X0113894Y0175987D02*
X0125706Y0175987D01*
X0125706Y0175790D02*
X0125706Y0168310D01*
X0125706Y0168113D02*
X0113894Y0168113D01*
X0127100Y0172917D02*
X0127667Y0172350D01*
X0128801Y0172350D01*
X0129369Y0172917D01*
X0129369Y0173484D01*
X0128801Y0174051D01*
X0127667Y0174051D01*
X0127100Y0174619D01*
X0127100Y0175186D01*
X0127667Y0175753D01*
X0128801Y0175753D01*
X0129369Y0175186D01*
X0130783Y0175753D02*
X0133052Y0172350D01*
X0133052Y0175753D01*
X0134466Y0175186D02*
X0134466Y0174619D01*
X0135033Y0174051D01*
X0136168Y0174051D01*
X0136735Y0173484D01*
X0136735Y0172917D01*
X0136168Y0172350D01*
X0135033Y0172350D01*
X0134466Y0172917D01*
X0134466Y0175186D02*
X0135033Y0175753D01*
X0136168Y0175753D01*
X0136735Y0175186D01*
X0138149Y0171783D02*
X0140418Y0171783D01*
X0141833Y0172917D02*
X0142400Y0172350D01*
X0143534Y0172350D01*
X0144101Y0172917D01*
X0144101Y0173484D01*
X0143534Y0174051D01*
X0142400Y0174051D01*
X0141833Y0174619D01*
X0141833Y0175186D01*
X0142400Y0175753D01*
X0143534Y0175753D01*
X0144101Y0175186D01*
X0145516Y0175753D02*
X0147784Y0175753D01*
X0146650Y0175753D02*
X0146650Y0172350D01*
X0149199Y0172350D02*
X0149199Y0174619D01*
X0150333Y0175753D01*
X0151467Y0174619D01*
X0151467Y0172350D01*
X0151467Y0174051D02*
X0149199Y0174051D01*
X0152882Y0175753D02*
X0155151Y0175753D01*
X0154016Y0175753D02*
X0154016Y0172350D01*
X0156565Y0173484D02*
X0156565Y0174619D01*
X0157699Y0175753D01*
X0159021Y0174619D02*
X0159021Y0172350D01*
X0157699Y0172350D02*
X0156565Y0173484D01*
X0159021Y0174051D02*
X0161289Y0174051D01*
X0161289Y0174619D02*
X0161289Y0172350D01*
X0162704Y0174051D02*
X0164405Y0175753D01*
X0164405Y0172350D01*
X0164972Y0174051D02*
X0162704Y0174051D01*
X0161289Y0174619D02*
X0160155Y0175753D01*
X0159021Y0174619D01*
X0166387Y0175753D02*
X0167521Y0174619D01*
X0167521Y0173484D01*
X0166387Y0172350D01*
X0130783Y0172350D02*
X0130783Y0175753D01*
X0234597Y0192868D02*
X0235164Y0192301D01*
X0237433Y0192301D01*
X0238000Y0192868D01*
X0238000Y0194002D01*
X0237433Y0194569D01*
X0238000Y0195984D02*
X0238000Y0198252D01*
X0238000Y0197118D02*
X0234597Y0197118D01*
X0235731Y0195984D01*
X0235164Y0194569D02*
X0234597Y0194002D01*
X0234597Y0192868D01*
X0234597Y0199667D02*
X0236299Y0199667D01*
X0235731Y0200801D01*
X0235731Y0201368D01*
X0236299Y0201935D01*
X0237433Y0201935D01*
X0238000Y0201368D01*
X0238000Y0200234D01*
X0237433Y0199667D01*
X0234597Y0199667D02*
X0234597Y0201935D01*
X0235164Y0207350D02*
X0237433Y0207350D01*
X0238000Y0207917D01*
X0238000Y0209051D01*
X0237433Y0209619D01*
X0238000Y0211033D02*
X0238000Y0213302D01*
X0238000Y0212167D02*
X0234597Y0212167D01*
X0235731Y0211033D01*
X0235164Y0209619D02*
X0234597Y0209051D01*
X0234597Y0207917D01*
X0235164Y0207350D01*
X0236299Y0214716D02*
X0236299Y0216985D01*
X0238000Y0216418D02*
X0234597Y0216418D01*
X0236299Y0214716D01*
X0296551Y0189253D02*
X0296551Y0185850D01*
X0296551Y0186984D02*
X0298252Y0186984D01*
X0298819Y0187551D01*
X0298819Y0188686D01*
X0298252Y0189253D01*
X0296551Y0189253D01*
X0296600Y0190850D02*
X0296600Y0194253D01*
X0298301Y0194253D01*
X0298869Y0193686D01*
X0298869Y0192551D01*
X0298301Y0191984D01*
X0296600Y0191984D01*
X0297734Y0191984D02*
X0298869Y0190850D01*
X0300283Y0190850D02*
X0302552Y0193119D01*
X0302552Y0193686D01*
X0301985Y0194253D01*
X0300850Y0194253D01*
X0300283Y0193686D01*
X0300283Y0190850D02*
X0302552Y0190850D01*
X0303966Y0190850D02*
X0306235Y0193119D01*
X0306235Y0193686D01*
X0305668Y0194253D01*
X0304533Y0194253D01*
X0303966Y0193686D01*
X0303966Y0190850D02*
X0306235Y0190850D01*
X0305618Y0189253D02*
X0306185Y0188686D01*
X0306185Y0188119D01*
X0305618Y0187551D01*
X0306185Y0186984D01*
X0306185Y0186417D01*
X0305618Y0185850D01*
X0304484Y0185850D01*
X0303917Y0186417D01*
X0302502Y0185850D02*
X0300234Y0185850D01*
X0302502Y0188119D01*
X0302502Y0188686D01*
X0301935Y0189253D01*
X0300801Y0189253D01*
X0300234Y0188686D01*
X0297685Y0186984D02*
X0298819Y0185850D01*
X0303917Y0188686D02*
X0304484Y0189253D01*
X0305618Y0189253D01*
X0305618Y0187551D02*
X0305051Y0187551D01*
X0306669Y0207476D02*
X0303266Y0207476D01*
X0303266Y0209177D01*
X0303834Y0209745D01*
X0306102Y0209745D01*
X0306669Y0209177D01*
X0306669Y0207476D01*
X0306102Y0211159D02*
X0306669Y0211726D01*
X0306669Y0212861D01*
X0306102Y0213428D01*
X0304968Y0213428D01*
X0304401Y0212861D01*
X0304401Y0212293D01*
X0304968Y0211159D01*
X0303266Y0211159D01*
X0303266Y0213428D01*
X0301169Y0212861D02*
X0297766Y0212861D01*
X0299468Y0211159D01*
X0299468Y0213428D01*
X0300602Y0209745D02*
X0298334Y0209745D01*
X0297766Y0209177D01*
X0297766Y0207476D01*
X0301169Y0207476D01*
X0301169Y0209177D01*
X0300602Y0209745D01*
X0319646Y0162461D02*
X0319646Y0160193D01*
X0319646Y0161327D02*
X0316243Y0161327D01*
X0317377Y0160193D01*
X0317377Y0158778D02*
X0317944Y0158211D01*
X0317944Y0156510D01*
X0317944Y0155095D02*
X0318511Y0154528D01*
X0318511Y0152826D01*
X0319646Y0152826D02*
X0316243Y0152826D01*
X0316243Y0154528D01*
X0316810Y0155095D01*
X0317944Y0155095D01*
X0316243Y0156510D02*
X0319646Y0156510D01*
X0319646Y0158211D01*
X0319079Y0158778D01*
X0318511Y0158778D01*
X0317944Y0158211D01*
X0317377Y0158778D02*
X0316810Y0158778D01*
X0316243Y0158211D01*
X0316243Y0156510D01*
X0317100Y0137753D02*
X0318801Y0137753D01*
X0319369Y0137186D01*
X0319369Y0136051D01*
X0318801Y0135484D01*
X0317100Y0135484D01*
X0317100Y0134350D02*
X0317100Y0137753D01*
X0318234Y0135484D02*
X0319369Y0134350D01*
X0320783Y0134917D02*
X0321350Y0134350D01*
X0322485Y0134350D01*
X0323052Y0134917D01*
X0323052Y0136051D01*
X0322485Y0136619D01*
X0321917Y0136619D01*
X0320783Y0136051D01*
X0320783Y0137753D01*
X0323052Y0137753D01*
D14*
X0326076Y0129479D02*
X0318989Y0129479D01*
X0319383Y0120818D02*
X0319383Y0119637D01*
X0335524Y0129479D02*
X0336509Y0129479D01*
X0319383Y0105463D02*
X0319383Y0104282D01*
X0318989Y0095621D02*
X0326076Y0095621D01*
X0335524Y0095621D02*
X0336509Y0095621D01*
X0306643Y0092393D02*
X0306643Y0090424D01*
X0304674Y0092393D01*
X0306643Y0092393D01*
X0304741Y0095148D02*
X0304743Y0095215D01*
X0304749Y0095281D01*
X0304759Y0095347D01*
X0304773Y0095412D01*
X0304790Y0095476D01*
X0304812Y0095539D01*
X0304837Y0095601D01*
X0304866Y0095661D01*
X0304899Y0095719D01*
X0304935Y0095776D01*
X0304974Y0095829D01*
X0305016Y0095881D01*
X0305061Y0095930D01*
X0305110Y0095976D01*
X0305160Y0096019D01*
X0305214Y0096059D01*
X0305269Y0096096D01*
X0305327Y0096129D01*
X0305387Y0096159D01*
X0305448Y0096185D01*
X0305511Y0096207D01*
X0305575Y0096226D01*
X0305640Y0096241D01*
X0305705Y0096252D01*
X0305772Y0096259D01*
X0305838Y0096262D01*
X0305905Y0096261D01*
X0305971Y0096256D01*
X0306037Y0096247D01*
X0306103Y0096234D01*
X0306167Y0096217D01*
X0306231Y0096197D01*
X0306293Y0096172D01*
X0306353Y0096144D01*
X0306412Y0096113D01*
X0306469Y0096078D01*
X0306523Y0096039D01*
X0306575Y0095998D01*
X0306625Y0095953D01*
X0306672Y0095906D01*
X0306715Y0095856D01*
X0306756Y0095803D01*
X0306794Y0095748D01*
X0306828Y0095691D01*
X0306859Y0095631D01*
X0306886Y0095570D01*
X0306909Y0095508D01*
X0306929Y0095444D01*
X0306945Y0095380D01*
X0306957Y0095314D01*
X0306965Y0095248D01*
X0306969Y0095181D01*
X0306969Y0095115D01*
X0306965Y0095048D01*
X0306957Y0094982D01*
X0306945Y0094916D01*
X0306929Y0094852D01*
X0306909Y0094788D01*
X0306886Y0094726D01*
X0306859Y0094665D01*
X0306828Y0094605D01*
X0306794Y0094548D01*
X0306756Y0094493D01*
X0306715Y0094440D01*
X0306672Y0094390D01*
X0306625Y0094343D01*
X0306575Y0094298D01*
X0306523Y0094257D01*
X0306469Y0094218D01*
X0306412Y0094183D01*
X0306353Y0094152D01*
X0306293Y0094124D01*
X0306231Y0094099D01*
X0306167Y0094079D01*
X0306103Y0094062D01*
X0306037Y0094049D01*
X0305971Y0094040D01*
X0305905Y0094035D01*
X0305838Y0094034D01*
X0305772Y0094037D01*
X0305705Y0094044D01*
X0305640Y0094055D01*
X0305575Y0094070D01*
X0305511Y0094089D01*
X0305448Y0094111D01*
X0305387Y0094137D01*
X0305327Y0094167D01*
X0305269Y0094200D01*
X0305214Y0094237D01*
X0305160Y0094277D01*
X0305110Y0094320D01*
X0305061Y0094366D01*
X0305016Y0094415D01*
X0304974Y0094467D01*
X0304935Y0094520D01*
X0304899Y0094577D01*
X0304866Y0094635D01*
X0304837Y0094695D01*
X0304812Y0094757D01*
X0304790Y0094820D01*
X0304773Y0094884D01*
X0304759Y0094949D01*
X0304749Y0095015D01*
X0304743Y0095081D01*
X0304741Y0095148D01*
X0288926Y0092393D02*
X0286957Y0092393D01*
X0286957Y0090424D01*
X0286957Y0074676D02*
X0286957Y0072707D01*
X0288926Y0072707D01*
X0304674Y0072707D02*
X0306643Y0072707D01*
X0306643Y0074676D01*
X0129120Y0105287D02*
X0128186Y0105287D01*
X0126318Y0103418D01*
X0126318Y0101550D02*
X0126318Y0105287D01*
X0123977Y0104352D02*
X0123977Y0103418D01*
X0120241Y0103418D01*
X0120241Y0102484D02*
X0120241Y0104352D01*
X0121175Y0105287D01*
X0123043Y0105287D01*
X0123977Y0104352D01*
X0123043Y0101550D02*
X0121175Y0101550D01*
X0120241Y0102484D01*
X0118058Y0101550D02*
X0116189Y0101550D01*
X0117124Y0101550D02*
X0117124Y0107155D01*
X0116189Y0107155D01*
X0113072Y0107155D02*
X0113072Y0101550D01*
X0112138Y0101550D02*
X0114006Y0101550D01*
X0109797Y0102484D02*
X0109797Y0104352D01*
X0108863Y0105287D01*
X0106995Y0105287D01*
X0106061Y0104352D01*
X0106061Y0102484D01*
X0106995Y0101550D01*
X0108863Y0101550D01*
X0109797Y0102484D01*
X0112138Y0107155D02*
X0113072Y0107155D01*
X0103799Y0105287D02*
X0102865Y0105287D01*
X0100996Y0103418D01*
X0100996Y0101550D02*
X0100996Y0105287D01*
X0098813Y0105287D02*
X0096945Y0105287D01*
X0097879Y0106221D02*
X0097879Y0102484D01*
X0098813Y0101550D01*
X0094604Y0101550D02*
X0094604Y0104352D01*
X0093670Y0105287D01*
X0090868Y0105287D01*
X0090868Y0101550D01*
X0088527Y0102484D02*
X0088527Y0104352D01*
X0087593Y0105287D01*
X0085725Y0105287D01*
X0084791Y0104352D01*
X0084791Y0102484D01*
X0085725Y0101550D01*
X0087593Y0101550D01*
X0088527Y0102484D01*
X0082450Y0102484D02*
X0081516Y0101550D01*
X0079648Y0101550D01*
X0078713Y0102484D01*
X0078713Y0106221D01*
X0079648Y0107155D01*
X0081516Y0107155D01*
X0082450Y0106221D01*
X0070296Y0106221D02*
X0069361Y0107155D01*
X0067493Y0107155D01*
X0066559Y0106221D01*
X0064218Y0106221D02*
X0064218Y0105287D01*
X0063284Y0104352D01*
X0064218Y0103418D01*
X0064218Y0102484D01*
X0063284Y0101550D01*
X0061416Y0101550D01*
X0060482Y0102484D01*
X0062350Y0104352D02*
X0063284Y0104352D01*
X0064218Y0106221D02*
X0063284Y0107155D01*
X0061416Y0107155D01*
X0060482Y0106221D01*
X0058141Y0106221D02*
X0058141Y0104352D01*
X0057207Y0103418D01*
X0054405Y0103418D01*
X0054405Y0101550D02*
X0054405Y0107155D01*
X0057207Y0107155D01*
X0058141Y0106221D01*
X0052064Y0106221D02*
X0051130Y0107155D01*
X0049262Y0107155D01*
X0048327Y0106221D01*
X0048327Y0105287D01*
X0049262Y0104352D01*
X0051130Y0104352D01*
X0052064Y0103418D01*
X0052064Y0102484D01*
X0051130Y0101550D01*
X0049262Y0101550D01*
X0048327Y0102484D01*
X0045987Y0101550D02*
X0042250Y0101550D01*
X0042250Y0107155D01*
X0045987Y0107155D01*
X0044119Y0104352D02*
X0042250Y0104352D01*
X0033832Y0104352D02*
X0033832Y0103418D01*
X0030096Y0103418D01*
X0030096Y0102484D02*
X0030096Y0104352D01*
X0031030Y0105287D01*
X0032898Y0105287D01*
X0033832Y0104352D01*
X0032898Y0101550D02*
X0031030Y0101550D01*
X0030096Y0102484D01*
X0027834Y0105287D02*
X0026900Y0105287D01*
X0025032Y0103418D01*
X0025032Y0101550D02*
X0025032Y0105287D01*
X0022691Y0104352D02*
X0021757Y0105287D01*
X0019889Y0105287D01*
X0018954Y0104352D01*
X0018954Y0102484D01*
X0019889Y0101550D01*
X0021757Y0101550D01*
X0022691Y0102484D01*
X0022691Y0104352D01*
X0016614Y0102484D02*
X0015680Y0101550D01*
X0013811Y0101550D01*
X0012877Y0102484D01*
X0012877Y0106221D01*
X0013811Y0107155D01*
X0015680Y0107155D01*
X0016614Y0106221D01*
X0010537Y0105287D02*
X0010537Y0100616D01*
X0009602Y0099682D01*
X0008668Y0099682D01*
X0007734Y0101550D02*
X0010537Y0101550D01*
X0007734Y0101550D02*
X0006800Y0102484D01*
X0006800Y0104352D01*
X0007734Y0105287D01*
X0010537Y0105287D01*
X0066559Y0101550D02*
X0070296Y0105287D01*
X0070296Y0106221D01*
X0070296Y0101550D02*
X0066559Y0101550D01*
D15*
X0203275Y0071287D02*
X0225325Y0071287D01*
X0225325Y0057813D02*
X0203275Y0057813D01*
X0215107Y0086507D02*
X0215501Y0086507D01*
X0215107Y0086507D02*
X0215107Y0093987D01*
X0219044Y0093987D01*
X0224556Y0093987D02*
X0228493Y0093987D01*
X0228493Y0086507D01*
X0228099Y0086507D01*
X0230107Y0086507D02*
X0230501Y0086507D01*
X0230107Y0086507D02*
X0230107Y0093987D01*
X0234044Y0093987D01*
X0239556Y0093987D02*
X0243493Y0093987D01*
X0243493Y0086507D01*
X0243099Y0086507D01*
X0237981Y0086507D02*
X0235619Y0086507D01*
X0222981Y0086507D02*
X0220619Y0086507D01*
X0255257Y0085369D02*
X0255257Y0087731D01*
X0255257Y0092849D02*
X0255257Y0093243D01*
X0262737Y0093243D01*
X0262737Y0089306D01*
X0262737Y0083794D02*
X0262737Y0079857D01*
X0255257Y0079857D01*
X0255257Y0080251D01*
X0255257Y0104357D02*
X0255257Y0104751D01*
X0255257Y0104357D02*
X0262737Y0104357D01*
X0262737Y0108294D01*
X0262737Y0113806D02*
X0262737Y0117743D01*
X0255257Y0117743D01*
X0255257Y0117349D01*
X0255257Y0112231D02*
X0255257Y0109869D01*
X0241367Y0123239D02*
X0241367Y0123830D01*
X0241367Y0123239D02*
X0312233Y0123239D01*
X0312233Y0124026D01*
X0309280Y0108593D02*
X0308493Y0108593D01*
X0309280Y0108593D02*
X0309280Y0101507D01*
X0308493Y0101507D01*
X0302981Y0101507D02*
X0300619Y0101507D01*
X0295107Y0101507D02*
X0294320Y0101507D01*
X0294320Y0108593D01*
X0295107Y0108593D01*
X0315757Y0086074D02*
X0315757Y0064026D01*
X0322843Y0064026D01*
X0322843Y0086074D01*
X0315757Y0086074D01*
X0325757Y0086074D02*
X0325757Y0064026D01*
X0332843Y0064026D01*
X0332843Y0086074D01*
X0325757Y0086074D01*
X0304674Y0040424D02*
X0288926Y0040424D01*
X0288926Y0024676D01*
X0304674Y0024676D01*
X0304674Y0040424D01*
X0286077Y0039243D02*
X0286079Y0039302D01*
X0286085Y0039360D01*
X0286095Y0039418D01*
X0286108Y0039475D01*
X0286126Y0039532D01*
X0286147Y0039587D01*
X0286172Y0039640D01*
X0286200Y0039691D01*
X0286231Y0039741D01*
X0286266Y0039788D01*
X0286304Y0039833D01*
X0286345Y0039876D01*
X0286389Y0039915D01*
X0286435Y0039951D01*
X0286483Y0039985D01*
X0286534Y0040015D01*
X0286587Y0040041D01*
X0286641Y0040064D01*
X0286696Y0040083D01*
X0286753Y0040099D01*
X0286811Y0040111D01*
X0286869Y0040119D01*
X0286928Y0040123D01*
X0286986Y0040123D01*
X0287045Y0040119D01*
X0287103Y0040111D01*
X0287161Y0040099D01*
X0287218Y0040083D01*
X0287273Y0040064D01*
X0287327Y0040041D01*
X0287380Y0040015D01*
X0287431Y0039985D01*
X0287479Y0039951D01*
X0287525Y0039915D01*
X0287569Y0039876D01*
X0287610Y0039833D01*
X0287648Y0039788D01*
X0287683Y0039741D01*
X0287714Y0039691D01*
X0287742Y0039640D01*
X0287767Y0039587D01*
X0287788Y0039532D01*
X0287806Y0039475D01*
X0287819Y0039418D01*
X0287829Y0039360D01*
X0287835Y0039302D01*
X0287837Y0039243D01*
X0287835Y0039184D01*
X0287829Y0039126D01*
X0287819Y0039068D01*
X0287806Y0039011D01*
X0287788Y0038954D01*
X0287767Y0038899D01*
X0287742Y0038846D01*
X0287714Y0038795D01*
X0287683Y0038745D01*
X0287648Y0038698D01*
X0287610Y0038653D01*
X0287569Y0038610D01*
X0287525Y0038571D01*
X0287479Y0038535D01*
X0287431Y0038501D01*
X0287380Y0038471D01*
X0287327Y0038445D01*
X0287273Y0038422D01*
X0287218Y0038403D01*
X0287161Y0038387D01*
X0287103Y0038375D01*
X0287045Y0038367D01*
X0286986Y0038363D01*
X0286928Y0038363D01*
X0286869Y0038367D01*
X0286811Y0038375D01*
X0286753Y0038387D01*
X0286696Y0038403D01*
X0286641Y0038422D01*
X0286587Y0038445D01*
X0286534Y0038471D01*
X0286483Y0038501D01*
X0286435Y0038535D01*
X0286389Y0038571D01*
X0286345Y0038610D01*
X0286304Y0038653D01*
X0286266Y0038698D01*
X0286231Y0038745D01*
X0286200Y0038795D01*
X0286172Y0038846D01*
X0286147Y0038899D01*
X0286126Y0038954D01*
X0286108Y0039011D01*
X0286095Y0039068D01*
X0286085Y0039126D01*
X0286079Y0039184D01*
X0286077Y0039243D01*
X0262068Y0039144D02*
X0262068Y0050956D01*
X0245532Y0050956D01*
X0245532Y0039144D01*
X0262068Y0039144D01*
X0257918Y0032668D02*
X0257131Y0032668D01*
X0257918Y0032668D02*
X0257918Y0030306D01*
X0257918Y0024794D02*
X0257918Y0022432D01*
X0257131Y0022432D01*
X0248469Y0022432D02*
X0247682Y0022432D01*
X0247682Y0024794D01*
X0247682Y0030306D02*
X0247682Y0032668D01*
X0248469Y0032668D01*
X0218537Y0139025D02*
X0218537Y0161075D01*
X0221607Y0154093D02*
X0222001Y0154093D01*
X0221607Y0154093D02*
X0221607Y0146613D01*
X0225544Y0146613D01*
X0231056Y0146613D02*
X0234993Y0146613D01*
X0234993Y0154093D01*
X0234599Y0154093D01*
X0229481Y0154093D02*
X0227119Y0154093D01*
X0205063Y0161075D02*
X0205063Y0139025D01*
X0318257Y0199026D02*
X0318257Y0221074D01*
X0325343Y0221074D01*
X0325343Y0199026D01*
X0318257Y0199026D01*
X0328257Y0199026D02*
X0328257Y0221074D01*
X0335343Y0221074D01*
X0335343Y0199026D01*
X0328257Y0199026D01*
X0312233Y0220286D02*
X0312233Y0246861D01*
X0241367Y0246861D01*
X0241367Y0220286D01*
D16*
X0236564Y0218121D02*
X0236566Y0218164D01*
X0236572Y0218206D01*
X0236582Y0218248D01*
X0236595Y0218289D01*
X0236612Y0218329D01*
X0236633Y0218366D01*
X0236657Y0218402D01*
X0236684Y0218435D01*
X0236714Y0218466D01*
X0236747Y0218494D01*
X0236782Y0218519D01*
X0236819Y0218540D01*
X0236858Y0218558D01*
X0236898Y0218572D01*
X0236940Y0218583D01*
X0236982Y0218590D01*
X0237025Y0218593D01*
X0237068Y0218592D01*
X0237111Y0218587D01*
X0237153Y0218578D01*
X0237194Y0218566D01*
X0237234Y0218550D01*
X0237272Y0218530D01*
X0237308Y0218507D01*
X0237342Y0218480D01*
X0237374Y0218451D01*
X0237402Y0218419D01*
X0237428Y0218384D01*
X0237450Y0218348D01*
X0237469Y0218309D01*
X0237484Y0218269D01*
X0237496Y0218228D01*
X0237504Y0218185D01*
X0237508Y0218142D01*
X0237508Y0218100D01*
X0237504Y0218057D01*
X0237496Y0218014D01*
X0237484Y0217973D01*
X0237469Y0217933D01*
X0237450Y0217894D01*
X0237428Y0217858D01*
X0237402Y0217823D01*
X0237374Y0217791D01*
X0237342Y0217762D01*
X0237308Y0217735D01*
X0237272Y0217712D01*
X0237234Y0217692D01*
X0237194Y0217676D01*
X0237153Y0217664D01*
X0237111Y0217655D01*
X0237068Y0217650D01*
X0237025Y0217649D01*
X0236982Y0217652D01*
X0236940Y0217659D01*
X0236898Y0217670D01*
X0236858Y0217684D01*
X0236819Y0217702D01*
X0236782Y0217723D01*
X0236747Y0217748D01*
X0236714Y0217776D01*
X0236684Y0217807D01*
X0236657Y0217840D01*
X0236633Y0217876D01*
X0236612Y0217913D01*
X0236595Y0217953D01*
X0236582Y0217994D01*
X0236572Y0218036D01*
X0236566Y0218078D01*
X0236564Y0218121D01*
D17*
X0231920Y0214050D02*
X0231680Y0214050D01*
X0231680Y0197050D02*
X0231920Y0197050D01*
X0226800Y0167670D02*
X0226800Y0167430D01*
X0219800Y0132670D02*
X0219800Y0132430D01*
X0274300Y0092670D02*
X0274300Y0092430D01*
X0274300Y0087670D02*
X0274300Y0087430D01*
X0279180Y0107550D02*
X0279420Y0107550D01*
X0289180Y0107550D02*
X0289420Y0107550D01*
X0291680Y0052550D02*
X0291920Y0052550D01*
X0296680Y0052550D02*
X0296920Y0052550D01*
X0280420Y0046550D02*
X0280180Y0046550D01*
X0265420Y0025050D02*
X0265180Y0025050D01*
X0252800Y0015170D02*
X0252800Y0014930D01*
X0240420Y0025050D02*
X0240180Y0025050D01*
X0276680Y0012550D02*
X0276920Y0012550D01*
X0316800Y0037430D02*
X0316800Y0037670D01*
D18*
X0319300Y0063436D03*
X0329300Y0063436D03*
X0331800Y0198436D03*
X0321800Y0198436D03*
D19*
X0214950Y0156349D02*
X0214950Y0143751D01*
X0208650Y0143751D02*
X0208650Y0156349D01*
X0208001Y0067700D02*
X0220599Y0067700D01*
X0220599Y0061400D02*
X0208001Y0061400D01*
D20*
X0214300Y0064550D03*
D21*
X0214103Y0064550D03*
D22*
X0211800Y0150050D03*
D23*
X0211800Y0150247D03*
D24*
X0181800Y0160050D02*
X0179300Y0157550D01*
X0174300Y0157550D01*
X0171800Y0160050D01*
X0169300Y0157550D01*
X0164300Y0157550D01*
X0161800Y0160050D01*
X0159300Y0157550D01*
X0154300Y0157550D01*
X0151800Y0160050D01*
X0149300Y0157550D01*
X0144300Y0157550D01*
X0141800Y0160050D01*
X0139300Y0157550D01*
X0134300Y0157550D01*
X0131800Y0160050D01*
X0129300Y0157550D01*
X0124300Y0157550D01*
X0121800Y0160050D01*
X0119300Y0157550D01*
X0114300Y0157550D01*
X0111800Y0160050D01*
X0109300Y0157550D01*
X0104300Y0157550D01*
X0101800Y0160050D01*
X0099300Y0157550D01*
X0094300Y0157550D01*
X0091800Y0160050D01*
X0089300Y0157550D01*
X0084300Y0157550D01*
X0081800Y0160050D01*
X0079300Y0157550D01*
X0074300Y0157550D01*
X0071800Y0160050D01*
X0069300Y0157550D01*
X0064300Y0157550D01*
X0061800Y0160050D01*
X0059300Y0157550D01*
X0054300Y0157550D01*
X0051800Y0160050D01*
X0049300Y0157550D01*
X0044300Y0157550D01*
X0041800Y0160050D01*
X0039300Y0157550D01*
X0034300Y0157550D01*
X0031800Y0160050D01*
X0029300Y0157550D01*
X0024300Y0157550D01*
X0021800Y0160050D01*
X0021800Y0165050D01*
X0024300Y0167550D01*
X0029300Y0167550D01*
X0031800Y0165050D01*
X0034300Y0167550D01*
X0039300Y0167550D01*
X0041800Y0165050D01*
X0044300Y0167550D01*
X0049300Y0167550D01*
X0051800Y0165050D01*
X0054300Y0167550D01*
X0059300Y0167550D01*
X0061800Y0165050D01*
X0064300Y0167550D01*
X0069300Y0167550D01*
X0071800Y0165050D01*
X0074300Y0167550D01*
X0079300Y0167550D01*
X0081800Y0165050D01*
X0084300Y0167550D01*
X0089300Y0167550D01*
X0091800Y0165050D01*
X0094300Y0167550D01*
X0099300Y0167550D01*
X0101800Y0165050D01*
X0104300Y0167550D01*
X0109300Y0167550D01*
X0111800Y0165050D01*
X0114300Y0167550D01*
X0119300Y0167550D01*
X0121800Y0165050D01*
X0124300Y0167550D01*
X0129300Y0167550D01*
X0131800Y0165050D01*
X0134300Y0167550D01*
X0139300Y0167550D01*
X0141800Y0165050D01*
X0144300Y0167550D01*
X0149300Y0167550D01*
X0151800Y0165050D01*
X0154300Y0167550D01*
X0159300Y0167550D01*
X0161800Y0165050D01*
X0164300Y0167550D01*
X0169300Y0167550D01*
X0171800Y0165050D01*
X0174300Y0167550D01*
X0179300Y0167550D01*
X0181800Y0165050D01*
X0181800Y0160050D01*
X0181800Y0165050D01*
X0294320Y0120896D02*
X0294320Y0114204D01*
X0300225Y0114204D01*
X0300226Y0114204D02*
X0300262Y0114277D01*
X0300303Y0114348D01*
X0300346Y0114418D01*
X0300393Y0114485D01*
X0300443Y0114550D01*
X0300496Y0114612D01*
X0300551Y0114672D01*
X0300610Y0114729D01*
X0300671Y0114784D01*
X0300735Y0114835D01*
X0300801Y0114884D01*
X0300869Y0114929D01*
X0300939Y0114971D01*
X0301011Y0115010D01*
X0301085Y0115046D01*
X0301160Y0115077D01*
X0301237Y0115106D01*
X0301315Y0115130D01*
X0301394Y0115151D01*
X0301474Y0115168D01*
X0301555Y0115182D01*
X0301636Y0115191D01*
X0301718Y0115197D01*
X0301800Y0115199D01*
X0301882Y0115197D01*
X0301964Y0115191D01*
X0302045Y0115182D01*
X0302126Y0115168D01*
X0302206Y0115151D01*
X0302285Y0115130D01*
X0302363Y0115106D01*
X0302440Y0115077D01*
X0302515Y0115046D01*
X0302589Y0115010D01*
X0302661Y0114971D01*
X0302731Y0114929D01*
X0302799Y0114884D01*
X0302865Y0114835D01*
X0302929Y0114784D01*
X0302990Y0114729D01*
X0303049Y0114672D01*
X0303104Y0114612D01*
X0303157Y0114550D01*
X0303207Y0114485D01*
X0303254Y0114418D01*
X0303297Y0114348D01*
X0303338Y0114277D01*
X0303374Y0114204D01*
X0303375Y0114204D02*
X0309280Y0114204D01*
X0309280Y0120896D01*
X0303375Y0120896D01*
X0303374Y0120896D02*
X0303338Y0120823D01*
X0303297Y0120752D01*
X0303254Y0120682D01*
X0303207Y0120615D01*
X0303157Y0120550D01*
X0303104Y0120488D01*
X0303049Y0120428D01*
X0302990Y0120371D01*
X0302929Y0120316D01*
X0302865Y0120265D01*
X0302799Y0120216D01*
X0302731Y0120171D01*
X0302661Y0120129D01*
X0302589Y0120090D01*
X0302515Y0120054D01*
X0302440Y0120023D01*
X0302363Y0119994D01*
X0302285Y0119970D01*
X0302206Y0119949D01*
X0302126Y0119932D01*
X0302045Y0119918D01*
X0301964Y0119909D01*
X0301882Y0119903D01*
X0301800Y0119901D01*
X0301718Y0119903D01*
X0301636Y0119909D01*
X0301555Y0119918D01*
X0301474Y0119932D01*
X0301394Y0119949D01*
X0301315Y0119970D01*
X0301237Y0119994D01*
X0301160Y0120023D01*
X0301085Y0120054D01*
X0301011Y0120090D01*
X0300939Y0120129D01*
X0300869Y0120171D01*
X0300801Y0120216D01*
X0300735Y0120265D01*
X0300671Y0120316D01*
X0300610Y0120371D01*
X0300551Y0120428D01*
X0300496Y0120488D01*
X0300443Y0120550D01*
X0300393Y0120615D01*
X0300346Y0120682D01*
X0300303Y0120752D01*
X0300262Y0120823D01*
X0300226Y0120896D01*
X0300225Y0120896D02*
X0294320Y0120896D01*
X0181800Y0065050D02*
X0181800Y0060050D01*
X0179300Y0057550D01*
X0174300Y0057550D01*
X0171800Y0060050D01*
X0169300Y0057550D01*
X0164300Y0057550D01*
X0161800Y0060050D01*
X0159300Y0057550D01*
X0154300Y0057550D01*
X0151800Y0060050D01*
X0149300Y0057550D01*
X0144300Y0057550D01*
X0141800Y0060050D01*
X0139300Y0057550D01*
X0134300Y0057550D01*
X0131800Y0060050D01*
X0129300Y0057550D01*
X0124300Y0057550D01*
X0121800Y0060050D01*
X0119300Y0057550D01*
X0114300Y0057550D01*
X0111800Y0060050D01*
X0109300Y0057550D01*
X0104300Y0057550D01*
X0101800Y0060050D01*
X0099300Y0057550D01*
X0094300Y0057550D01*
X0091800Y0060050D01*
X0089300Y0057550D01*
X0084300Y0057550D01*
X0081800Y0060050D01*
X0079300Y0057550D01*
X0074300Y0057550D01*
X0071800Y0060050D01*
X0069300Y0057550D01*
X0064300Y0057550D01*
X0061800Y0060050D01*
X0061800Y0065050D01*
X0064300Y0067550D01*
X0069300Y0067550D01*
X0071800Y0065050D01*
X0074300Y0067550D01*
X0079300Y0067550D01*
X0081800Y0065050D01*
X0084300Y0067550D01*
X0089300Y0067550D01*
X0091800Y0065050D01*
X0094300Y0067550D01*
X0099300Y0067550D01*
X0101800Y0065050D01*
X0104300Y0067550D01*
X0109300Y0067550D01*
X0111800Y0065050D01*
X0114300Y0067550D01*
X0119300Y0067550D01*
X0121800Y0065050D01*
X0124300Y0067550D01*
X0129300Y0067550D01*
X0131800Y0065050D01*
X0134300Y0067550D01*
X0139300Y0067550D01*
X0141800Y0065050D01*
X0144300Y0067550D01*
X0149300Y0067550D01*
X0151800Y0065050D01*
X0154300Y0067550D01*
X0159300Y0067550D01*
X0161800Y0065050D01*
X0164300Y0067550D01*
X0169300Y0067550D01*
X0171800Y0065050D01*
X0174300Y0067550D01*
X0179300Y0067550D01*
X0181800Y0065050D01*
X0021800Y0160050D02*
X0021800Y0165050D01*
D25*
X0320910Y0158298D02*
X0320910Y0176802D01*
X0321501Y0176802D01*
X0327406Y0176802D02*
X0328194Y0176802D01*
X0334099Y0176802D02*
X0334690Y0176802D01*
X0334690Y0158298D01*
X0334099Y0158298D01*
X0328194Y0158298D02*
X0327406Y0158298D01*
X0321501Y0158298D02*
X0320910Y0158298D01*
D26*
X0274300Y0107550D03*
X0269300Y0107550D03*
X0281800Y0012550D03*
X0286800Y0012550D03*
X0291800Y0012550D03*
X0296800Y0012550D03*
X0302300Y0012550D03*
D27*
X0316800Y0027550D03*
X0316800Y0032550D03*
X0309300Y0052550D03*
X0309300Y0062550D03*
X0274300Y0082550D03*
X0267800Y0073550D03*
X0237300Y0079550D03*
X0221300Y0079550D03*
X0221800Y0101050D03*
X0236800Y0101050D03*
X0265800Y0098050D03*
X0226800Y0125550D03*
X0226800Y0139550D03*
X0226800Y0160550D03*
X0326300Y0140550D03*
X0325800Y0187550D03*
X0325800Y0192550D03*
X0317800Y0091550D03*
X0276800Y0037550D03*
X0276800Y0032550D03*
X0276800Y0027550D03*
D28*
X0258706Y0031487D03*
D29*
X0307906Y0115041D02*
X0307539Y0115408D01*
X0308640Y0115408D01*
X0308640Y0115041D02*
X0308640Y0115775D01*
M02*
